<svg width="18" height="19" viewBox="0 0 18 19" fill="none" xmlns="http://www.w3.org/2000/svg">
<path d="M8.00512 1.43926C6.2473 1.65371 4.55629 2.45527 3.29066 3.67519C2.80551 4.14277 2.49965 4.50137 2.13051 5.05332C1.45199 6.05879 0.991443 7.26816 0.801599 8.54082C0.731287 9.02949 0.741834 10.3795 0.819177 10.8611C1.06527 12.3518 1.63832 13.6736 2.52074 14.7916C2.77738 15.1186 3.52972 15.8709 3.85668 16.1275C4.97113 17.0064 6.31058 17.5865 7.78715 17.8291C8.33207 17.917 9.66801 17.917 10.2129 17.8291C11.9953 17.5373 13.4965 16.7955 14.7411 15.5932C16.1508 14.2291 17.0332 12.4045 17.2301 10.4393C17.2793 9.92598 17.2547 8.8959 17.1739 8.4002C16.5797 4.66308 13.5914 1.81894 9.83676 1.42168C9.38324 1.37598 8.47621 1.38301 8.00512 1.43926ZM9.37269 4.53301C9.46762 4.58926 9.56254 4.68769 9.6223 4.78965L9.72074 4.95488L9.73129 7.15215L9.74183 9.34941L10.7895 10.4041C11.3661 10.9842 11.8688 11.515 11.9039 11.5818C11.9426 11.6557 11.9672 11.7822 11.9672 11.8982C11.9707 12.4502 11.3661 12.8018 10.8985 12.524C10.7051 12.408 8.43402 10.1334 8.34613 9.96465C8.28285 9.84863 8.27933 9.71152 8.27933 7.39824V4.95488L8.37426 4.78965C8.58871 4.43105 9.01058 4.32207 9.37269 4.53301Z" fill="#96B032"/>
</svg>
