<svg width="18" height="21" viewBox="0 0 18 21" fill="none" xmlns="http://www.w3.org/2000/svg">
<g clip-path="url(#clip0_556_13712)">
<path d="M8.00154 0.710938C5.96248 1.07422 4.23279 2.37891 3.1781 4.33984C2.81951 5.01172 2.52771 5.85156 2.36951 6.67969C2.24295 7.33594 2.21131 8.5625 2.30271 9.30469C2.62967 12.0195 4.14842 15.1406 6.69724 18.3438C7.24217 19.0273 8.51482 20.4492 8.68357 20.5664C8.85232 20.6797 9.14763 20.6797 9.31638 20.5664C9.48513 20.4492 10.7578 19.0273 11.3027 18.3438C13.8551 15.1367 15.3703 12.0195 15.6972 9.30469C15.7886 8.5625 15.757 7.33594 15.6304 6.67969C15.2508 4.69531 14.2207 2.99219 12.7265 1.88281C12.0445 1.37109 11.1269 0.953125 10.2832 0.761719C9.78396 0.648438 8.49724 0.621094 8.00154 0.710938ZM9.71365 4.08984C10.466 4.25781 11.0355 4.59375 11.5875 5.19922C12.1183 5.77734 12.4277 6.35938 12.614 7.12891C12.6949 7.46094 12.7054 7.57812 12.7054 8.14844C12.7054 8.71875 12.6949 8.83594 12.614 9.16797C12.4277 9.9375 12.1183 10.5195 11.5875 11.0977C10.364 12.4336 8.5781 12.6719 7.08045 11.6914C6.64451 11.4102 6.06443 10.7656 5.81131 10.2812C5.09412 8.92969 5.09412 7.35547 5.80779 6.02344C6.02224 5.625 6.43709 5.11328 6.7781 4.82812C7.60779 4.13672 8.70115 3.85938 9.71365 4.08984Z" fill="#96B032"/>
</g>
<defs>
<clipPath id="clip0_556_13712">
<rect width="18" height="20" fill="white" transform="translate(0 0.648438)"/>
</clipPath>
</defs>
</svg>
