<svg width="50" height="21" viewBox="0 0 50 21" fill="none" xmlns="http://www.w3.org/2000/svg">
<g id="GooglePay">
<g id="Pay">
<path id="Union" fill-rule="evenodd" clip-rule="evenodd" d="M23.0603 16.513V10.4711H26.1786C27.4564 10.4711 28.535 10.0429 29.4142 9.19849L29.6252 8.9844C31.2313 7.23606 31.1258 4.51244 29.4142 2.89492C28.5584 2.03859 27.3861 1.57474 26.1786 1.59853H21.1729V16.513H23.0603ZM23.0605 8.63947V3.4301H26.2262C26.9063 3.4301 27.5512 3.69176 28.0319 4.1675C29.052 5.16656 29.0754 6.83165 28.0905 7.86639C27.6098 8.37781 26.9297 8.66325 26.2262 8.63947H23.0605ZM38.4293 7.10524C37.6204 6.35595 36.5185 5.97536 35.1234 5.97536C33.3298 5.97536 31.9816 6.64139 31.0906 7.96157L32.7553 9.0201C33.3649 8.11619 34.1973 7.66424 35.2524 7.66424C35.9206 7.66424 36.5653 7.914 37.0694 8.36595C37.5618 8.79412 37.8432 9.41258 37.8432 10.0667V10.5068C37.1163 10.1024 36.2019 9.88832 35.0765 9.88832C33.7635 9.88832 32.7084 10.1976 31.923 10.8279C31.1375 11.4583 30.739 12.2908 30.739 13.3493C30.7155 14.3127 31.1258 15.2285 31.8527 15.847C32.5912 16.513 33.5291 16.846 34.631 16.846C35.9323 16.846 36.9639 16.2633 37.7494 15.0977H37.8314V16.513H39.6368V10.2213C39.6368 8.90116 39.2382 7.85453 38.4293 7.10524ZM33.3066 14.6338C32.9197 14.3484 32.6852 13.8845 32.6852 13.385C32.6852 12.826 32.9432 12.3622 33.4473 11.9935C33.9632 11.6248 34.6081 11.4345 35.3702 11.4345C36.4255 11.4226 37.2462 11.6604 37.8325 12.1362C37.8325 12.945 37.5159 13.6467 36.8945 14.2413C36.3317 14.8122 35.5696 15.1334 34.7723 15.1334C34.2446 15.1453 33.7287 14.9669 33.3066 14.6338ZM43.693 20.9969L50.0001 6.30838H47.9485L45.0295 13.6348H44.9943L42.0049 6.30838H39.9534L44.0916 15.8589L41.747 20.9969H43.693Z" fill="#3C4043"/>
</g>
<g id="G">
<path id="Blue" d="M16.5442 9.16614C16.5442 8.58336 16.4973 8.00058 16.4035 7.42969H8.44348V10.7242H13.0038C12.8162 11.7827 12.2066 12.7342 11.3156 13.3289V15.4697H14.0354C15.6298 13.983 16.5442 11.7827 16.5442 9.16614Z" fill="#4285F4"/>
<path id="Green" d="M8.44385 17.5392C10.7181 17.5392 12.6407 16.778 14.0358 15.4697L11.316 13.3289C10.554 13.8522 9.58099 14.1496 8.44385 14.1496C6.2399 14.1496 4.37593 12.6391 3.70771 10.6172H0.905884V12.8294C2.3361 15.7195 5.25516 17.5392 8.44385 17.5392Z" fill="#34A853"/>
<path id="Yellow" d="M3.70803 10.6157C3.35628 9.5572 3.35628 8.40353 3.70803 7.33311V5.13281H0.905755C-0.301918 7.5472 -0.301918 10.4016 0.905755 12.816L3.70803 10.6157Z" fill="#FBBC04"/>
<path id="Red" d="M8.44385 3.80033C9.65133 3.77654 10.8119 4.24039 11.6794 5.08483L14.0944 2.63476C12.5587 1.18375 10.5423 0.386887 8.44385 0.410674C5.25516 0.410674 2.3361 2.24228 0.905884 5.1324L3.70771 7.3446C4.37593 5.31081 6.2399 3.80033 8.44385 3.80033Z" fill="#EA4335"/>
</g>
</g>
</svg>
