<svg width="45" height="28" viewBox="0 0 45 28" fill="none" xmlns="http://www.w3.org/2000/svg">
<g id="Mastercard">
<path id="Left" fill-rule="evenodd" clip-rule="evenodd" d="M22.5 24.3139C20.1169 26.3704 17.0255 27.6119 13.6475 27.6119C6.11021 27.6119 0 21.4308 0 13.806C0 6.18114 6.11021 0 13.6475 0C17.0255 0 20.1169 1.2415 22.5 3.29806C24.8831 1.2415 27.9745 0 31.3525 0C38.8898 0 45 6.18114 45 13.806C45 21.4308 38.8898 27.6119 31.3525 27.6119C27.9745 27.6119 24.8831 26.3704 22.5 24.3139Z" fill="#ED0006"/>
<path id="Right" fill-rule="evenodd" clip-rule="evenodd" d="M22.5 24.3139C25.4344 21.7816 27.2951 18.0136 27.2951 13.806C27.2951 9.59833 25.4344 5.83033 22.5 3.29806C24.8831 1.2415 27.9745 0 31.3525 0C38.8898 0 45 6.18114 45 13.806C45 21.4308 38.8898 27.6119 31.3525 27.6119C27.9745 27.6119 24.8831 26.3704 22.5 24.3139Z" fill="#F9A000"/>
<path id="Middle" fill-rule="evenodd" clip-rule="evenodd" d="M22.5 3.29688C25.4344 5.82914 27.2951 9.59713 27.2951 13.8047C27.2951 18.0123 25.4344 21.7803 22.5 24.3126C19.5657 21.7803 17.705 18.0123 17.705 13.8047C17.705 9.59713 19.5657 5.82914 22.5 3.29688Z" fill="#FF5E00"/>
</g>
</svg>
