<svg width="22" height="26" viewBox="0 0 22 26" fill="none" xmlns="http://www.w3.org/2000/svg">
<g id="PayPal">
<path id="Vector" d="M6.4714 24.5362L6.90046 21.8113L5.94482 21.7891H1.38153L4.55281 1.68078C4.56249 1.62007 4.59461 1.56347 4.64136 1.52328C4.68812 1.48309 4.74809 1.46094 4.81043 1.46094H12.5049C15.0594 1.46094 16.8221 1.9925 17.7426 3.04167C18.174 3.53386 18.4488 4.04819 18.5818 4.6142C18.7211 5.20813 18.7237 5.91768 18.5874 6.78312L18.5775 6.84628V7.4008L19.0092 7.64527C19.3726 7.83802 19.6611 8.05869 19.8826 8.31135C20.2519 8.73217 20.4907 9.26701 20.5915 9.9011C20.6956 10.5533 20.6612 11.3293 20.4907 12.2078C20.2937 13.2185 19.9754 14.0986 19.5457 14.8189C19.1502 15.4825 18.6465 16.0328 18.0486 16.4595C17.4776 16.8647 16.7992 17.1724 16.0322 17.3693C15.2889 17.5627 14.4416 17.6605 13.5122 17.6605H12.9134C12.4853 17.6605 12.0692 17.8147 11.7429 18.0912C11.4156 18.3734 11.1988 18.7588 11.1325 19.1805L11.0874 19.4258L10.3294 24.2286L10.2949 24.405C10.2859 24.4609 10.2703 24.4888 10.2474 24.5077C10.2269 24.5247 10.1974 24.5362 10.1686 24.5362H6.4714Z" fill="#253B80"/>
<path id="Vector_2" d="M19.4157 6.91016C19.3928 7.05698 19.3666 7.20709 19.3371 7.36131C18.3222 12.5711 14.8508 14.3709 10.4169 14.3709H8.15947C7.61731 14.3709 7.16039 14.7646 7.07585 15.2995L5.91997 22.6298L5.59269 24.7076C5.53767 25.0587 5.80852 25.3754 6.16272 25.3754H10.1668C10.641 25.3754 11.0436 25.0308 11.1182 24.5633L11.1577 24.3598L11.9116 19.5757L11.9601 19.3133C12.0337 18.8441 12.4373 18.4996 12.9114 18.4996H13.5103C17.3895 18.4996 20.4264 16.9246 21.314 12.3669C21.6848 10.4629 21.4928 8.87316 20.5116 7.75507C20.2148 7.41792 19.8465 7.13819 19.4157 6.91016Z" fill="#179BD7"/>
<path id="Vector_3" d="M18.3523 6.48531C18.1974 6.44018 18.0373 6.39917 17.8731 6.36226C17.7083 6.32618 17.5393 6.29418 17.3655 6.26629C16.7567 6.16785 16.0899 6.12109 15.3753 6.12109H9.34446C9.19593 6.12109 9.05496 6.15472 8.92862 6.21543C8.65046 6.34913 8.44384 6.61247 8.39378 6.93484L7.11063 15.0608L7.07379 15.2979C7.15833 14.7631 7.61525 14.3693 8.15741 14.3693H10.4149C14.8487 14.3693 18.3204 12.5687 19.3351 7.35976C19.3653 7.20554 19.3908 7.05543 19.4137 6.9086C19.157 6.77242 18.8788 6.65594 18.5794 6.55667C18.5058 6.53206 18.4295 6.50828 18.3523 6.48531Z" fill="#222D65"/>
<path id="Vector_4" d="M8.39729 6.93667C8.44735 6.61427 8.6542 6.35096 8.93213 6.21806C9.05941 6.15735 9.19967 6.12373 9.34796 6.12373H15.3791C16.0936 6.12373 16.7604 6.17048 17.369 6.26893C17.543 6.29681 17.7121 6.32881 17.8769 6.36489C18.041 6.40182 18.2009 6.44284 18.356 6.48794C18.433 6.51092 18.5093 6.5347 18.5839 6.5585C18.8833 6.65774 19.1615 6.77506 19.4181 6.91041C19.7202 4.98514 19.4158 3.67428 18.3749 2.48729C17.2273 1.18054 15.1559 0.621094 12.5055 0.621094H4.81089C4.26943 0.621094 3.80779 1.01482 3.72396 1.55049L0.519149 21.8655C0.455865 22.2674 0.765909 22.6301 1.17112 22.6301H5.92166L7.11437 15.0627L8.39729 6.93667Z" fill="#253B80"/>
</g>
</svg>
