<svg width="155" height="65" viewBox="0 0 155 65" fill="none" xmlns="http://www.w3.org/2000/svg">
<rect y="0.498047" width="154.937" height="64" rx="16" fill="#3D544D"/>
<path d="M35.4876 31.3675C35.455 27.8351 38.4541 26.1166 38.5913 26.0366C36.8927 23.6221 34.2601 23.2922 33.3349 23.2659C31.1238 23.039 28.979 24.5559 27.8527 24.5559C26.7038 24.5559 24.9693 23.2878 23.1 23.325C20.6944 23.3612 18.4439 24.7192 17.2096 26.8279C14.6624 31.1275 16.5622 37.4459 19.0026 40.9214C20.2234 42.6235 21.6499 44.5239 23.517 44.4571C25.3437 44.3836 26.026 43.3216 28.2304 43.3216C30.4145 43.3216 31.0552 44.4571 32.9595 44.4143C34.9199 44.3836 36.1542 42.7046 37.3323 40.9871C38.743 39.0362 39.3096 37.115 39.332 37.0163C39.2859 37.001 35.5247 35.6014 35.4876 31.3675Z" fill="white"/>
<path d="M31.8905 20.9796C32.8729 19.7817 33.5451 18.1519 33.3585 16.498C31.9365 16.5594 30.1582 17.457 29.1342 18.6287C28.2281 19.6611 27.4188 21.3533 27.6279 22.9447C29.2252 23.0609 30.8653 22.1589 31.8905 20.9796Z" fill="white"/>
<path d="M56.7579 20.6541C56.7579 21.9441 56.3611 22.9152 55.5686 23.5673C54.8346 24.169 53.7914 24.4704 52.4402 24.4704C51.7703 24.4704 51.197 24.4419 50.717 24.3849V17.3365C51.3431 17.2379 52.0176 17.1874 52.746 17.1874C54.0331 17.1874 55.0032 17.4603 55.6574 18.0062C56.3903 18.6232 56.7579 19.5055 56.7579 20.6541ZM55.5158 20.6859C55.5158 19.8496 55.2887 19.2085 54.8346 18.7613C54.3804 18.3152 53.7172 18.0916 52.8438 18.0916C52.4728 18.0916 52.157 18.1158 51.895 18.1662V23.5245C52.0401 23.5465 52.3053 23.5563 52.6909 23.5563C53.5924 23.5563 54.2883 23.3119 54.7784 22.8231C55.2685 22.3343 55.5158 21.6219 55.5158 20.6859Z" fill="white"/>
<path d="M63.3441 21.7808C63.3441 22.5754 63.1114 23.2264 62.646 23.7372C62.1581 24.2621 61.5118 24.5241 60.7047 24.5241C59.9268 24.5241 59.3074 24.2731 58.8454 23.7689C58.3845 23.2659 58.1541 22.6313 58.1541 21.8663C58.1541 21.0662 58.3912 20.4097 58.8679 19.9C59.3445 19.3904 59.9852 19.135 60.7923 19.135C61.5702 19.135 62.1952 19.386 62.6685 19.8891C63.1181 20.3779 63.3441 21.0092 63.3441 21.7808ZM62.1222 21.8181C62.1222 21.3413 62.0165 20.9325 61.8063 20.5916C61.559 20.1795 61.2071 19.9735 60.7496 19.9735C60.2764 19.9735 59.9167 20.1795 59.6694 20.5916C59.458 20.9325 59.3535 21.3479 59.3535 21.8389C59.3535 22.3156 59.4591 22.7244 59.6694 23.0653C59.9245 23.4774 60.2797 23.6834 60.7384 23.6834C61.188 23.6834 61.541 23.4741 61.795 23.0543C62.0131 22.7069 62.1222 22.2948 62.1222 21.8181Z" fill="white"/>
<path d="M72.175 19.2403L70.517 24.4068H69.4378L68.751 22.1633C68.5768 21.6032 68.4351 21.0465 68.325 20.4941H68.3036C68.2013 21.0618 68.0597 21.6175 67.8776 22.1633L67.148 24.4068H66.0565L64.4974 19.2403H65.708L66.3072 21.6964C66.4522 22.2773 66.5714 22.8308 66.6669 23.3546H66.6883C66.776 22.9228 66.921 22.3726 67.1255 21.7074L67.8776 19.2413H68.8376L69.5581 21.6547C69.7323 22.2433 69.874 22.8099 69.983 23.3557H70.0156C70.0954 22.8242 70.2157 22.2575 70.3753 21.6547L71.0183 19.2413H72.175V19.2403Z" fill="white"/>
<path d="M78.2823 24.4068H77.1042V21.4476C77.1042 20.5357 76.749 20.0798 76.0363 20.0798C75.6867 20.0798 75.4046 20.2047 75.1854 20.4557C74.9684 20.7067 74.8583 21.0026 74.8583 21.3413V24.4057H73.6802V20.7166C73.6802 20.2628 73.6656 19.7707 73.6375 19.2381H74.6728L74.7279 20.0458H74.7605C74.8976 19.7948 75.1022 19.5877 75.3709 19.4222C75.6901 19.2293 76.0476 19.1318 76.4388 19.1318C76.9334 19.1318 77.3448 19.2874 77.6719 19.5997C78.0788 19.9823 78.2823 20.5533 78.2823 21.3117V24.4068Z" fill="white"/>
<path d="M81.531 24.4068H80.354V16.8696H81.531V24.4068Z" fill="white"/>
<path d="M88.4667 21.7808C88.4667 22.5754 88.234 23.2264 87.7686 23.7372C87.2808 24.2621 86.6333 24.5241 85.8273 24.5241C85.0483 24.5241 84.4289 24.2731 83.968 23.7689C83.5071 23.2659 83.2767 22.6313 83.2767 21.8663C83.2767 21.0662 83.5139 20.4097 83.9905 19.9C84.4671 19.3904 85.1079 19.135 85.9138 19.135C86.6929 19.135 87.3167 19.386 87.7911 19.8891C88.2408 20.3779 88.4667 21.0092 88.4667 21.7808ZM87.2437 21.8181C87.2437 21.3413 87.138 20.9325 86.9278 20.5916C86.6816 20.1795 86.3286 19.9735 85.8723 19.9735C85.3979 19.9735 85.0382 20.1795 84.792 20.5916C84.5807 20.9325 84.4761 21.3479 84.4761 21.8389C84.4761 22.3156 84.5818 22.7244 84.792 23.0653C85.0472 23.4774 85.4024 23.6834 85.861 23.6834C86.3107 23.6834 86.6625 23.4741 86.9165 23.0543C87.1357 22.7069 87.2437 22.2948 87.2437 21.8181Z" fill="white"/>
<path d="M94.1682 24.4068H93.1104L93.0227 23.8117H92.9901C92.6281 24.2862 92.1122 24.5241 91.4422 24.5241C90.942 24.5241 90.5373 24.3674 90.2327 24.0561C89.9561 23.7733 89.8179 23.4215 89.8179 23.0039C89.8179 22.3726 90.0877 21.8915 90.6306 21.5583C91.1724 21.2251 91.9346 21.0618 92.9159 21.0695V20.973C92.9159 20.2924 92.5494 19.9527 91.8154 19.9527C91.2927 19.9527 90.8318 20.0809 90.4339 20.3352L90.1944 19.5811C90.6868 19.2841 91.2949 19.135 92.0121 19.135C93.397 19.135 94.0917 19.8474 94.0917 21.2722V23.1749C94.0917 23.6911 94.1176 24.1021 94.1682 24.4068ZM92.9451 22.6313V21.8345C91.6457 21.8126 90.9959 22.16 90.9959 22.8757C90.9959 23.1453 91.0701 23.347 91.2219 23.4818C91.3736 23.6166 91.567 23.6834 91.7974 23.6834C92.056 23.6834 92.2976 23.6034 92.518 23.4445C92.7394 23.2845 92.8754 23.0817 92.926 22.8329C92.9384 22.7771 92.9451 22.7091 92.9451 22.6313Z" fill="white"/>
<path d="M100.862 24.4068H99.8168L99.7617 23.5771H99.7291C99.3952 24.2084 98.8265 24.5241 98.0272 24.5241C97.3887 24.5241 96.857 24.2797 96.4355 23.7909C96.0139 23.302 95.8037 22.6674 95.8037 21.8882C95.8037 21.0519 96.0319 20.3746 96.4906 19.8573C96.9346 19.3751 97.4787 19.1339 98.1261 19.1339C98.8377 19.1339 99.3357 19.3674 99.6189 19.8354H99.6414V16.8696H100.821V23.0149C100.821 23.5179 100.834 23.9816 100.862 24.4068ZM99.6414 22.228V21.3665C99.6414 21.2174 99.6302 21.0969 99.6088 21.0048C99.5425 20.7286 99.3997 20.4963 99.1828 20.3089C98.9636 20.1214 98.6994 20.0272 98.3948 20.0272C97.9553 20.0272 97.6113 20.1971 97.3584 20.5379C97.1077 20.8788 96.9807 21.3139 96.9807 21.8454C96.9807 22.3562 97.101 22.7705 97.3426 23.0894C97.5978 23.4292 97.9418 23.5991 98.3723 23.5991C98.759 23.5991 99.0681 23.4577 99.3031 23.1738C99.5301 22.9119 99.6414 22.5962 99.6414 22.228Z" fill="white"/>
<path d="M110.938 21.7808C110.938 22.5754 110.705 23.2264 110.239 23.7372C109.752 24.2621 109.106 24.5241 108.298 24.5241C107.521 24.5241 106.902 24.2731 106.439 23.7689C105.978 23.2659 105.748 22.6313 105.748 21.8663C105.748 21.0662 105.985 20.4097 106.461 19.9C106.938 19.3904 107.579 19.135 108.387 19.135C109.164 19.135 109.79 19.386 110.262 19.8891C110.712 20.3779 110.938 21.0092 110.938 21.7808ZM109.717 21.8181C109.717 21.3413 109.611 20.9325 109.401 20.5916C109.152 20.1795 108.802 19.9735 108.343 19.9735C107.871 19.9735 107.511 20.1795 107.263 20.5916C107.052 20.9325 106.947 21.3479 106.947 21.8389C106.947 22.3156 107.053 22.7244 107.263 23.0653C107.518 23.4774 107.873 23.6834 108.332 23.6834C108.782 23.6834 109.136 23.4741 109.39 23.0543C109.607 22.7069 109.717 22.2948 109.717 21.8181Z" fill="white"/>
<path d="M117.272 24.4068H116.095V21.4476C116.095 20.5357 115.74 20.0798 115.026 20.0798C114.676 20.0798 114.394 20.2047 114.176 20.4557C113.958 20.7067 113.849 21.0026 113.849 21.3413V24.4057H112.67V20.7166C112.67 20.2628 112.656 19.7707 112.628 19.2381H113.662L113.717 20.0458H113.75C113.888 19.7948 114.093 19.5877 114.36 19.4222C114.681 19.2293 115.037 19.1318 115.429 19.1318C115.923 19.1318 116.334 19.2874 116.661 19.5997C117.07 19.9823 117.272 20.5533 117.272 21.3117V24.4068Z" fill="white"/>
<path d="M125.2 20.1006H123.903V22.6105C123.903 23.2483 124.133 23.5673 124.59 23.5673C124.801 23.5673 124.977 23.5497 125.115 23.5136L125.145 24.3849C124.912 24.4704 124.607 24.5131 124.23 24.5131C123.765 24.5131 123.403 24.375 123.141 24.0988C122.878 23.8226 122.747 23.3579 122.747 22.7058V20.1006H121.973V19.2403H122.747V18.2933L123.902 17.9536V19.2392H125.199V20.1006H125.2Z" fill="white"/>
<path d="M131.437 24.4068H130.258V21.4695C130.258 20.5434 129.902 20.0798 129.191 20.0798C128.644 20.0798 128.271 20.3483 128.067 20.8853C128.032 20.9982 128.012 21.1363 128.012 21.2985V24.4057H126.835V16.8696H128.012V19.9833H128.034C128.405 19.4167 128.937 19.1339 129.626 19.1339C130.114 19.1339 130.517 19.2896 130.838 19.6019C131.237 19.991 131.437 20.5697 131.437 21.3347V24.4068Z" fill="white"/>
<path d="M137.87 21.5791C137.87 21.7852 137.854 21.9583 137.826 22.0997H134.293C134.309 22.6105 134.477 22.9995 134.805 23.2692C135.104 23.5103 135.489 23.6308 135.961 23.6308C136.484 23.6308 136.961 23.5497 137.39 23.3864L137.574 24.1843C137.072 24.3969 136.481 24.5033 135.796 24.5033C134.975 24.5033 134.329 24.2676 133.861 23.7963C133.392 23.325 133.159 22.6927 133.159 21.8991C133.159 21.1199 133.376 20.4711 133.813 19.9537C134.269 19.4014 134.887 19.1252 135.666 19.1252C136.428 19.1252 137.007 19.4014 137.398 19.9537C137.714 20.3921 137.87 20.9347 137.87 21.5791ZM136.746 21.2821C136.755 20.9412 136.677 20.6475 136.518 20.3998C136.313 20.0809 136.002 19.9209 135.58 19.9209C135.196 19.9209 134.882 20.0765 134.643 20.3889C134.447 20.6377 134.331 20.9347 134.293 21.2821H136.746Z" fill="white"/>
<path d="M61.9232 44.2126H59.3703L57.9719 39.9284H53.1113L51.7792 44.2126H49.2938L54.1095 29.627H57.0839L61.9232 44.2126ZM57.5504 38.1309L56.2858 34.3223C56.152 33.9332 55.9013 33.017 55.5315 31.5746H55.4865C55.3393 32.195 55.1021 33.1112 54.7761 34.3223L53.534 38.1309H57.5504Z" fill="white"/>
<path d="M74.3074 38.8247C74.3074 40.6134 73.8117 42.0272 72.8202 43.0652C71.9322 43.9891 70.8294 44.4505 69.5131 44.4505C68.0923 44.4505 67.0716 43.9529 66.4499 42.9577H66.405V48.498H64.0084V37.1577C64.0084 36.0332 63.978 34.8791 63.9196 33.6954H66.0273L66.161 35.3625H66.206C67.0052 34.1064 68.2182 33.4795 69.8459 33.4795C71.1183 33.4795 72.1806 33.9694 73.0304 34.9504C73.8825 35.9324 74.3074 37.2235 74.3074 38.8247ZM71.8659 38.9102C71.8659 37.8865 71.6298 37.0426 71.1554 36.3784C70.6372 35.6858 69.9414 35.3394 69.0691 35.3394C68.4778 35.3394 67.9405 35.5323 67.4605 35.9126C66.9794 36.2962 66.6646 36.7971 66.5174 37.4175C66.4432 37.7068 66.4061 37.9435 66.4061 38.1299V39.8835C66.4061 40.6485 66.6467 41.294 67.1278 41.8212C67.6089 42.3484 68.2339 42.6114 69.0028 42.6114C69.9054 42.6114 70.608 42.2717 71.1105 41.5943C71.6141 40.9159 71.8659 40.0216 71.8659 38.9102Z" fill="white"/>
<path d="M86.7142 38.8247C86.7142 40.6134 86.2185 42.0272 85.2259 43.0652C84.339 43.9891 83.2362 44.4505 81.9199 44.4505C80.499 44.4505 79.4783 43.9529 78.8578 42.9577H78.8129V48.498H76.4163V37.1577C76.4163 36.0332 76.3859 34.8791 76.3275 33.6954H78.4352L78.5689 35.3625H78.6139C79.412 34.1064 80.6249 33.4795 82.2538 33.4795C83.5251 33.4795 84.5874 33.9694 85.4395 34.9504C86.2882 35.9324 86.7142 37.2235 86.7142 38.8247ZM84.2726 38.9102C84.2726 37.8865 84.0355 37.0426 83.5611 36.3784C83.0429 35.6858 82.3493 35.3394 81.4759 35.3394C80.8835 35.3394 80.3473 35.5323 79.8661 35.9126C79.385 36.2962 79.0714 36.7971 78.9241 37.4175C78.8511 37.7068 78.8129 37.9435 78.8129 38.1299V39.8835C78.8129 40.6485 79.0534 41.294 79.5323 41.8212C80.0134 42.3473 80.6384 42.6114 81.4095 42.6114C82.3122 42.6114 83.0148 42.2717 83.5172 41.5943C84.0208 40.9159 84.2726 40.0216 84.2726 38.9102Z" fill="white"/>
<path d="M100.586 40.1224C100.586 41.3631 100.144 42.3725 99.257 43.1517C98.2824 44.0033 96.9256 44.4286 95.1821 44.4286C93.5724 44.4286 92.2819 44.1261 91.305 43.52L91.8603 41.5724C92.9125 42.1927 94.067 42.504 95.3248 42.504C96.2275 42.504 96.9301 42.3045 97.4348 41.9078C97.9373 41.511 98.1879 40.9784 98.1879 40.3142C98.1879 39.7223 97.9811 39.2237 97.5663 38.8192C97.1538 38.4148 96.4647 38.0389 95.5024 37.6915C92.8833 36.739 91.5748 35.3438 91.5748 33.5091C91.5748 32.3101 92.0335 31.327 92.9519 30.562C93.8669 29.7958 95.0876 29.4133 96.6142 29.4133C97.9755 29.4133 99.1063 29.6446 100.009 30.106L99.4098 32.0109C98.5667 31.5637 97.6135 31.3401 96.5467 31.3401C95.7037 31.3401 95.0449 31.5429 94.5728 31.9462C94.1738 32.3068 93.9737 32.7463 93.9737 33.2669C93.9737 33.8434 94.2019 34.3201 94.6605 34.695C95.0595 35.0413 95.7846 35.4162 96.8368 35.8206C98.1239 36.3258 99.0692 36.9166 99.6774 37.5939C100.283 38.269 100.586 39.1141 100.586 40.1224Z" fill="white"/>
<path d="M108.509 35.449H105.868V40.5553C105.868 41.8541 106.333 42.5029 107.266 42.5029C107.694 42.5029 108.05 42.4667 108.331 42.3944L108.397 44.1688C107.925 44.3409 107.303 44.4275 106.533 44.4275C105.587 44.4275 104.847 44.1458 104.313 43.5836C103.781 43.0202 103.514 42.0754 103.514 40.7482V35.4468H101.94V33.6932H103.514V31.7675L105.868 31.0749V33.6932H108.509V35.449Z" fill="white"/>
<path d="M120.428 38.8675C120.428 40.4841 119.954 41.8113 119.007 42.8492C118.015 43.9178 116.697 44.4505 115.055 44.4505C113.472 44.4505 112.212 43.9387 111.273 42.915C110.333 41.8913 109.863 40.5991 109.863 39.0417C109.863 37.412 110.346 36.077 111.316 35.0391C112.284 34.0001 113.59 33.4806 115.233 33.4806C116.815 33.4806 118.089 33.9924 119.05 35.0172C119.97 36.0113 120.428 37.2947 120.428 38.8675ZM117.942 38.9431C117.942 37.9731 117.729 37.1413 117.299 36.4475C116.796 35.6079 116.078 35.1893 115.147 35.1893C114.184 35.1893 113.452 35.609 112.95 36.4475C112.519 37.1424 112.307 37.9874 112.307 38.9869C112.307 39.9569 112.519 40.7887 112.95 41.4814C113.468 42.321 114.192 42.7396 115.126 42.7396C116.041 42.7396 116.759 42.3122 117.277 41.4595C117.719 40.7526 117.942 39.9119 117.942 38.9431Z" fill="white"/>
<path d="M128.218 35.7504C127.981 35.7077 127.728 35.6858 127.463 35.6858C126.62 35.6858 125.968 35.9959 125.509 36.6174C125.11 37.1654 124.91 37.858 124.91 38.6943V44.2127H122.515L122.537 37.0076C122.537 35.7954 122.507 34.6917 122.447 33.6965H124.535L124.622 35.7088H124.689C124.942 35.0172 125.341 34.4604 125.887 34.0429C126.421 33.6669 126.998 33.4795 127.619 33.4795C127.841 33.4795 128.041 33.4949 128.218 33.5223V35.7504Z" fill="white"/>
<path d="M138.937 38.4565C138.937 38.8751 138.909 39.228 138.849 39.5163H131.659C131.687 40.5553 132.035 41.3499 132.702 41.8979C133.308 42.3878 134.092 42.6333 135.054 42.6333C136.119 42.6333 137.09 42.4678 137.963 42.1357L138.339 43.7578C137.318 44.1918 136.113 44.4077 134.722 44.4077C133.05 44.4077 131.737 43.9277 130.781 42.9687C129.828 42.0097 129.35 40.7219 129.35 39.1064C129.35 37.5205 129.794 36.1998 130.684 35.1465C131.614 34.022 132.872 33.4598 134.455 33.4598C136.01 33.4598 137.187 34.022 137.986 35.1465C138.619 36.0398 138.937 37.1445 138.937 38.4565ZM136.651 37.8504C136.667 37.1577 136.511 36.5593 136.186 36.054C135.771 35.4041 135.134 35.0797 134.276 35.0797C133.493 35.0797 132.855 35.3964 132.369 36.0321C131.97 36.5374 131.732 37.1434 131.659 37.8493H136.651V37.8504Z" fill="white"/>
</svg>
