<svg width="39" height="40" viewBox="0 0 39 40" fill="none" xmlns="http://www.w3.org/2000/svg">
<path d="M21.0078 38.9678C21.7075 39.8225 22.9676 39.948 23.8222 39.2483L37.7495 27.8452C38.6042 27.1454 38.7298 25.8854 38.03 25.0307C37.3303 24.1761 36.0702 24.0505 35.2155 24.7502L22.8357 34.8863L12.6996 22.5065C11.9999 21.6519 10.7398 21.5263 9.88513 22.226C9.03048 22.9258 8.90491 24.1859 9.60466 25.0405L21.0078 38.9678ZM1.47406 5.13777C7.33162 3.70867 11.1687 4.99953 13.8263 7.42655C16.6103 9.96886 18.3794 14.0122 19.4358 18.5569C20.4825 23.06 20.7705 27.7956 20.7896 31.4408C20.7991 33.2555 20.742 34.7822 20.6828 35.8512C20.6532 36.3854 20.6232 36.8044 20.6008 37.0869C20.5896 37.2281 20.5804 37.3352 20.5741 37.4053C20.571 37.4404 20.5685 37.4663 20.567 37.4826C20.5662 37.4907 20.5657 37.4965 20.5653 37.4998C20.5652 37.5015 20.5651 37.5025 20.565 37.503C20.565 37.5032 20.565 37.5031 20.565 37.5032C20.565 37.5029 20.5651 37.5025 22.5552 37.7008C24.5454 37.8991 24.5454 37.8984 24.5455 37.8975C24.5456 37.897 24.5457 37.8959 24.5458 37.8949C24.546 37.8929 24.5462 37.8902 24.5466 37.8869C24.5472 37.8804 24.5481 37.8714 24.5492 37.86C24.5513 37.8372 24.5543 37.8047 24.5581 37.7628C24.5656 37.6792 24.576 37.5581 24.5884 37.4023C24.613 37.0909 24.6452 36.6404 24.6766 36.0723C24.7395 34.937 24.7995 33.3284 24.7895 31.4199C24.7696 27.6187 24.472 22.556 23.3319 17.6513C22.2016 12.7883 20.1829 7.81451 16.5237 4.47285C12.7382 1.0159 7.4767 -0.444047 0.525968 1.25175L1.47406 5.13777Z" fill="url(#paint0_linear_54_23090)"/>
<defs>
<linearGradient id="paint0_linear_54_23090" x1="5.71879" y1="0.247037" x2="27.274" y2="34.7531" gradientUnits="userSpaceOnUse">
<stop stop-color="#307040"/>
<stop offset="0.455" stop-color="#74B243"/>
<stop offset="0.8" stop-color="#96B032"/>
</linearGradient>
</defs>
</svg>
