<svg width="172" height="65" viewBox="0 0 172 65" fill="none" xmlns="http://www.w3.org/2000/svg">
<rect x="0.9375" y="0.498047" width="170.127" height="64" rx="16" fill="#3D544D"/>
<path d="M17.4869 17.8451C17.1389 18.2003 16.9375 18.7533 16.9375 19.4694V45.0127C16.9375 45.7289 17.1389 46.2818 17.4869 46.637L17.5728 46.715L32.2534 32.4071V32.0693L17.5728 17.7614L17.4869 17.8451Z" fill="white"/>
<path d="M38.9184 37.1788L34.0303 32.4071V32.0692L38.9244 27.2976L39.0339 27.3596L44.8298 30.5749C46.4838 31.4874 46.4838 32.9889 44.8298 33.9072L39.0339 37.1167L38.9184 37.1788Z" fill="white"/>
<path d="M38.1455 38.0052L33.1419 33.1267L18.3753 47.5255C18.9247 48.0886 19.8206 48.1564 20.8394 47.5933L38.1455 38.0052Z" fill="white"/>
<path d="M38.1455 26.4712L20.8394 16.883C19.8206 16.3257 18.9247 16.3936 18.3753 16.9567L33.1419 31.3497L38.1455 26.4712Z" fill="white"/>
<path d="M62.1863 20.9695C62.1863 21.9339 61.8901 22.7064 61.3067 23.2824C60.6359 23.9653 59.7622 24.309 58.6916 24.309C57.6684 24.309 56.7947 23.9596 56.078 23.2709C55.3598 22.5721 55.0014 21.7145 55.0014 20.688C55.0014 19.6614 55.3598 18.8038 56.078 18.1108C56.7947 17.4164 57.6684 17.067 58.6916 17.067C59.201 17.067 59.6867 17.1695 60.1502 17.36C60.6122 17.5521 60.9883 17.8119 61.2608 18.1325L60.6418 18.7417C60.1665 18.1945 59.5194 17.9246 58.6916 17.9246C57.9453 17.9246 57.2982 18.1787 56.7488 18.6912C56.2053 19.2052 55.9328 19.8708 55.9328 20.688C55.9328 21.5051 56.2053 22.1765 56.7488 22.6905C57.2982 23.1972 57.9453 23.4571 58.6916 23.4571C59.4838 23.4571 60.1502 23.1972 60.6759 22.6847C61.0224 22.3454 61.2193 21.8776 61.2711 21.2799H58.6916V20.4454H62.133C62.1744 20.6259 62.1863 20.8006 62.1863 20.9695Z" fill="white"/>
<path d="M67.646 18.0762H64.4134V20.2707H67.3276V21.1052H64.4134V23.2997H67.646V24.1501H63.4983V17.2258H67.646V18.0762Z" fill="white"/>
<path d="M71.499 24.1501H70.5839V18.0762H68.6011V17.2258H73.4833V18.0762H71.499V24.1501Z" fill="white"/>
<path d="M77.0165 24.1501V17.2258H77.9301V24.1501H77.0165Z" fill="white"/>
<path d="M81.9801 24.1501H81.0723V18.0762H79.0822V17.2258H83.9703V18.0762H81.9801V24.1501Z" fill="white"/>
<path d="M93.2135 23.2593C92.513 23.9596 91.6453 24.309 90.6102 24.309C89.5692 24.309 88.7015 23.9596 88.001 23.2593C87.3021 22.5605 86.9541 21.7029 86.9541 20.688C86.9541 19.673 87.3021 18.8154 88.001 18.1166C88.7015 17.4164 89.5692 17.067 90.6102 17.067C91.6394 17.067 92.5071 17.4164 93.2075 18.1224C93.9124 18.8269 94.2604 19.6788 94.2604 20.688C94.2604 21.7029 93.9124 22.5605 93.2135 23.2593ZM88.6778 22.6789C89.2049 23.1972 89.8461 23.4571 90.6102 23.4571C91.3684 23.4571 92.0155 23.1972 92.5367 22.6789C93.0624 22.1606 93.3289 21.495 93.3289 20.688C93.3289 19.8809 93.0624 19.2153 92.5367 18.697C92.0155 18.1787 91.3684 17.9188 90.6102 17.9188C89.8461 17.9188 89.2049 18.1787 88.6778 18.697C88.1521 19.2153 87.8855 19.8809 87.8855 20.688C87.8855 21.495 88.1521 22.1606 88.6778 22.6789Z" fill="white"/>
<path d="M95.5442 24.1501V17.2258H96.6548L100.108 22.6111H100.148L100.108 21.2799V17.2258H101.022V24.1501H100.068L96.452 18.4992H96.412L96.452 19.8361V24.1501H95.5442Z" fill="white"/>
<path d="M86.729 34.2624C83.9466 34.2624 81.6736 36.327 81.6736 39.1756C81.6736 42.001 83.9466 44.0873 86.729 44.0873C89.5174 44.0873 91.7904 42.001 91.7904 39.1756C91.7904 36.327 89.5174 34.2624 86.729 34.2624ZM86.729 42.1526C85.2023 42.1526 83.8889 40.924 83.8889 39.1756C83.8889 37.404 85.2023 36.1971 86.729 36.1971C88.2557 36.1971 89.5751 37.404 89.5751 39.1756C89.5751 40.924 88.2557 42.1526 86.729 42.1526ZM75.6986 34.2624C72.9102 34.2624 70.6431 36.327 70.6431 39.1756C70.6431 42.001 72.9102 44.0873 75.6986 44.0873C78.4854 44.0873 80.754 42.001 80.754 39.1756C80.754 36.327 78.4854 34.2624 75.6986 34.2624ZM75.6986 42.1526C74.1704 42.1526 72.8525 40.924 72.8525 39.1756C72.8525 37.404 74.1704 36.1971 75.6986 36.1971C77.2253 36.1971 78.5387 37.404 78.5387 39.1756C78.5387 40.924 77.2253 42.1526 75.6986 42.1526ZM62.5728 35.7682V37.856H67.686C67.5364 39.0225 67.1366 39.8801 66.5235 40.4779C65.7772 41.1997 64.6148 42.001 62.5728 42.001C59.4261 42.001 56.962 39.525 56.962 36.4569C56.962 33.3889 59.4261 30.9128 62.5728 30.9128C64.2742 30.9128 65.5121 31.5611 66.4258 32.4014L67.9347 30.9301C66.6568 29.7405 64.9569 28.8266 62.5728 28.8266C58.2577 28.8266 54.6312 32.2498 54.6312 36.4569C54.6312 40.6641 58.2577 44.0873 62.5728 44.0873C64.905 44.0873 66.6568 43.3423 68.034 41.9447C69.4452 40.5688 69.8849 38.6341 69.8849 37.072C69.8849 36.5869 69.8435 36.1407 69.7694 35.7682H62.5728ZM116.246 37.3867C115.83 36.288 114.546 34.2624 111.931 34.2624C109.339 34.2624 107.182 36.2534 107.182 39.1756C107.182 41.9274 109.317 44.0873 112.18 44.0873C114.494 44.0873 115.83 42.7114 116.379 41.9101L114.661 40.794C114.088 41.6112 113.308 42.1526 112.18 42.1526C111.059 42.1526 110.254 41.6516 109.739 40.6641L116.478 37.9455L116.246 37.3867ZM109.375 39.0225C109.317 37.1283 110.884 36.1581 112.006 36.1581C112.886 36.1581 113.632 36.5869 113.881 37.2005L109.375 39.0225ZM103.897 43.7884H106.113V29.3506H103.897V43.7884ZM100.269 35.3568H100.195C99.6979 34.7821 98.7487 34.2624 97.5463 34.2624C95.023 34.2624 92.7159 36.4223 92.7159 39.1914C92.7159 41.9447 95.023 44.0873 97.5463 44.0873C98.7487 44.0873 99.6979 43.5632 100.195 42.9713H100.269V43.6758C100.269 45.5542 99.2403 46.5634 97.5803 46.5634C96.2269 46.5634 95.3873 45.6105 95.0408 44.8092L93.1142 45.5932C93.6695 46.8955 95.14 48.498 97.5803 48.498C100.178 48.498 102.369 47.0081 102.369 43.3827V34.5612H100.269V35.3568ZM97.7358 42.1526C96.2091 42.1526 94.9312 40.9067 94.9312 39.1914C94.9312 37.4604 96.2091 36.1971 97.7358 36.1971C99.2403 36.1971 100.426 37.4604 100.426 39.1914C100.426 40.9067 99.2403 42.1526 97.7358 42.1526ZM126.617 29.3506H121.319V43.7884H123.528V38.318H126.617C129.071 38.318 131.477 36.5869 131.477 33.8336C131.477 31.0817 129.065 29.3506 126.617 29.3506ZM126.675 36.3097H123.528V31.3589H126.675C128.325 31.3589 129.266 32.6944 129.266 33.8336C129.266 34.9511 128.325 36.3097 126.675 36.3097ZM140.332 34.235C138.736 34.235 137.076 34.9222 136.394 36.4454L138.354 37.2467C138.776 36.4454 139.552 36.1855 140.372 36.1855C141.519 36.1855 142.681 36.8569 142.699 38.0422V38.1938C142.299 37.9686 141.443 37.6351 140.39 37.6351C138.279 37.6351 136.127 38.7684 136.127 40.8836C136.127 42.8182 137.857 44.0642 139.801 44.0642C141.288 44.0642 142.108 43.4102 142.623 42.6493H142.699V43.7653H144.833V38.227C144.833 35.6672 142.872 34.235 140.332 34.235ZM140.066 42.1469C139.343 42.1469 138.336 41.7975 138.336 40.924C138.336 39.8065 139.592 39.3777 140.679 39.3777C141.652 39.3777 142.108 39.587 142.699 39.8628C142.526 41.1997 141.345 42.1469 140.066 42.1469ZM152.607 34.5511L150.067 40.8099H149.992L147.366 34.5511H144.984L148.929 43.2976L146.678 48.1645H148.986L155.065 34.5511H152.607ZM132.692 43.7884H134.907V29.3506H132.692V43.7884Z" fill="white"/>
</svg>
