<svg width="24" height="23" viewBox="0 0 24 23" fill="none" xmlns="http://www.w3.org/2000/svg">
<path d="M9.28607 20.44H14.8181C19.4281 20.44 21.2721 18.596 21.2721 13.986V8.45398C21.2721 3.84395 19.4281 1.99994 14.8181 1.99994H9.28607C4.67604 1.99994 2.83203 3.84395 2.83203 8.45398V13.986C2.83203 18.596 4.67604 20.44 9.28607 20.44Z" stroke="#006633" stroke-width="1.38301" stroke-linecap="round" stroke-linejoin="round"/>
<path d="M9.28615 9.37601C10.3046 9.37601 11.1302 8.55042 11.1302 7.532C11.1302 6.51358 10.3046 5.68799 9.28615 5.68799C8.26773 5.68799 7.44214 6.51358 7.44214 7.532C7.44214 8.55042 8.26773 9.37601 9.28615 9.37601Z" stroke="#006633" stroke-width="1.38301" stroke-linecap="round" stroke-linejoin="round"/>
<path d="M3.44971 17.628L7.99519 14.5762C8.72358 14.0875 9.77466 14.1428 10.4293 14.7053L10.7336 14.9726C11.4527 15.5904 12.6144 15.5904 13.3336 14.9726L17.1691 11.6811C17.8883 11.0633 19.05 11.0633 19.7692 11.6811L21.2721 12.9719" stroke="#006633" stroke-width="1.38301" stroke-linecap="round" stroke-linejoin="round"/>
</svg>
