<svg width="38" height="38" viewBox="0 0 38 38" fill="none" xmlns="http://www.w3.org/2000/svg">
<path d="M7.13195 0.116905C5.44817 0.421234 3.83115 1.28968 2.56276 2.55896C1.27211 3.85792 0.41909 5.46121 0.122389 7.19068C-0.0407964 8.13336 -0.0407964 29.8817 0.122389 30.8244C0.248487 31.5369 0.582276 32.5538 0.923482 33.2219C1.72458 34.8178 3.20808 36.2949 4.81769 37.1114C5.49268 37.4528 6.70174 37.8388 7.39157 37.9353C7.81437 37.9946 11.2635 38.0095 19.3709 37.9946C30.7271 37.965 30.7568 37.965 31.3131 37.8091C33.0785 37.3118 34.2579 36.6363 35.4372 35.4561C36.7279 34.1571 37.5809 32.5538 37.8776 30.8244C38.0408 29.8817 38.0408 8.13336 37.8776 7.19068C37.5809 5.46121 36.7279 3.85792 35.4372 2.55896C34.1392 1.26741 32.537 0.413811 30.8087 0.116905C29.9112 -0.0389709 7.9998 -0.0389709 7.13195 0.116905ZM19.8827 9.75149C20.0459 9.86283 20.2758 10.0929 20.3871 10.2637L20.5948 10.5754L20.6319 13.8117C20.6615 16.4096 20.6912 17.0776 20.7728 17.1741C20.8618 17.2855 21.1808 17.3003 24.0068 17.3003H27.1444L27.5376 17.5082C28.1161 17.8125 28.3683 18.2059 28.4054 18.8517C28.4499 19.5791 28.1532 20.0838 27.4931 20.4401C27.2038 20.596 27.1148 20.6034 24.0068 20.6257C21.1362 20.6405 20.8099 20.6554 20.7283 20.7667C20.6541 20.8632 20.6319 21.6351 20.6319 24.0104C20.6319 27.551 20.6393 27.499 20.0385 28.0038C19.4154 28.5382 18.5846 28.5382 17.9615 28.0038C17.3607 27.499 17.3681 27.551 17.3681 24.0104C17.3681 21.6351 17.3459 20.8632 17.2791 20.7667C17.1901 20.6554 16.8638 20.6405 13.9932 20.6257C10.8704 20.6034 10.7962 20.6034 10.4995 20.4401C9.84677 20.0912 9.54265 19.5271 9.59457 18.7774C9.63908 18.191 9.91353 17.7828 10.4624 17.5007L10.8704 17.3003H14.0006H17.1382L17.2495 17.137C17.3533 16.996 17.3681 16.5581 17.3681 13.8636C17.3681 10.5309 17.3681 10.5234 17.7687 10.0558C18.0951 9.66242 18.5104 9.4917 19.0816 9.52139C19.4673 9.54366 19.6379 9.58819 19.8827 9.75149Z" fill="#FEFEFE"/>
</svg>
