<svg width="29" height="28" viewBox="0 0 29 28" fill="none" xmlns="http://www.w3.org/2000/svg">
<path d="M14.5 7.29167C14.5 4.95833 16.25 2.625 18.5833 2.625C18.5833 4.95833 16.8333 7.29167 14.5 7.29167Z" fill="white"/>
<path d="M15.0827 8.85501C14.482 8.85501 14.0172 8.6642 13.4976 8.45096C12.8399 8.18096 12.0946 7.875 10.8749 7.875C8.69209 7.875 5.16602 9.62436 5.16602 14.2911C5.16602 19.7185 8.78818 25.375 11.1215 25.375C11.9027 25.375 12.6064 25.0683 13.279 24.7752C13.8944 24.5069 14.4839 24.25 15.0827 24.25C15.6814 24.25 16.2709 24.5069 16.8863 24.7752C17.5589 25.0683 18.2627 25.375 19.0439 25.375C20.6686 25.375 22.6162 22.6324 23.8327 19.1343C21.9419 18.3402 20.727 16.471 20.727 14.2917C20.727 12.3912 21.7369 11.1298 23.2493 10.2083C22.0827 8.45833 20.3483 7.875 19.1015 7.875C17.8819 7.875 17.1365 8.18096 16.4787 8.45096C15.9593 8.6642 15.6834 8.85501 15.0827 8.85501Z" fill="white"/>
</svg>
