<svg width="128" height="83" viewBox="0 0 128 83" fill="none" xmlns="http://www.w3.org/2000/svg">
<path d="M127.357 45.4706C126.723 42.5983 123.817 40.6612 120.11 40.6612C117.471 40.6612 115.701 41.3626 114.031 43.0325C109.689 47.3743 112.762 53.3527 119.375 53.3527C124.184 53.3527 128.192 49.3782 127.357 45.4706Z" fill="url(#paint0_linear_304_4723)"/>
<path d="M124.42 27.2015C124.052 26.6671 123.218 25.8322 122.516 25.3646C121.414 24.563 120.946 24.4628 118.542 24.4628C116.438 24.4628 115.536 24.6298 114.5 25.1976C108.389 28.4707 108.589 35.9186 114.834 37.3213C118.041 38.0227 121.715 36.4863 123.852 33.5473C125.121 31.7437 125.422 28.6711 124.42 27.2015Z" fill="url(#paint1_linear_304_4723)"/>
<path d="M123.919 60.8673C123.151 59.2308 120.913 57.4606 118.775 56.8261C115.068 55.7573 110.96 57.2937 109.424 60.3663C108.455 62.2367 108.455 63.5058 109.424 65.2091C112.229 70.1521 120.111 70.6197 123.384 66.0107C124.286 64.7416 124.553 62.2701 123.919 60.8673Z" fill="url(#paint2_linear_304_4723)"/>
<path d="M120.312 4.62406C119.944 3.7891 119.176 2.68694 118.575 2.15256C116.604 0.382436 115.736 0.0818488 112.496 0.0818487C109.858 0.0818486 109.257 0.182044 107.487 1.05041C103.779 2.88733 101.441 5.69282 100.473 9.53366C99.137 14.7772 102.878 19.5532 108.388 19.62C116.371 19.6868 123.251 11.0366 120.312 4.62406Z" fill="url(#paint3_linear_304_4723)"/>
<path d="M113.497 76.2975C112.329 72.9577 108.154 71.1541 104.847 72.5235C102.142 73.659 101.441 76.7651 103.344 79.3702C106.985 84.4134 115.435 81.8417 113.497 76.2975Z" fill="url(#paint4_linear_304_4723)"/>
<path d="M102.843 37.9893C100.673 26.8342 94.427 18.5847 86.7787 16.7478C84.0066 16.1132 82.0361 16.1466 79.7316 16.9482C76.5921 18.0169 75.9575 18.4177 72.0833 21.5238C67.5077 25.231 65.27 26.7006 61.7965 28.3037C55.5176 31.2428 51.2092 32.1445 43.8615 32.1111C35.946 32.1111 32.172 31.1092 24.6573 26.9678C19.8813 24.3627 17.6435 23.6279 14.5709 23.6279C11.6318 23.6279 9.0267 24.5631 7.08958 26.3332C6.38821 27.0012 5.75364 27.4687 5.68684 27.4019C5.62004 27.3351 4.88527 28.3037 4.05031 29.5395C-0.89269 36.9205 -0.692299 46.9067 4.48449 54.054C11.4314 63.6061 26.561 72.0225 42.6925 75.329C51.1758 77.0991 52.6119 77.1993 66.9065 77.2327C80.099 77.2327 80.4998 77.1993 83.4388 76.4311C87.5803 75.3624 89.2502 74.661 91.9221 72.8909C96.9653 69.5844 100.472 63.7396 102.376 55.557C103.244 51.7829 103.511 41.4628 102.843 37.9893Z" fill="url(#paint5_linear_304_4723)"/>
<defs>
<linearGradient id="paint0_linear_304_4723" x1="119.741" y1="40.6612" x2="119.741" y2="53.3527" gradientUnits="userSpaceOnUse">
<stop stop-color="#74B243"/>
<stop offset="1" stop-color="#96B032"/>
</linearGradient>
<linearGradient id="paint1_linear_304_4723" x1="117.525" y1="24.4628" x2="117.525" y2="37.4895" gradientUnits="userSpaceOnUse">
<stop stop-color="#74B243"/>
<stop offset="1" stop-color="#96B032"/>
</linearGradient>
<linearGradient id="paint2_linear_304_4723" x1="116.482" y1="56.4874" x2="116.482" y2="69.2077" gradientUnits="userSpaceOnUse">
<stop stop-color="#74B243"/>
<stop offset="1" stop-color="#96B032"/>
</linearGradient>
<linearGradient id="paint3_linear_304_4723" x1="110.603" y1="0.0818486" x2="110.603" y2="19.6204" gradientUnits="userSpaceOnUse">
<stop stop-color="#74B243"/>
<stop offset="1" stop-color="#96B032"/>
</linearGradient>
<linearGradient id="paint4_linear_304_4723" x1="108.026" y1="72.0623" x2="108.026" y2="82.0761" gradientUnits="userSpaceOnUse">
<stop stop-color="#74B243"/>
<stop offset="1" stop-color="#96B032"/>
</linearGradient>
<linearGradient id="paint5_linear_304_4723" x1="51.8435" y1="16.3058" x2="51.8435" y2="77.2327" gradientUnits="userSpaceOnUse">
<stop stop-color="#74B243"/>
<stop offset="1" stop-color="#96B032"/>
</linearGradient>
</defs>
</svg>
