<svg width="32" height="32" viewBox="0 0 32 32" fill="none" xmlns="http://www.w3.org/2000/svg">
<path d="M8.54258 3.66205C7.48633 3.88705 6.28633 4.5683 5.58008 5.3308C3.78008 7.28705 3.33633 10.1558 4.46758 12.5433C5.37383 14.4558 7.07383 15.7058 9.09883 15.9433C11.5988 16.237 14.0113 14.7683 15.0613 12.2995C15.6426 10.9308 15.7238 9.22455 15.2676 7.7808C14.5863 5.61205 12.7988 4.0058 10.6613 3.6308C10.1426 3.53705 9.04883 3.5558 8.54258 3.66205Z" fill="url(#paint0_linear_3217_21423)"/>
<path d="M21.9985 4.53141C20.0985 4.95641 18.6235 6.41266 18.111 8.37516C17.9172 9.11891 17.9235 10.4314 18.1172 11.1564C18.3922 12.1877 18.8985 13.0314 19.6735 13.7564C20.2672 14.3127 20.6985 14.5814 21.386 14.8189C23.1422 15.4189 25.0047 15.0127 26.3547 13.7314C27.4422 12.7002 28.0047 11.3502 28.011 9.78141C28.011 7.33766 26.586 5.33766 24.3422 4.62516C23.7735 4.44391 22.5922 4.40016 21.9985 4.53141Z" fill="url(#paint1_linear_3217_21423)"/>
<path d="M21.25 16.1875C20.3563 16.3438 19.6562 16.575 18.8438 16.9812C18.0188 17.3875 16.875 18.1937 16.875 18.3625C16.875 18.3938 17.0312 18.5437 17.225 18.6937C17.9125 19.2188 18.9938 20.475 19.5563 21.3937C20.4938 22.925 21.0188 24.5125 21.2188 26.3875L21.2562 26.75H26.6313H32V25.3562C32 24.4562 31.9688 23.7812 31.9062 23.4375C31.3313 19.9625 28.7438 17.1625 25.3438 16.325C24.1813 16.0312 22.4437 15.975 21.25 16.1875Z" fill="url(#paint2_linear_3217_21423)"/>
<path d="M8.0625 17.9625C4.2125 18.5687 1.18125 21.3125 0.25625 25.0312C0.05625 25.8438 0 26.375 0 27.4312V28.4375H9.71875H19.4375V27.5687C19.4375 24.6562 18.4563 22.3187 16.4312 20.4125C15.1562 19.2188 13.6188 18.4187 11.875 18.05C11.1062 17.8875 8.86875 17.8375 8.0625 17.9625Z" fill="url(#paint3_linear_3217_21423)"/>
<defs>
<linearGradient id="paint0_linear_3217_21423" x1="3.84766" y1="9.77536" x2="15.561" y2="9.77536" gradientUnits="userSpaceOnUse">
<stop stop-color="#307040"/>
<stop offset="0.455" stop-color="#74B243"/>
<stop offset="0.8" stop-color="#96B032"/>
</linearGradient>
<linearGradient id="paint1_linear_3217_21423" x1="17.9688" y1="9.77315" x2="28.011" y2="9.77315" gradientUnits="userSpaceOnUse">
<stop stop-color="#307040"/>
<stop offset="0.455" stop-color="#74B243"/>
<stop offset="0.8" stop-color="#96B032"/>
</linearGradient>
<linearGradient id="paint2_linear_3217_21423" x1="16.875" y1="21.4047" x2="32" y2="21.4047" gradientUnits="userSpaceOnUse">
<stop stop-color="#307040"/>
<stop offset="0.455" stop-color="#74B243"/>
<stop offset="0.8" stop-color="#96B032"/>
</linearGradient>
<linearGradient id="paint3_linear_3217_21423" x1="0" y1="23.1649" x2="19.4375" y2="23.1649" gradientUnits="userSpaceOnUse">
<stop stop-color="#307040"/>
<stop offset="0.455" stop-color="#74B243"/>
<stop offset="0.8" stop-color="#96B032"/>
</linearGradient>
</defs>
</svg>
