<svg width="29" height="28" viewBox="0 0 29 28" fill="none" xmlns="http://www.w3.org/2000/svg">
<path d="M25.9384 11.7138H24.9987V11.6654H14.4987V16.332H21.0921C20.1302 19.0486 17.5454 20.9987 14.4987 20.9987C10.6329 20.9987 7.4987 17.8644 7.4987 13.9987C7.4987 10.1329 10.6329 6.9987 14.4987 6.9987C16.2831 6.9987 17.9065 7.67186 19.1426 8.77145L22.4425 5.47153C20.3589 3.52961 17.5717 2.33203 14.4987 2.33203C8.05578 2.33203 2.83203 7.55578 2.83203 13.9987C2.83203 20.4416 8.05578 25.6654 14.4987 25.6654C20.9416 25.6654 26.1654 20.4416 26.1654 13.9987C26.1654 13.2164 26.0849 12.4529 25.9384 11.7138Z" fill="#FFC107"/>
<path d="M4.17969 8.56845L8.01277 11.3795C9.04994 8.8117 11.5618 6.9987 14.5012 6.9987C16.2856 6.9987 17.909 7.67186 19.1451 8.77145L22.445 5.47153C20.3614 3.52961 17.5742 2.33203 14.5012 2.33203C10.02 2.33203 6.13385 4.86195 4.17969 8.56845Z" fill="#FF3D00"/>
<path d="M14.4995 25.6671C17.513 25.6671 20.2512 24.5138 22.3214 22.6384L18.7106 19.5829C17.5001 20.504 16.0206 21.002 14.4995 21.0004C11.465 21.0004 8.88845 19.0655 7.91778 16.3652L4.11328 19.2965C6.04411 23.0747 9.96528 25.6671 14.4995 25.6671Z" fill="#4CAF50"/>
<path d="M25.9398 11.7164H25V11.668H14.5V16.3346H21.0934C20.6333 17.6275 19.8045 18.7573 18.7093 19.5844L18.7111 19.5832L22.3219 22.6387C22.0664 22.8709 26.1667 19.8346 26.1667 14.0013C26.1667 13.2191 26.0862 12.4555 25.9398 11.7164Z" fill="#1976D2"/>
</svg>
