<svg width="38" height="38" viewBox="0 0 38 38" fill="none" xmlns="http://www.w3.org/2000/svg">
<path d="M9.57422 0.109554C8.10469 0.361916 6.59805 0.918598 5.44023 1.63858C2.59766 3.41996 0.705078 6.21822 0.141016 9.4841C0.00742187 10.2709 0 10.7162 0 15.8303C0 21.5604 0.0148437 21.8276 0.333984 23.082C1.13555 26.2811 3.36953 29.0348 6.3457 30.5045C7.58516 31.1205 8.60195 31.4026 10.5242 31.6624L10.7617 31.6995V34.4903C10.7617 37.1921 10.7691 37.2886 10.9176 37.5335C10.9992 37.6671 11.1699 37.8304 11.2812 37.8898C11.5336 38.0234 12.1199 38.0382 12.3426 37.9195C12.4316 37.8675 13.0254 37.3257 13.6562 36.7096C14.2945 36.0936 15.1332 35.3513 15.5191 35.0544C17.7531 33.3769 20.2988 32.3007 23.0598 31.8702C23.4605 31.8108 24.7223 31.7292 25.8652 31.692C28.0324 31.6252 28.7152 31.5436 29.8508 31.217C33.6508 30.1111 36.6937 26.9417 37.666 23.082C37.9852 21.8276 38 21.5604 38 15.8303C38 10.7162 37.9926 10.2709 37.859 9.4841C37.0203 4.61497 33.2723 0.911179 28.3516 0.102131C27.4684 -0.0388947 10.4277 -0.0314751 9.57422 0.109554ZM11.8008 13.5887C13.0922 14.1973 13.6191 15.7561 12.9437 17.003C12.1496 18.4504 10.1977 18.7399 9.03984 17.5746C8.50547 17.0476 8.34961 16.6393 8.34961 15.808C8.34961 15.192 8.3793 15.0584 8.55 14.7318C9.18828 13.5293 10.6059 13.032 11.8008 13.5887ZM20.0391 13.5887C21.9316 14.4794 21.9391 17.1218 20.0539 18.0496C19.6309 18.2574 19.4898 18.2945 19 18.2945C18.5102 18.2945 18.3691 18.2574 17.9461 18.0496C16.7066 17.441 16.1871 16.0158 16.766 14.8208C17.1 14.138 17.4266 13.8114 18.0797 13.5368C18.6734 13.2918 19.4453 13.3141 20.0391 13.5887ZM28.1066 13.5145C28.6187 13.7149 29.1828 14.2122 29.45 14.7318C29.6207 15.0584 29.6504 15.192 29.6504 15.808C29.6504 16.4092 29.6207 16.5651 29.4723 16.8843C28.8785 18.0793 27.4238 18.636 26.266 18.0941C25.457 17.723 24.9227 17.0401 24.7891 16.2163C24.4848 14.3681 26.3402 12.8613 28.1066 13.5145Z" fill="#FEFEFE"/>
</svg>
