<svg width="53" height="53" viewBox="0 0 53 53" fill="none" xmlns="http://www.w3.org/2000/svg">
<path fill-rule="evenodd" clip-rule="evenodd" d="M23.2252 13.827C21.6906 -7.34608 48.0673 -0.134211 36.1179 17.2556C53.626 5.42446 60.6012 31.8012 39.5463 30.1482C58.7074 39.3718 39.3057 58.5371 30.2003 39.4941C31.7351 60.6674 5.47652 53.5739 17.3077 36.0658C-0.200452 48.1336 -7.17561 21.7566 13.8792 23.173C-5.28193 14.186 14.1198 -5.21574 23.2252 13.827ZM24.5248 24.591C25.7079 23.4079 27.7187 23.2894 28.9014 24.4721C30.0841 25.6547 30.0839 27.7839 28.9008 28.967C27.7178 30.15 25.7068 30.032 24.5241 28.8494C23.3414 27.6667 23.3418 25.774 24.5248 24.591Z" fill="#74B243"/>
</svg>
