<svg width="903" height="35" viewBox="0 0 903 35" fill="none" xmlns="http://www.w3.org/2000/svg">
<path d="M902.056 34.5989C850.206 31.819 798.362 28.916 746.54 26.3023C714.852 24.7132 683.147 23.4525 651.476 22.2485C622.366 21.1407 593.251 20.115 564.16 19.365C516.98 18.1531 469.731 16.8139 422.709 16.1868C296.764 14.4849 170.951 13.1331 45.0716 11.6131C35.9453 11.5081 26.341 11.8715 17.798 10.741C11.3908 9.88973 3.64555 7.25117 1.31571 4.95785C-2.30416 1.38765 4.93328 0.128766 14.2817 0.314315C67.4345 1.32501 120.592 2.23994 173.781 3.28002C272.96 5.20751 372.107 7.02347 471.345 9.24237C515.216 10.2221 559.285 11.7476 603.256 13.6796C618.126 14.3396 632.995 15.027 647.904 15.6617C660.705 16.2107 673.903 18.4966 686.213 18.3468C704.564 18.123 722.143 21.7554 739.51 21.5886C762.842 21.371 785.04 24.7158 807.805 25.9226C831.738 27.1783 855.705 28.4907 879.621 30.0474C887.405 30.5608 895.068 31.9049 902.79 32.8816C902.571 33.4463 902.351 34.0246 902.131 34.603L902.056 34.5989Z" fill="url(#paint0_linear_53_11878)"/>
<defs>
<linearGradient id="paint0_linear_53_11878" x1="0.77827" y1="-4.4836" x2="902.202" y2="43.8451" gradientUnits="userSpaceOnUse">
<stop stop-color="#74B243"/>
<stop offset="1" stop-color="#96B032"/>
</linearGradient>
</defs>
</svg>
