<svg width="18" height="18" viewBox="0 0 18 18" fill="none" xmlns="http://www.w3.org/2000/svg">
<g id="checkbox 1 (traced)" clip-path="url(#clip0_1979_29215)">
<g id="Black">
<path id="Vector" d="M3.16494 0.791058C2.57432 0.907072 2.01533 1.21996 1.57588 1.68051C1.15049 2.12699 0.879785 2.65434 0.777832 3.24848C0.725098 3.54028 0.725098 14.4598 0.777832 14.7516C0.79541 14.8641 0.85166 15.0786 0.900879 15.2227C1.15752 16.0102 1.86768 16.752 2.65166 17.0543C3.21416 17.2723 2.93291 17.2618 8.99736 17.2618C12.7169 17.2618 14.6118 17.2512 14.7524 17.2231C14.8649 17.2055 15.0794 17.1493 15.2235 17.1C16.011 16.8434 16.7528 16.1332 17.0552 15.3493C17.2731 14.7868 17.2626 15.068 17.2626 9.00356C17.2626 5.28403 17.2521 3.3891 17.2239 3.24848C17.1149 2.61567 16.8442 2.1059 16.3696 1.63129C15.895 1.15668 15.3853 0.885979 14.7524 0.776995C14.4185 0.717228 3.46377 0.731291 3.16494 0.791058ZM12.6114 5.73403C12.8294 5.80082 13.079 6.15942 13.079 6.41254C13.079 6.68676 13.0966 6.66918 10.6392 9.13715C9.02549 10.7543 8.23447 11.5243 8.13955 11.57C7.95674 11.6543 7.72471 11.6543 7.53838 11.5664C7.36963 11.4821 5.12314 9.18637 5.01768 8.98598C4.8665 8.70121 4.91221 8.41293 5.14775 8.16684C5.33057 7.96996 5.55908 7.89965 5.82275 7.95238C5.98799 7.98403 6.03369 8.0227 6.90908 8.91567C7.41182 9.42543 7.84072 9.84379 7.8583 9.84379C7.87588 9.84379 8.81807 8.91918 9.9501 7.79067C11.8837 5.86059 12.0173 5.73403 12.1649 5.70238C12.3267 5.66723 12.411 5.67426 12.6114 5.73403Z" fill="#97B00F"/>
</g>
</g>
<defs>
<clipPath id="clip0_1979_29215">
<rect width="18" height="18" fill="white"/>
</clipPath>
</defs>
</svg>
