<svg width="18" height="18" viewBox="0 0 18 18" fill="none" xmlns="http://www.w3.org/2000/svg">
<g id="chat (2) 1 (traced)" clip-path="url(#clip0_1979_29235)">
<g id="Black">
<path id="Vector" d="M8.29687 0.460558C6.39141 0.590635 4.64766 1.24454 3.11133 2.40118C2.74922 2.6754 1.8668 3.55782 1.59258 3.91993C0.794531 4.97814 0.319922 6.05743 0.084375 7.33009C0.00703125 7.74142 -0.0210937 8.95079 0.0316406 9.37267C0.182812 10.5539 0.590625 11.6859 1.19531 12.6176L1.41328 12.9516L1.37109 13.2996C1.17773 14.9801 0.755859 16.2352 0.151172 16.9277C0.0246094 17.0719 0 17.1281 0 17.2477C0 17.3988 0.084375 17.5113 0.232031 17.557C0.411328 17.6098 2.15508 17.216 3.11484 16.9067C3.79687 16.6852 4.58789 16.3652 5.00977 16.1402L5.32969 15.9715L5.60742 16.0734C6.62344 16.4496 7.86094 16.6641 9 16.6641C13.609 16.6641 17.5008 13.5106 17.9684 9.39376C18.0211 8.91212 17.993 7.74845 17.9156 7.33009C17.6801 6.05392 17.209 4.98165 16.4074 3.91993C16.1332 3.55782 15.2508 2.6754 14.8887 2.40118C13.3242 1.22345 11.6227 0.594151 9.6293 0.457041C9.0668 0.418369 8.88398 0.418369 8.29687 0.460558ZM5.21367 7.45314C5.66016 7.62189 5.97656 8.08243 5.97656 8.57111C5.97656 9.24962 5.26992 9.84025 4.6125 9.70665C4.3418 9.65392 4.13437 9.5379 3.95156 9.34454C3.74766 9.12657 3.64922 8.90157 3.63164 8.61329C3.59648 8.11407 3.93047 7.61485 4.42266 7.43556C4.62305 7.36173 4.99219 7.37228 5.21367 7.45314ZM9.50976 7.49532C10.2234 7.86446 10.3887 8.79259 9.84023 9.35509C9.59766 9.6047 9.3375 9.7172 9 9.7172C8.78906 9.7172 8.69414 9.6961 8.53242 9.62228C7.93476 9.34806 7.66406 8.65196 7.93828 8.0754C8.08945 7.75548 8.34961 7.52345 8.68359 7.41446C8.73281 7.39689 8.89805 7.38985 9.05273 7.39689C9.2707 7.40392 9.37265 7.42501 9.50976 7.49532ZM13.6793 7.48126C13.9395 7.60782 14.1187 7.78712 14.2453 8.04376C14.3473 8.25118 14.3613 8.31095 14.3613 8.56056C14.3578 8.90157 14.284 9.09493 14.0484 9.34454C13.5703 9.85431 12.832 9.85079 12.3434 9.33399C12.0621 9.03868 11.9566 8.62032 12.0656 8.24767C12.1676 7.8961 12.4488 7.58321 12.7758 7.45314C13.0219 7.3547 13.4508 7.36876 13.6793 7.48126Z" fill="#97B00F"/>
</g>
</g>
<defs>
<clipPath id="clip0_1979_29235">
<rect width="18" height="18" fill="white"/>
</clipPath>
</defs>
</svg>
