<svg width="18" height="18" viewBox="0 0 18 18" fill="none" xmlns="http://www.w3.org/2000/svg">
<g id="dislike (1) 1 (traced)" clip-path="url(#clip0_1979_29229)">
<g id="Black">
<path id="Vector" d="M0.186328 0.457031C0.126562 0.492188 0.05625 0.55547 0.0386719 0.594141C0.0105469 0.64336 0 2.41875 0 6.41602C0 11.7738 0.00351562 12.1711 0.0597656 12.259C0.182812 12.4453 0.186328 12.4453 2.39062 12.4453H4.42969V6.41602V0.386719H2.36602C0.379687 0.386719 0.295312 0.390235 0.186328 0.457031Z" fill="#97B00F"/>
<path id="Vector_2" d="M7.34063 0.414843C7.30898 0.428905 6.82383 0.84375 6.26133 1.33594L5.2418 2.23242L5.23828 6.71484V11.1973L5.70586 11.5488C8.64844 13.7707 10.8352 15.7184 11.7457 16.9348C12.1676 17.4973 12.3117 17.5922 12.7441 17.5957C13.0852 17.5957 13.2645 17.5219 13.5562 17.2512C14.3684 16.5129 14.7727 14.8324 14.3438 13.9922C14.3051 13.9148 14.1152 13.6195 13.9254 13.3348C13.5773 12.8145 12.7723 11.5242 12.7371 11.4398C12.723 11.4047 13.0816 11.3906 14.6145 11.3836C16.4602 11.373 16.5129 11.3695 16.7379 11.2922C17.202 11.1375 17.6098 10.7824 17.8207 10.357C17.9613 10.0723 17.9965 9.88945 18 9.49922C18 9.00352 17.8488 8.60977 17.5184 8.2582L17.3672 8.09648L17.4797 7.99453C17.6484 7.83633 17.8523 7.49883 17.9297 7.24922C18.0141 6.97852 18.0246 6.47227 17.9508 6.20156C17.8348 5.76211 17.4937 5.31562 17.1141 5.10117L16.9172 4.98867L17.0227 4.76016C17.3742 4.00781 17.1176 3.12187 16.4145 2.66836C16.3195 2.60859 16.2422 2.55586 16.2422 2.54883C16.2422 2.54531 16.2738 2.46445 16.316 2.37305C16.432 2.11289 16.4461 1.71914 16.3512 1.41328C16.207 0.935156 15.7781 0.520311 15.3246 0.42539C15.1277 0.383202 7.44258 0.372656 7.34063 0.414843Z" fill="#97B00F"/>
</g>
</g>
<defs>
<clipPath id="clip0_1979_29229">
<rect width="18" height="18" fill="white"/>
</clipPath>
</defs>
</svg>
