<svg width="18" height="18" viewBox="0 0 18 18" fill="none" xmlns="http://www.w3.org/2000/svg">
<g id="Black">
<path id="Vector" d="M7.4731 0.0667815C7.29783 0.16871 7.20223 0.330389 7.19824 0.520186C7.19824 0.660776 7.25401 0.783793 7.56074 1.32155C7.96706 2.04208 8.04673 2.11589 8.39728 2.1194C8.76376 2.12292 9.00277 1.91555 9.00277 1.58867C9.00277 1.43754 8.95497 1.32507 8.66816 0.81894C8.26184 0.0948997 8.16225 9.53674e-07 7.81569 9.53674e-07C7.66033 9.53674e-07 7.55277 0.0210896 7.4731 0.0667815Z" fill="#97B00F"/>
<path id="Vector_2" d="M12.3486 0.0246065C12.1893 0.0738132 12.0339 0.274154 11.7272 0.818942C11.4563 1.30046 11.3926 1.44457 11.3926 1.5711C11.3926 1.905 11.6356 2.12292 11.9941 2.1194C12.3446 2.11589 12.4084 2.05614 12.8147 1.35319C13.0139 1.00522 13.1891 0.660778 13.2051 0.590483C13.2409 0.414745 13.1135 0.165197 12.9382 0.0702984C12.8107 0.00351787 12.496 -0.0210855 12.3486 0.0246065Z" fill="#97B00F"/>
<path id="Vector_3" d="M5.11087 3.21952C4.9595 3.28631 4.83601 3.44447 4.80016 3.62372C4.76431 3.79595 4.88779 4.03846 5.06307 4.15094C5.19452 4.23178 5.21843 4.23529 5.99521 4.23529C6.75208 4.23529 6.79988 4.23178 6.93532 4.15445C7.30977 3.95059 7.3018 3.43744 6.92337 3.23358C6.80386 3.17032 6.72021 3.16329 6.01513 3.16329C5.38573 3.16329 5.21444 3.17383 5.11087 3.21952Z" fill="#97B00F"/>
<path id="Vector_4" d="M13.4719 3.23358C13.0935 3.43744 13.0855 3.95059 13.46 4.15445C13.5954 4.23178 13.6432 4.23529 14.4041 4.23529H15.2048L15.3522 4.13336C15.6191 3.95411 15.6788 3.71159 15.5274 3.44447C15.3721 3.18438 15.2844 3.16329 14.3802 3.16329C13.6751 3.16329 13.5915 3.17032 13.4719 3.23358Z" fill="#97B00F"/>
<path id="Vector_5" d="M8.74386 3.23709C8.60444 3.30739 8.47697 3.42338 8.43713 3.51476C8.41721 3.56397 8.38136 3.81703 8.36144 4.07712C8.26186 5.39516 7.77985 6.8573 7.18631 7.64812C6.83178 8.1191 6.21832 8.55141 5.31805 8.96615L4.78027 9.2157L4.78824 13.1874L4.80019 17.1626L5.07904 17.2469C6.28604 17.6125 7.39744 17.848 8.36543 17.9429C9.11433 18.0167 13.8945 18.0202 14.2052 17.9464C15.1175 17.732 15.7429 16.9376 15.5875 16.1925C15.5596 16.073 15.5278 15.9394 15.5158 15.8973C15.4919 15.8375 15.5079 15.8199 15.6114 15.7988C15.7827 15.7672 16.1651 15.5388 16.3484 15.3595C16.5436 15.1697 16.7188 14.8358 16.7746 14.5546C16.8184 14.3473 16.7905 14.0274 16.7109 13.7884C16.687 13.7287 16.7029 13.7111 16.8065 13.69C16.9778 13.6584 17.3602 13.4299 17.5355 13.2577C17.7227 13.0749 17.8701 12.8183 17.9497 12.5372C18.0692 12.1365 17.9577 11.6163 17.6828 11.2859L17.5633 11.1383L17.7028 10.9379C17.886 10.6743 17.9657 10.474 17.9936 10.1893C18.0573 9.53906 17.6271 8.92398 16.91 8.63577C16.5197 8.4776 16.4002 8.47057 13.8547 8.47057H11.4367L11.5522 8.19642C11.612 8.0488 11.6996 7.76762 11.7474 7.57431C11.9267 6.80809 12.0502 5.51114 11.9864 5.09992C11.855 4.2634 11.2575 3.6202 10.3253 3.3109C10.0903 3.23358 9.98273 3.22304 9.44097 3.20898C9.01474 3.20195 8.79963 3.20898 8.74386 3.23709Z" fill="#97B00F"/>
<path id="Vector_6" d="M0.330913 8.54441C0.211408 8.59713 0.139705 8.6604 0.0839359 8.76584C0.000282278 8.91346 0.000282278 8.95212 0.000282278 13.2542C0.000282278 18.094 -0.0196352 17.7425 0.275144 17.9148C0.410583 17.9956 0.422534 17.9956 1.80879 17.9956C3.1353 17.9956 3.21497 17.9921 3.33846 17.9253C3.41016 17.8866 3.50178 17.8058 3.5456 17.7425C3.62527 17.6301 3.62527 17.5563 3.62527 13.2577C3.62527 8.41788 3.64121 8.73772 3.37033 8.5655C3.25082 8.48818 3.22294 8.48818 1.87253 8.47763C0.546023 8.4706 0.494237 8.4706 0.330913 8.54441Z" fill="#97B00F"/>
</g>
</svg>
