<svg width="42" height="43" viewBox="0 0 42 43" fill="none" xmlns="http://www.w3.org/2000/svg">
<g id="Frame 1618873750">
<rect width="42" height="43" rx="21" fill="#97B00F"/>
<g id="Audio">
<path id="Shape" fill-rule="evenodd" clip-rule="evenodd" d="M16.9993 32H24.9993C25.5516 32 25.9993 32.4477 25.9993 33C25.9993 33.5128 25.6133 33.9355 25.116 33.9933L24.9993 34H16.9993C16.4471 34 15.9993 33.5523 15.9993 33C15.9993 32.4872 16.3854 32.0645 16.8827 32.0067L16.9993 32H24.9993H16.9993ZM29.1005 20.604C29.6525 20.6202 30.0869 21.0808 30.0707 21.6329C30.0287 23.0652 29.5706 24.5829 28.7935 25.9289C26.3082 30.2335 20.8039 31.7084 16.4993 29.2231C13.7457 27.6333 12.0714 24.7462 12.0003 21.6263C11.9877 21.0742 12.4251 20.6164 12.9772 20.6038C13.5294 20.5912 13.9872 21.0286 13.9997 21.5807C14.0551 24.0096 15.3568 26.2541 17.4993 27.491C20.8473 29.424 25.1284 28.2769 27.0614 24.9289C27.6783 23.8605 28.0396 22.6633 28.0716 21.5742C28.0878 21.0221 28.5484 20.5877 29.1005 20.604ZM20.9993 10C23.7608 10 25.9993 12.2386 25.9993 15V21.5C25.9993 24.2614 23.7608 26.5 20.9993 26.5C18.2379 26.5 15.9993 24.2614 15.9993 21.5V15C15.9993 12.2386 18.2379 10 20.9993 10Z" fill="#006633"/>
</g>
</g>
</svg>
