<svg width="501" height="10" viewBox="0 0 501 10" fill="none" xmlns="http://www.w3.org/2000/svg">
<path d="M500.874 6.5923C497.248 6.69185 493.794 6.92107 490.323 6.86082C454.849 6.23602 419.379 5.24107 383.943 4.99281C341.87 4.69773 299.833 4.89486 257.839 5.15044C225.148 5.35138 192.497 5.82476 159.931 6.42081C120.966 7.13536 82.1274 8.15247 43.1828 8.95408C32.8733 9.16813 22.4136 9.18918 12.0435 9.0553C2.5029 8.93306 -2.35818 6.78243 2.33974 4.99725C3.45939 4.56754 6.01936 4.19854 8.00668 4.18013C33.4482 3.98742 58.9522 4.00382 84.3299 3.68874C111.651 3.34885 138.847 2.66592 166.126 2.20397C194.192 1.72991 222.216 1.12222 250.364 0.967478C293.384 0.732078 336.469 0.561203 379.568 0.888022C414.72 1.15544 449.927 2.19298 485.095 2.90025C493.041 3.05797 499.056 3.89432 500.808 6.5856L500.874 6.5923Z" fill="url(#paint0_linear_53_12364)"/>
<defs>
<linearGradient id="paint0_linear_53_12364" x1="0.587189" y1="2.20681" x2="500.837" y2="9.22293" gradientUnits="userSpaceOnUse">
<stop stop-color="#74B243"/>
<stop offset="1" stop-color="#96B032"/>
</linearGradient>
</defs>
</svg>
