<svg width="20" height="20" viewBox="0 0 20 20" fill="none" xmlns="http://www.w3.org/2000/svg">
<path d="M15.1801 1.52174L13.6628 3.04469L13.874 4.01542C13.9904 4.5504 14.0852 5.02497 14.0895 5.07243C14.0895 5.15009 12.3954 6.8715 10.5116 8.70941L10.0547 9.14947L9.8521 9.08044C9.70554 9.03298 9.53742 9.01572 9.27016 9.02867C8.95117 9.0373 8.85202 9.06318 8.61063 9.17967C8.0761 9.44716 7.74849 9.93468 7.71831 10.5257C7.69245 10.9529 7.76573 11.2462 7.96833 11.5612C8.65373 12.6182 10.2961 12.506 10.8393 11.3627C10.9901 11.0348 11.0289 10.5257 10.9255 10.1633L10.8479 9.9131L12.8567 7.90263L14.8611 5.89647L15.9086 6.12081L16.9518 6.34516L18.4735 4.82651C20.0684 3.23021 20.1115 3.17844 19.9219 3.01449C19.8788 2.97998 19.3313 2.84192 18.7063 2.70818C18.0812 2.57443 17.5639 2.45795 17.5596 2.45363C17.551 2.445 17.4346 1.92728 17.301 1.29739C17.163 0.654556 17.0251 0.11958 16.9863 0.076437C16.8225 -0.109079 16.7751 -0.0702505 15.1801 1.52174Z" fill="#97B00F"/>
<path d="M8.11922 1.36642C5.38624 1.73745 3.01536 3.23452 1.48938 5.547C1.18332 6.01295 0.696211 6.99662 0.515162 7.52728C0.187549 8.45918 0.0409857 9.27458 0.00650013 10.3143C-0.0409175 11.7337 0.170306 12.9461 0.666036 14.1757C1.92045 17.2518 4.67067 19.4176 7.96835 19.9223C8.65374 20.0259 10.0461 20.0259 10.7229 19.9223C16.1242 19.0767 19.6417 13.9556 18.4821 8.61018C18.383 8.14854 18.1502 7.41942 17.9864 7.04408L17.8786 6.80247L17.5683 7.1131L17.2536 7.42374L16.2664 7.20802C15.719 7.09153 15.2448 6.9923 15.2103 6.9923C15.1715 6.9923 15.0034 7.13468 14.831 7.30725L14.5163 7.6222L14.7103 8.03206C15.1327 8.92081 15.3051 9.66719 15.3095 10.6163C15.3138 11.8589 14.9861 12.9504 14.2964 13.9901C13.9731 14.4733 13.2145 15.2456 12.7446 15.5692C12.0463 16.0481 11.1712 16.4019 10.3349 16.5485C9.80901 16.6435 8.85204 16.6435 8.34338 16.5529C7.08034 16.3242 5.93801 15.7072 5.05001 14.784C4.20511 13.9039 3.67059 12.8684 3.45505 11.682C3.34729 11.0909 3.36022 10.077 3.48092 9.50756C3.9982 7.05702 5.79576 5.2752 8.27009 4.76611C8.82186 4.64962 9.91678 4.65825 10.4987 4.78337C11.0332 4.89985 11.585 5.08969 12.0376 5.31835L12.3782 5.49092L12.6929 5.17597C12.8825 4.98614 13.0119 4.8222 13.0119 4.77042C13.0119 4.72297 12.9127 4.24839 12.8006 3.71342L12.5894 2.74269L12.8955 2.43206C13.0636 2.25949 13.1929 2.1128 13.18 2.10417C13.1541 2.07397 12.4127 1.79354 12.1713 1.71588C11.7661 1.58214 11.0505 1.43114 10.5418 1.36211C9.92109 1.28445 8.71841 1.28445 8.11922 1.36642Z" fill="#97B00F"/>
<path d="M8.85201 5.68506C7.63639 5.83175 6.62769 6.31064 5.81728 7.12605C4.64046 8.29954 4.11887 10.0468 4.45941 11.6647C4.91203 13.8305 6.73115 15.4441 8.90373 15.6166C10.0331 15.7029 11.0763 15.457 12.0161 14.8789C12.5204 14.5683 13.2532 13.8305 13.5679 13.3171C14.2921 12.1479 14.5119 10.7199 14.1714 9.3997C14.0593 8.95964 13.8395 8.41603 13.7705 8.41603C13.7446 8.41603 13.3265 8.81295 12.8394 9.30047L11.96 10.1806L11.9729 10.5603C12.0161 11.9883 10.9384 13.1834 9.51154 13.2783C9.02012 13.3128 8.68389 13.2438 8.2054 13.0108C7.73123 12.7821 7.4381 12.5276 7.1579 12.1091C6.86047 11.6647 6.75701 11.3411 6.73115 10.7889C6.69235 9.98213 6.92944 9.36518 7.48983 8.80001C8.02866 8.26503 8.59768 8.02774 9.36929 8.02774H9.80036L10.697 7.13036C11.1884 6.63853 11.5893 6.22435 11.5893 6.2071C11.5893 6.16395 10.9901 5.92667 10.6366 5.83175C10.0978 5.68506 9.34774 5.62466 8.85201 5.68506Z" fill="#97B00F"/>
</svg>
