<svg width="20" height="20" viewBox="0 0 20 20" fill="none" xmlns="http://www.w3.org/2000/svg">
<g clip-path="url(#clip0_2675_2875)">
<path d="M2.96876 0.703125C2.10158 0.929688 1.34767 1.53516 0.957044 2.32422C0.601575 3.03516 0.625013 2.64062 0.625013 8.125C0.625013 12.8203 0.628919 12.9648 0.703138 13.2656C0.921888 14.1406 1.52736 14.8984 2.32423 15.293C2.89845 15.582 3.14845 15.625 4.16017 15.625H5.03126L4.88673 15.9102C4.53517 16.6094 4.53517 17.375 4.88673 18.082C5.19142 18.6992 5.82814 19.1992 6.47658 19.332C6.98439 19.4375 7.64454 19.3633 8.06251 19.1523C8.17189 19.0977 9.54689 18.2812 11.1211 17.3398L13.9766 15.625H15.3438C16.9102 15.625 17.0508 15.6055 17.6758 15.293C18.4727 14.8984 19.0781 14.1406 19.2969 13.2656C19.3711 12.9648 19.375 12.8203 19.375 8.125C19.375 2.64062 19.3985 3.03516 19.043 2.32422C18.6485 1.52734 17.8906 0.921875 17.0156 0.703125C16.711 0.625 16.5703 0.625 9.98439 0.628906C3.47267 0.628906 3.25392 0.632812 2.96876 0.703125ZM14.0235 5.72656C14.4414 5.97266 14.4414 6.52734 14.0235 6.77344C13.8867 6.85547 13.8516 6.85547 10 6.85547C6.14845 6.85547 6.11329 6.85547 5.97658 6.77344C5.48439 6.48828 5.58986 5.79688 6.14454 5.66406C6.21095 5.64453 7.98439 5.63672 10.0781 5.63672C13.8438 5.64453 13.8867 5.64453 14.0235 5.72656ZM14.0235 9.47656C14.4414 9.72266 14.4414 10.2773 14.0235 10.5234C13.8867 10.6055 13.8516 10.6055 10 10.6055C6.14845 10.6055 6.11329 10.6055 5.97658 10.5234C5.48439 10.2383 5.58986 9.54688 6.14454 9.41406C6.21095 9.39453 7.98439 9.38672 10.0781 9.38672C13.8438 9.39453 13.8867 9.39453 14.0235 9.47656Z" fill="#97B00F"/>
</g>
<defs>
<clipPath id="clip0_2675_2875">
<rect width="20" height="20" fill="white"/>
</clipPath>
</defs>
</svg>
