<svg width="20" height="20" viewBox="0 0 20 20" fill="none" xmlns="http://www.w3.org/2000/svg">
<path d="M5.00023 0.0409737C2.56207 0.377598 0.601484 2.4067 0.0778228 5.13242C-0.0185308 5.63736 -0.0269094 7.12879 0.0610657 7.63373C0.216069 8.51737 0.618241 9.54127 1.08325 10.2472C1.2215 10.453 1.72002 11.0608 2.19341 11.5937L3.05641 12.5662L3.17789 12.2717C3.28263 12.0285 3.4502 11.8182 4.20846 10.9672C5.27254 9.77503 5.38565 9.69088 5.9512 9.69088C6.40783 9.69088 6.7346 9.86386 7.10326 10.308C7.40907 10.6727 7.56408 11.014 7.5934 11.3927L7.61854 11.6685L7.85314 11.6872C8.20085 11.7153 8.51923 11.8976 8.84181 12.2623C9.16438 12.6223 9.31939 12.9589 9.3529 13.3657L9.37804 13.6415H9.55818C9.89332 13.6415 10.1908 13.8099 10.5427 14.1886C10.949 14.628 11.0873 14.9086 11.1166 15.3247L11.1375 15.6379L11.414 15.6613C11.7617 15.6893 11.988 15.8156 12.3189 16.1662C12.6205 16.4888 12.7839 16.587 13.0101 16.587C13.2657 16.587 13.4249 16.4888 13.7098 16.1569C13.9234 15.9091 13.9695 15.8202 13.9946 15.6473C14.0617 15.161 14.1287 15.2545 11.7911 12.6363C10.0651 10.7008 9.65872 10.2192 9.65872 10.121C9.65872 9.93867 9.82629 9.74698 9.98967 9.74698C10.1112 9.74698 10.3248 9.96672 12.2686 12.1314C14.0994 14.1745 14.4387 14.5299 14.5811 14.5719C14.7864 14.6327 14.7948 14.6327 14.9959 14.5719C15.1928 14.5112 15.6326 14.067 15.7164 13.8426C15.7876 13.6602 15.7918 13.3704 15.729 13.1927C15.708 13.1179 14.7361 11.9958 13.5757 10.6914C12.2435 9.19529 11.4559 8.27892 11.435 8.19944C11.3847 7.96568 11.6319 7.70853 11.8497 7.76931C11.9126 7.78334 12.7714 8.71841 13.9946 10.0976C15.1132 11.3646 16.1018 12.4493 16.1856 12.5054C16.3574 12.6223 16.6506 12.6457 16.8517 12.5615C17.0109 12.4961 17.4047 12.066 17.4759 11.8789C17.5597 11.6639 17.5471 11.3319 17.455 11.1262C17.3461 10.8971 11.7198 4.63683 11.59 4.60411C11.5355 4.59008 11.4434 4.59943 11.3805 4.62281C11.3219 4.65086 10.5762 5.44567 9.72156 6.39009C8.56951 7.67113 8.11706 8.14334 7.96206 8.23217C7.28758 8.6062 6.46229 8.5875 5.88836 8.18074C5.38984 7.83009 5.17199 7.47009 5.17199 7.00256C5.16781 6.49294 5.15524 6.51165 7.42583 3.96358L9.51209 1.61656L9.36547 1.48098C8.64491 0.812404 7.68557 0.302792 6.75973 0.106428C6.32824 0.0129204 5.43173 -0.0198059 5.00023 0.0409737Z" fill="#97B00F"/>
<path d="M13.6399 0.0409689C12.4794 0.19058 11.3274 0.765647 10.4979 1.61188C10.3471 1.76149 9.24113 2.99111 8.03881 4.34228L5.84781 6.80151V6.99788C5.84781 7.16619 5.87294 7.22229 5.98606 7.34385C6.05727 7.41866 6.22484 7.54022 6.35052 7.60567C6.54323 7.70853 6.63958 7.72723 6.95797 7.72723C7.60731 7.72723 7.59055 7.74126 9.36681 5.76359C10.5063 4.49657 10.942 4.03839 11.0844 3.96826C11.4321 3.79059 11.8971 3.85605 12.1653 4.11787C12.2281 4.17865 13.5603 5.6654 15.1313 7.42333C17.5527 10.1397 18.0009 10.6633 18.0805 10.8691C18.135 11.0046 18.1936 11.1169 18.2062 11.1169C18.223 11.1169 18.3277 11.0046 18.445 10.8691C19.2242 9.94802 19.7646 8.70438 19.9531 7.39996C20.0327 6.83424 20.0076 5.61398 19.9029 5.09969C19.4169 2.66384 17.8082 0.789024 15.7052 0.204606C15.0014 0.00824165 14.3269 -0.0478621 13.6399 0.0409689Z" fill="#97B00F"/>
<path d="M5.65746 10.481C5.48989 10.5699 3.80998 12.4587 3.75133 12.627C3.69268 12.8093 3.69687 13.0992 3.76809 13.2816C3.85188 13.506 4.29175 13.9501 4.48865 14.0109C4.68973 14.0717 4.69811 14.0717 4.90339 14.0109C5.04163 13.9688 5.23015 13.7818 5.92557 13.0197C6.4618 12.426 6.80532 12.0052 6.85559 11.8883C6.94357 11.6779 6.95614 11.4208 6.88911 11.2244C6.83046 11.0467 6.40315 10.5605 6.23558 10.481C6.06382 10.3969 5.82084 10.4015 5.65746 10.481Z" fill="#97B00F"/>
<path d="M7.53789 12.426C7.33681 12.4775 7.22788 12.5803 6.38165 13.5341C5.58149 14.4364 5.46838 14.6047 5.46838 14.9273C5.46838 15.1798 5.56055 15.3668 5.82866 15.6614C6.18894 16.0494 6.4403 16.1196 6.7922 15.9325C6.98072 15.8297 8.46372 14.184 8.61035 13.9081C8.71089 13.7305 8.71927 13.3798 8.63548 13.1601C8.5517 12.9356 8.11182 12.4915 7.91493 12.4307C7.73479 12.3746 7.72222 12.3746 7.53789 12.426Z" fill="#97B00F"/>
<path d="M9.17584 14.4549C9.10881 14.4923 8.66056 14.9598 8.18717 15.4928C7.25296 16.5494 7.19431 16.643 7.24877 17.0357C7.28229 17.2928 7.53364 17.6622 7.80595 17.8539C8.01541 17.9988 8.28772 18.0362 8.51394 17.9427C8.65218 17.8819 10.3028 16.0679 10.3949 15.8715C10.4787 15.6985 10.4787 15.2778 10.3991 15.1048C10.3153 14.9318 9.90478 14.497 9.76234 14.4362C9.60734 14.3707 9.32666 14.3801 9.17584 14.4549Z" fill="#97B00F"/>
<path d="M11.0021 16.4047C10.8931 16.4421 10.6544 16.6805 10.0218 17.3912C9.56514 17.9054 9.15459 18.3964 9.11269 18.4758C8.98701 18.7049 9.00377 19.0883 9.1504 19.3501C9.37243 19.7335 9.71595 20 10.005 20C10.2689 20 10.47 19.827 11.3246 18.8686C12.1667 17.9195 12.2588 17.7792 12.2588 17.4753C12.2588 17.2649 12.1499 17.0171 11.953 16.7834C11.6263 16.3953 11.3707 16.2925 11.0021 16.4047Z" fill="#97B00F"/>
</svg>
