<svg width="24" height="24" viewBox="0 0 24 24" fill="none" xmlns="http://www.w3.org/2000/svg">
<g clip-path="url(#clip0_2673_1636)">
<path d="M23.8875 6.49219C23.7328 6.16406 22.7484 5.19844 22.4297 5.05781C22.1156 4.91719 21.6656 4.91719 21.3516 5.05781C21.1547 5.14219 20.3766 5.90156 16.5562 9.71719L12 14.2734L7.41562 9.69844C2.34375 4.62656 2.7 4.94531 2.0625 4.94531C1.59375 4.95 1.38281 5.07187 0.76875 5.68594C0.13125 6.32344 -7.04534e-08 6.55312 -9.23774e-08 7.05469C-1.03237e-07 7.30312 0.0281249 7.43906 0.1125 7.61719C0.201562 7.80469 1.28437 8.91094 5.77031 13.3875C10.3312 17.9391 11.3531 18.9375 11.5078 18.9891C11.8078 19.0922 12.3141 19.0687 12.5859 18.9469C12.7828 18.8578 13.7437 17.9156 18.2906 13.3687C24.3656 7.29375 24 7.70156 24 7.05469C24 6.80625 23.9719 6.67031 23.8875 6.49219Z" fill="url(#paint0_linear_2673_1636)"/>
</g>
<defs>
<linearGradient id="paint0_linear_2673_1636" x1="12.0021" y1="4.94134" x2="12.0021" y2="19.0541" gradientUnits="userSpaceOnUse">
<stop stop-color="#307040"/>
<stop offset="0.455" stop-color="#74B243"/>
<stop offset="0.8" stop-color="#96B032"/>
</linearGradient>
<clipPath id="clip0_2673_1636">
<rect width="24" height="24" fill="white" transform="translate(24) rotate(90)"/>
</clipPath>
</defs>
</svg>
