<svg width="20" height="20" viewBox="0 0 20 20" fill="none" xmlns="http://www.w3.org/2000/svg">
<path d="M1.74685 0.0719166C0.917097 0.310236 0.279496 0.900171 0.0698741 1.62685C0.00873426 1.83782 0 2.61138 0 8.70218C0 13.5154 0.0131014 15.6056 0.0480384 15.7502C0.135381 16.1213 0.375573 16.5081 0.694373 16.7933C0.956401 17.0238 1.25337 17.1879 3.69022 18.4459C5.6336 19.4422 6.48082 19.8602 6.69918 19.9188C7.05728 20.0165 7.67741 20.0282 8.03552 19.9422C8.8216 19.7547 9.4592 19.2273 9.72996 18.5397C9.83041 18.2935 9.84351 18.1841 9.86098 17.5473L9.87845 16.8363H11.7214C12.8394 16.8363 13.6691 16.8206 13.8263 16.7933C13.9661 16.7699 14.2499 16.6839 14.4508 16.594C15.0972 16.3167 15.5557 15.8127 15.7435 15.1759C15.7959 14.9883 15.809 14.6758 15.809 13.4881C15.809 12.1324 15.8046 12.0191 15.726 11.8824C15.6256 11.7027 15.5251 11.6206 15.3155 11.5425C14.9443 11.4057 14.4683 11.5464 14.2674 11.855C14.2325 11.9097 14.2063 12.3864 14.1932 13.3787C14.167 15 14.1757 14.9571 13.8307 15.211L13.6604 15.3321L11.765 15.3439L9.87408 15.3556L9.86098 10.3626L9.84788 5.36963L9.7518 5.11177C9.62515 4.7875 9.37623 4.4437 9.1011 4.21319C8.8609 4.01785 8.69932 3.92799 5.91746 2.49808C4.86061 1.95502 3.97845 1.49401 3.95225 1.47448C3.93042 1.45495 6.09214 1.44713 8.76046 1.45104L13.608 1.46276L13.7914 1.57215C13.8918 1.63076 14.0185 1.75187 14.0709 1.84563C14.1713 2.00582 14.1713 2.04098 14.1932 3.61154C14.2063 4.72499 14.2325 5.23679 14.2674 5.29149C14.2936 5.33446 14.3722 5.41651 14.4421 5.47511C14.7871 5.76813 15.3636 5.71343 15.6649 5.36181L15.7872 5.22116L15.8003 3.56856C15.8134 1.73233 15.8003 1.60341 15.5382 1.15412C15.3505 0.837662 14.857 0.392279 14.5207 0.243818C13.9442 -0.0179405 14.3941 -0.00231361 7.88703 0.00159264C2.36698 0.00159264 1.96958 0.00549889 1.74685 0.0719166Z" fill="#FF004D"/>
<path d="M16.5603 5.74468C16.3289 5.85016 16.1673 6.05332 16.1324 6.29555C16.0843 6.60028 16.1673 6.73311 16.6957 7.21366L17.1761 7.65123L14.1453 7.66295C10.7957 7.67467 10.9792 7.66295 10.7302 7.92471C10.3896 8.28805 10.5119 8.85845 10.9704 9.0577C11.1626 9.13974 11.1975 9.13974 14.1715 9.13974H17.1761L16.6957 9.58122C16.1979 10.0344 16.1149 10.1633 16.1149 10.4485C16.1149 10.6009 16.2503 10.8549 16.39 10.9721C16.556 11.1088 16.8835 11.1752 17.1455 11.1244C17.3508 11.0854 17.4207 11.0307 18.5954 9.98363C19.2767 9.38197 19.8706 8.81938 19.9187 8.74124C20.0278 8.55371 20.0278 8.27242 19.9143 8.06926C19.7964 7.84657 17.5036 5.80328 17.2853 5.72124C17.0582 5.63919 16.7831 5.64701 16.5603 5.74468Z" fill="#FF004D"/>
</svg>
