<svg width="20" height="20" viewBox="0 0 20 20" fill="none" xmlns="http://www.w3.org/2000/svg">
<path d="M9.66016 1.32812C9.58984 1.36719 9.50781 1.44141 9.47656 1.49219C9.44531 1.54297 8.91406 2.84766 8.29688 4.39453C7.67969 5.94141 7.17188 7.21094 7.16797 7.21875C7.16016 7.22656 6.15234 6.73047 4.92578 6.11719C2.85156 5.07812 2.67969 5 2.49219 5C2.11719 5 1.875 5.23828 1.875 5.60547C1.875 5.75 3.42188 13.6562 3.57422 14.2852L3.59375 14.375H10H16.4062L16.4258 14.2852C16.5781 13.6562 18.125 5.75 18.125 5.60547C18.125 5.23828 17.8828 5 17.5078 5C17.3203 5 17.1484 5.07812 15.0781 6.11328L12.8477 7.22656L12.7773 7.0625C12.7383 6.96875 12.2305 5.69531 11.6445 4.23047C11.0586 2.76172 10.543 1.51953 10.5 1.46484C10.457 1.41016 10.3711 1.33984 10.3125 1.30859C10.1484 1.22266 9.8125 1.23438 9.66016 1.32812ZM10.4102 8.90234C10.6836 9.03516 10.9492 9.28516 11.0742 9.53125C11.3047 9.98828 11.3047 10.6406 11.0742 11.0938C10.875 11.4805 10.3633 11.8359 10 11.8359C9.63281 11.8359 9.125 11.4844 8.92578 11.0938C8.82031 10.8828 8.75 10.5742 8.75 10.3125C8.75 10.0508 8.82031 9.74219 8.92578 9.53125C9.12109 9.14062 9.63281 8.78906 10 8.78906C10.1133 8.78906 10.2578 8.82812 10.4102 8.90234Z" fill="#97B00F"/>
<path d="M3.75 16.668C3.75 17.6445 3.75391 17.7227 3.82812 17.8438C3.87109 17.9141 3.96094 18.0039 4.03125 18.0469C4.16016 18.125 4.24219 18.125 10 18.125C15.7578 18.125 15.8398 18.125 15.9688 18.0469C16.0391 18.0039 16.1289 17.9141 16.1719 17.8438C16.2461 17.7227 16.25 17.6445 16.25 16.668V15.625H10H3.75V16.668Z" fill="#97B00F"/>
</svg>
