<svg width="20" height="20" viewBox="0 0 20 20" fill="none" xmlns="http://www.w3.org/2000/svg">
<path d="M6.99219 1.1172C6.60938 1.1836 5.51563 1.71095 4.84766 2.14845C4.22266 2.5586 3.89844 2.87891 3.8125 3.16407C3.72266 3.46095 3.73438 3.69923 3.84766 4.05079C4.22266 5.1836 3.84766 6.29298 2.88672 6.91407C2.58203 7.10938 2.3086 7.21095 1.88672 7.28516C0.91016 7.45704 0.675785 7.92579 0.636722 9.8047C0.593754 11.8008 0.820316 12.2969 1.8711 12.4766C2.6875 12.6172 3.33203 13.0859 3.69141 13.7969C3.9961 14.4063 4.02344 15.0274 3.76953 15.7578C3.58985 16.2852 3.58985 16.5742 3.77344 16.9141C4.02735 17.3867 5.42579 18.3008 6.56641 18.75C7.19922 19 7.74219 18.9024 8.07813 18.4844C8.40625 18.0703 8.74219 17.7813 9.07422 17.6211C9.48047 17.4297 9.69922 17.3789 10.1211 17.3789C10.8594 17.3789 11.5508 17.707 12.0117 18.2774C12.2422 18.5703 12.4375 18.6992 12.7578 18.7774C12.9883 18.8359 13.0273 18.8359 13.2695 18.7734C13.9609 18.6055 15.4219 17.7461 16 17.1719C16.3945 16.7774 16.4609 16.4102 16.2539 15.7617C16.0313 15.0703 16.0625 14.5078 16.3633 13.8906C16.707 13.1875 17.3438 12.7188 18.1719 12.5625C18.5313 12.4922 18.7188 12.4024 18.9141 12.1992C19.2266 11.875 19.3359 11.375 19.3633 10.1172C19.3789 9.40235 19.3711 9.19532 19.3008 8.73438C19.2148 8.14454 19.1328 7.92188 18.918 7.71095C18.7383 7.52735 18.5391 7.4336 18.1758 7.36329C18.0078 7.32813 17.7227 7.22657 17.5391 7.14063C16.9492 6.85548 16.4648 6.27735 16.2656 5.60548C16.1563 5.23829 16.1719 4.64063 16.3047 4.22266C16.4688 3.69923 16.4297 3.29688 16.1875 2.97657C15.9688 2.69532 15.082 2.06251 14.375 1.68751C14.1719 1.57813 13.8008 1.40626 13.5547 1.3047C13.168 1.14845 13.0664 1.1211 12.832 1.1211C12.4336 1.1211 12.25 1.21485 11.7813 1.67188C11.1836 2.25001 10.6992 2.46485 10 2.46485C9.29688 2.46485 8.8125 2.25001 8.22266 1.67579C7.98438 1.44142 7.75782 1.26173 7.65235 1.21485C7.47266 1.13673 7.15625 1.08985 6.99219 1.1172ZM10.7617 6.9922C10.8711 7.01954 11.1328 7.12501 11.3477 7.22657C12.0156 7.55079 12.4453 7.98048 12.7734 8.65235C13.0039 9.13282 13.0859 9.48048 13.0859 10.0117C13.0859 11.2109 12.4063 12.2774 11.3086 12.7969C10.8594 13.0078 10.5 13.0859 9.98829 13.0859C8.8125 13.0859 7.76172 12.4336 7.24219 11.3867C7.00782 10.9102 6.91407 10.5195 6.91407 10.0117C6.91407 9.48048 6.9961 9.13282 7.22657 8.65235C7.55469 7.98048 7.98438 7.55079 8.65235 7.22657C8.86719 7.12501 9.13282 7.01954 9.23829 6.9922C9.6836 6.88282 10.3086 6.88282 10.7617 6.9922Z" fill="#97B00F"/>
</svg>
