<svg width="18" height="22" viewBox="0 0 18 22" fill="none" xmlns="http://www.w3.org/2000/svg">
<path d="M5.11848 0.561384C4.59647 0.721567 4.15179 1.03372 3.93429 1.39515C3.68295 1.8182 3.69261 1.50194 3.69261 8.05706C3.69261 14.7436 3.71195 14.3 3.39777 14.4356C3.1126 14.5629 2.76459 14.3904 2.70659 14.0947C2.69209 14.0125 2.67759 13.5402 2.67759 13.0473V12.1479L2.53742 12.0287C2.34409 11.8645 2.02991 11.8604 1.80757 12.0164C1.42573 12.2916 0.937556 13.0432 0.734552 13.6757C0.628216 14.0125 0.623383 14.0783 0.623383 15.5856C0.628216 17.1381 0.628216 17.1463 0.753885 17.5406C1.18406 18.8796 2.02025 19.8776 3.33011 20.6005C4.01645 20.9784 4.6013 21.192 5.45682 21.3809L5.98849 21.5H9.42023C12.8471 21.5 12.852 21.5 13.2628 21.4055C13.7848 21.2864 14.6452 20.9291 15.0512 20.6662C15.9985 20.0543 16.6607 19.2246 16.9749 18.243L17.1006 17.8446L17.1199 15.0106C17.1296 13.0145 17.1199 12.1027 17.0812 11.9302C17.0039 11.5811 16.7284 11.1293 16.4335 10.8664C16.1097 10.583 11.2328 7.81474 10.8268 7.68331C10.3821 7.54366 10.1259 7.50259 9.63774 7.50259C9.10606 7.50259 8.70972 7.57652 8.24088 7.77367C8.06687 7.84349 7.90737 7.9092 7.88803 7.91742C7.86387 7.92563 7.84937 6.59489 7.84937 4.95611C7.84937 2.1057 7.84453 1.96605 7.7527 1.71551C7.57386 1.22265 7.20652 0.865318 6.64584 0.64353C6.3655 0.528526 6.26883 0.512098 5.84349 0.503883C5.47132 0.491562 5.30215 0.507992 5.11848 0.561384Z" fill="#0B2310"/>
</svg>
