<svg width="17" height="16" viewBox="0 0 17 16" fill="none" xmlns="http://www.w3.org/2000/svg">
<path d="M7.90651 0.0533047C7.53078 0.194121 7.25837 0.441333 7.0799 0.804326L6.9797 1.01086L6.97031 3.80215L6.96405 6.59658L4.16796 6.60284L1.375 6.61223L1.15583 6.71862C0.867763 6.85944 0.620405 7.10665 0.479505 7.39454C0.376178 7.60733 0.373047 7.62298 0.373047 8.00475C0.373047 8.38652 0.376178 8.40216 0.479505 8.61495C0.620405 8.90284 0.867763 9.15006 1.15583 9.29087L1.375 9.39727L4.16796 9.40665L6.96405 9.41291L6.97031 12.2073L6.9797 14.9986L7.08616 15.2177C7.22706 15.5056 7.47442 15.7528 7.76248 15.8936C7.9754 15.9969 7.99105 16 8.37305 16C8.75504 16 8.7707 15.9969 8.98361 15.8936C9.27168 15.7528 9.51904 15.5056 9.65994 15.2177L9.76639 14.9986L9.77579 12.2073L9.78205 9.41291L12.5781 9.40665L15.3711 9.39727L15.5903 9.29087C15.8783 9.15006 16.1257 8.90284 16.2666 8.61495C16.3699 8.40216 16.373 8.38652 16.373 8.00475C16.373 7.62298 16.3699 7.60733 16.2666 7.39454C16.1257 7.10665 15.8783 6.85944 15.5903 6.71862L15.3711 6.61223L12.5781 6.60284L9.78205 6.59658L9.77579 3.80215L9.76639 1.01086L9.65994 0.791809C9.51904 0.503918 9.27168 0.256706 8.98361 0.119019C8.78009 0.0188828 8.73626 0.00949478 8.42001 0.00323677C8.13821 -0.0061512 8.04428 0.00323677 7.90651 0.0533047Z" fill="#0B2310"/>
</svg>
