<svg width="17" height="16" viewBox="0 0 17 16" fill="none" xmlns="http://www.w3.org/2000/svg">
<path d="M8.62358 1.2875L8.48295 1.35937L7.49858 3.34062C6.95795 4.42812 6.49858 5.3375 6.47983 5.35625C6.4642 5.375 5.48608 5.52812 4.30795 5.69687C1.92045 6.04062 1.94233 6.0375 1.82045 6.28125C1.73295 6.45 1.72983 6.56875 1.80795 6.73437C1.84858 6.82187 2.3392 7.31562 3.42983 8.375C4.41733 9.33437 4.99233 9.9125 4.99545 9.95312C4.99858 9.9875 4.83608 10.9562 4.6392 12.1062C4.44233 13.2562 4.27983 14.2469 4.27983 14.3031C4.27983 14.4531 4.38608 14.6375 4.5142 14.7187C4.60795 14.7781 4.65795 14.7844 4.82045 14.775C5.00483 14.7594 5.12358 14.7031 6.94545 13.7406L8.87358 12.725L10.8048 13.7375C11.8642 14.2969 12.7861 14.7656 12.8517 14.7781C13.1642 14.85 13.4673 14.6187 13.4673 14.3094C13.4673 14.2469 13.3048 13.2531 13.108 12.1031C12.9111 10.95 12.7486 9.98437 12.7486 9.95937C12.7486 9.93125 13.458 9.21562 14.3267 8.37187C15.9361 6.8 15.9986 6.73125 15.9986 6.50625C15.9986 6.45937 15.9673 6.35625 15.9298 6.28125C15.8048 6.03437 15.8298 6.04062 13.4205 5.69375C12.2361 5.52187 11.2611 5.37187 11.2548 5.35625C11.2486 5.34062 10.7986 4.43437 10.2548 3.34375L9.2642 1.35937L9.12358 1.2875C9.04858 1.25 8.93608 1.21875 8.87358 1.21875C8.81108 1.21875 8.69858 1.25 8.62358 1.2875Z" fill="#0B2310"/>
</svg>
