<svg width="86" height="66" viewBox="0 0 86 66" fill="none" xmlns="http://www.w3.org/2000/svg">
<rect x="0.5" width="85" height="66" rx="30" fill="url(#paint0_linear_1979_15543)"/>
<path d="M28.5341 11.0508C21.7138 11.8945 16.2294 16.9805 14.7646 23.8125C14.495 25.0781 14.4716 28.8164 14.7177 30.082C15.1513 32.2969 16.2763 34.8633 17.5771 36.6328C17.9638 37.1484 19.3583 38.6719 20.6825 40.0078L23.0966 42.4453L23.4364 41.707C23.7294 41.0977 24.1982 40.5703 26.3193 38.4375C29.2958 35.4492 29.6122 35.2383 31.1943 35.2383C32.4716 35.2383 33.3857 35.6719 34.4169 36.7852C35.2724 37.6992 35.706 38.5547 35.788 39.5039L35.8583 40.1953L36.5146 40.2422C37.4872 40.3125 38.3779 40.7695 39.2802 41.6836C40.1825 42.5859 40.6161 43.4297 40.7099 44.4492L40.7802 45.1406H41.2841C42.2216 45.1406 43.0536 45.5625 44.038 46.5117C45.1747 47.6133 45.5614 48.3164 45.6435 49.3594L45.7021 50.1445L46.4755 50.2031C47.4482 50.2734 48.081 50.5898 49.0068 51.4687C49.8505 52.2773 50.3075 52.5234 50.9404 52.5234C51.6552 52.5234 52.1005 52.2773 52.8974 51.4453C53.495 50.8242 53.6239 50.6016 53.6943 50.168C53.8818 48.9492 54.0693 49.1836 47.5302 42.6211C42.7021 37.7695 41.5654 36.5625 41.5654 36.3164C41.5654 35.8594 42.0341 35.3789 42.4911 35.3789C42.831 35.3789 43.4286 35.9297 48.8661 41.3555C53.9872 46.4766 54.9364 47.3672 55.3349 47.4727C55.9091 47.625 55.9325 47.625 56.495 47.4727C57.0458 47.3203 58.2763 46.207 58.5107 45.6445C58.7099 45.1875 58.7216 44.4609 58.5458 44.0156C58.4872 43.8281 55.7685 41.0156 52.5224 37.7461C48.7958 33.9961 46.5927 31.6992 46.5341 31.5C46.3935 30.9141 47.0849 30.2695 47.6943 30.4219C47.87 30.457 50.2724 32.8008 53.6943 36.2578C56.8232 39.4336 59.5888 42.1523 59.8232 42.293C60.3036 42.5859 61.1239 42.6445 61.6864 42.4336C62.1318 42.2695 63.2333 41.1914 63.4325 40.7227C63.6669 40.1836 63.6318 39.3516 63.3739 38.8359C63.0693 38.2617 47.331 22.5703 46.9677 22.4883C46.8154 22.4531 46.5575 22.4766 46.3818 22.5352C46.2177 22.6055 44.1318 24.5977 41.7411 26.9648C38.5185 30.1758 37.2529 31.3594 36.8193 31.582C34.9325 32.5195 32.6239 32.4727 31.0185 31.4531C29.6239 30.5742 29.0146 29.6719 29.0146 28.5C29.0029 27.2227 28.9677 27.2695 35.3193 20.8828L41.1552 15L40.745 14.6602C38.7294 12.9844 36.0458 11.707 33.456 11.2148C32.2489 10.9805 29.7411 10.8984 28.5341 11.0508Z" fill="url(#paint1_linear_1979_15543)"/>
<path d="M52.6953 11.0508C49.4492 11.4258 46.2266 12.8672 43.9063 14.9883C43.4844 15.3633 40.3906 18.4453 37.0273 21.832L30.8984 27.9961V28.4883C30.8984 28.9102 30.9688 29.0508 31.2852 29.3555C31.4844 29.543 31.9531 29.8477 32.3047 30.0117C32.8438 30.2695 33.1133 30.3164 34.0039 30.3164C35.8203 30.3164 35.7734 30.3516 40.7422 25.3945C43.9297 22.2188 45.1484 21.0703 45.5469 20.8945C46.5195 20.4492 47.8203 20.6133 48.5703 21.2695C48.7461 21.4219 52.4727 25.1484 56.8672 29.5547C63.6406 36.3633 64.8945 37.6758 65.1172 38.1914C65.2695 38.5312 65.4336 38.8125 65.4688 38.8125C65.5156 38.8125 65.8086 38.5312 66.1367 38.1914C68.3164 35.8828 69.8281 32.7656 70.3555 29.4961C70.5781 28.0781 70.5078 25.0195 70.2148 23.7305C68.8555 17.625 64.3555 12.9258 58.4727 11.4609C56.5039 10.9688 54.6172 10.8281 52.6953 11.0508Z" fill="url(#paint2_linear_1979_15543)"/>
<path d="M30.3754 37.2188C29.9066 37.4414 25.2074 42.1758 25.0434 42.5977C24.8793 43.0547 24.891 43.7812 25.0902 44.2383C25.3246 44.8008 26.5551 45.9141 27.1059 46.0664C27.6684 46.2188 27.6918 46.2188 28.266 46.0664C28.6527 45.9609 29.1801 45.4922 31.1254 43.582C32.6254 42.0938 33.5863 41.0391 33.727 40.7461C33.9731 40.2188 34.0082 39.5742 33.8207 39.082C33.6566 38.6367 32.4613 37.418 31.9926 37.2188C31.5121 37.0078 30.8324 37.0195 30.3754 37.2188Z" fill="url(#paint3_linear_1979_15543)"/>
<path d="M35.6328 42.094C35.0703 42.2229 34.7656 42.4807 32.3984 44.8713C30.1602 47.133 29.8438 47.5549 29.8438 48.3635C29.8438 48.9963 30.1016 49.4651 30.8516 50.2034C31.8594 51.176 32.5625 51.3518 33.5469 50.883C34.0742 50.6252 38.2227 46.5002 38.6328 45.8088C38.9141 45.3635 38.9375 44.4846 38.7031 43.9338C38.4688 43.3713 37.2383 42.258 36.6875 42.1057C36.1836 41.9651 36.1484 41.9651 35.6328 42.094Z" fill="url(#paint4_linear_1979_15543)"/>
<path d="M40.2198 47.1793C40.0323 47.273 38.7784 48.4449 37.4542 49.7808C34.8409 52.4293 34.6768 52.6636 34.8292 53.648C34.9229 54.2925 35.626 55.2183 36.3878 55.6988C36.9737 56.0621 37.7354 56.1558 38.3682 55.9214C38.7549 55.7691 43.3721 51.2222 43.6299 50.73C43.8643 50.2964 43.8643 49.2418 43.6417 48.8082C43.4073 48.3746 42.2589 47.2847 41.8604 47.1324C41.4268 46.9683 40.6417 46.9918 40.2198 47.1793Z" fill="url(#paint5_linear_1979_15543)"/>
<path d="M45.3178 52.0664C45.0131 52.1602 44.3451 52.7578 42.5756 54.5391C41.2983 55.8281 40.1498 57.0586 40.0326 57.2578C39.6811 57.832 39.7279 58.793 40.1381 59.4492C40.7592 60.4102 41.7201 61.0781 42.5287 61.0781C43.267 61.0781 43.8295 60.6445 46.2201 58.2422C48.5756 55.8633 48.8334 55.5117 48.8334 54.75C48.8334 54.2227 48.5287 53.6016 47.9779 53.0156C47.0639 52.043 46.349 51.7852 45.3178 52.0664Z" fill="url(#paint6_linear_1979_15543)"/>
<defs>
<linearGradient id="paint0_linear_1979_15543" x1="1.69418" y1="-9.98239e-07" x2="76.6876" y2="73.747" gradientUnits="userSpaceOnUse">
<stop stop-color="#0F3B18"/>
<stop offset="0.5" stop-color="#0C2311"/>
<stop offset="1" stop-color="#031E09"/>
</linearGradient>
<linearGradient id="paint1_linear_1979_15543" x1="14.5469" y1="31.7484" x2="63.5895" y2="31.7484" gradientUnits="userSpaceOnUse">
<stop stop-color="#307040"/>
<stop offset="0.455" stop-color="#74B243"/>
<stop offset="0.8" stop-color="#96B032"/>
</linearGradient>
<linearGradient id="paint2_linear_1979_15543" x1="30.8984" y1="24.8803" x2="70.4865" y2="24.8803" gradientUnits="userSpaceOnUse">
<stop stop-color="#307040"/>
<stop offset="0.455" stop-color="#74B243"/>
<stop offset="0.8" stop-color="#96B032"/>
</linearGradient>
<linearGradient id="paint3_linear_1979_15543" x1="24.9297" y1="41.6228" x2="33.94" y2="41.6228" gradientUnits="userSpaceOnUse">
<stop stop-color="#307040"/>
<stop offset="0.455" stop-color="#74B243"/>
<stop offset="0.8" stop-color="#96B032"/>
</linearGradient>
<linearGradient id="paint4_linear_1979_15543" x1="29.8438" y1="46.5653" x2="38.8629" y2="46.5653" gradientUnits="userSpaceOnUse">
<stop stop-color="#307040"/>
<stop offset="0.455" stop-color="#74B243"/>
<stop offset="0.8" stop-color="#96B032"/>
</linearGradient>
<linearGradient id="paint5_linear_1979_15543" x1="34.7891" y1="51.5362" x2="43.8072" y2="51.5362" gradientUnits="userSpaceOnUse">
<stop stop-color="#307040"/>
<stop offset="0.455" stop-color="#74B243"/>
<stop offset="0.8" stop-color="#96B032"/>
</linearGradient>
<linearGradient id="paint6_linear_1979_15543" x1="39.7969" y1="56.5187" x2="48.8334" y2="56.5187" gradientUnits="userSpaceOnUse">
<stop stop-color="#307040"/>
<stop offset="0.455" stop-color="#74B243"/>
<stop offset="0.8" stop-color="#96B032"/>
</linearGradient>
</defs>
</svg>
