<svg width="807" height="603" viewBox="0 0 807 603" fill="none" xmlns="http://www.w3.org/2000/svg">
<path d="M116.911 107.305C113.28 109.616 115.591 110.606 124.668 110.772C134.735 111.102 141.501 109.286 138.2 107.14C135.065 105.159 120.047 105.324 116.911 107.305Z" fill="#96B032"/>
<path d="M146.947 108.296C148.267 109.451 189.857 112.423 191.012 111.267C191.507 110.772 190.847 109.781 189.527 108.956C186.886 107.305 145.462 106.645 146.947 108.296Z" fill="#96B032"/>
<path d="M253.727 118.035C244.32 120.511 242.34 121.666 242.34 124.638C242.34 128.27 250.922 129.095 258.843 126.289C262.969 124.803 271.221 123.152 277.328 122.657C287.23 121.832 290.035 122.327 302.413 126.949C314.461 131.572 318.091 132.067 329.149 131.737C337.071 131.406 342.187 130.581 342.517 129.26C343.507 126.619 340.041 125.794 319.907 123.813C310.335 122.987 296.967 121.171 290.2 119.85C271.386 116.219 262.144 115.723 253.727 118.035Z" fill="#96B032"/>
<path d="M225.834 122.162C225.834 122.987 228.31 123.812 231.28 123.812C235.241 123.812 235.901 123.317 234.086 122.162C230.785 120.016 225.834 120.016 225.834 122.162Z" fill="#96B032"/>
<path d="M16.2386 125.959C17.7239 127.61 23.005 128.93 29.4414 129.426L40.1688 130.416L31.917 127.94C27.461 126.619 21.5197 124.968 18.7141 124.473C14.2581 123.482 13.9281 123.648 16.2386 125.959Z" fill="#96B032"/>
<path d="M58.8185 133.223C60.7989 133.553 63.7696 133.553 65.4199 133.223C66.9053 132.728 65.2549 132.398 61.6241 132.563C57.9933 132.563 56.673 132.893 58.8185 133.223Z" fill="#96B032"/>
<path d="M120.211 137.02C116.581 138.01 116.416 138.34 119.056 139.496C121.037 140.321 123.017 139.826 124.832 138.01C127.638 135.204 126.813 135.039 120.211 137.02Z" fill="#96B032"/>
<path d="M134.239 137.678C129.288 139.659 129.288 139.824 132.919 141.64C134.899 142.796 143.316 143.621 152.723 143.621L168.897 143.456L161.47 139.494C153.053 135.037 142.161 134.211 134.239 137.678Z" fill="#96B032"/>
<path d="M215.107 138.837C174.013 141.974 171.538 143.129 206.36 143.459C237.882 143.625 244.649 142.634 237.552 138.837C235.737 137.847 234.086 137.186 233.756 137.186C233.426 137.351 225.174 138.177 215.107 138.837Z" fill="#96B032"/>
<path d="M439.227 141.643C435.431 143.294 431.305 145.44 430.15 146.595C427.014 149.732 456.06 149.237 465.797 145.935C474.049 143.129 475.7 143.294 494.514 148.411C501.115 150.227 513.163 152.208 521.415 152.869C534.122 153.859 536.103 153.694 536.103 151.383C536.103 147.091 526.366 144.945 494.844 142.798C488.077 142.303 475.865 141.313 467.613 140.322C448.469 138.341 447.478 138.341 439.227 141.643Z" fill="#96B032"/>
<path d="M423.051 141.97C423.546 142.796 425.197 143.621 426.517 143.621C427.837 143.621 428.497 142.796 428.002 141.97C427.507 140.98 425.857 140.319 424.536 140.319C423.216 140.319 422.556 140.98 423.051 141.97Z" fill="#96B032"/>
<path d="M409.85 145.273C410.345 146.098 413.975 146.924 417.771 146.924C422.887 146.924 424.043 146.429 422.227 145.273C418.927 143.127 408.529 143.127 409.85 145.273Z" fill="#96B032"/>
<path d="M288.549 153.527C291.85 155.673 297.296 155.673 295.976 153.527C295.48 152.537 293.005 151.876 290.529 151.876C287.064 151.876 286.569 152.206 288.549 153.527Z" fill="#96B032"/>
<path d="M316.606 154.682C302.083 156.168 299.277 158.975 309.674 161.616C312.975 162.606 325.518 164.422 337.235 165.743C349.118 167.229 363.476 169.045 369.417 170.035C391.862 173.337 417.278 171.191 417.278 165.908C417.278 162.276 410.016 161.121 397.638 162.606C368.922 166.238 327.993 162.937 336.41 157.654C342.186 154.022 334.265 152.866 316.606 154.682Z" fill="#96B032"/>
<path d="M480.814 163.434C478.833 166.57 483.454 170.037 489.23 170.037C495.997 170.037 496.822 166.57 490.716 163.764C485.435 161.288 482.134 161.288 480.814 163.434Z" fill="#96B032"/>
<path d="M471.738 169.872C471.738 171.688 478.175 173.999 479.495 172.844C479.99 172.349 479.825 171.193 479.165 170.202C477.845 168.056 471.738 167.726 471.738 169.872Z" fill="#96B032"/>
<path d="M463.488 173.175C463.488 175.156 468.274 176.972 470.42 175.652C471.41 174.991 471.245 174.001 469.925 173.175C466.954 171.359 463.488 171.359 463.488 173.175Z" fill="#96B032"/>
<path d="M480.98 175.155C468.437 178.127 461.506 186.381 467.447 191.334C468.767 192.489 483.125 196.947 499.464 201.404C515.802 205.861 532.801 210.979 537.257 212.63C549.305 217.417 559.537 218.408 566.304 215.766C574.39 212.3 575.381 209.823 570.264 205.366C566.139 201.899 564.488 201.569 546.499 201.734C525.045 202.064 509.861 199.423 505.9 195.131C502.765 191.829 503.755 190.013 510.521 186.546C526.53 178.292 504.25 169.708 480.98 175.155Z" fill="#96B032"/>
<path d="M459.195 178.458C458.7 179.283 460.185 179.943 462.496 179.943C467.612 179.943 468.107 178.953 463.486 177.797C461.67 177.302 459.69 177.632 459.195 178.458Z" fill="#96B032"/>
<path d="M635.453 178.622C635.948 179.777 637.598 181.098 639.084 181.263C641.064 181.758 641.889 181.098 641.394 179.612C640.899 178.457 639.249 177.136 637.763 176.971C635.783 176.476 634.958 177.136 635.453 178.622Z" fill="#96B032"/>
<path d="M645.027 178.125C645.027 178.951 646.183 179.941 647.503 180.601C648.988 181.097 649.978 180.601 649.978 179.116C649.978 177.795 648.823 176.639 647.503 176.639C646.183 176.639 645.027 177.3 645.027 178.125Z" fill="#96B032"/>
<path d="M655.423 179.446C656.909 180.932 658.559 181.758 659.219 181.262C660.87 179.611 658.229 176.64 655.258 176.64C652.783 176.64 652.783 176.805 655.423 179.446Z" fill="#96B032"/>
<path d="M664.004 179.941C664.499 180.766 666.15 181.592 667.47 181.592C668.79 181.592 669.45 180.766 668.955 179.941C668.46 178.95 666.81 178.29 665.49 178.29C664.169 178.29 663.509 178.95 664.004 179.941Z" fill="#96B032"/>
<path d="M622.746 181.427C621.756 183.243 627.037 186.545 630.833 186.545C632.318 186.545 633.474 185.554 633.474 184.234C633.474 180.437 624.727 178.291 622.746 181.427Z" fill="#96B032"/>
<path d="M646.345 185.885C644.035 186.38 641.064 187.701 640.074 189.021C638.589 190.837 639.249 191.828 643.54 194.139C648.656 196.78 651.627 196.946 676.712 196.615C681.828 196.615 689.255 197.606 693.216 199.092C701.963 202.063 710.875 210.483 709.884 214.445C708.399 220.388 730.349 228.972 740.416 226.331C748.008 224.185 745.532 220.718 731.339 213.454C723.747 209.822 713.845 203.219 709.059 198.927C704.438 194.799 697.837 190.177 694.701 188.856C688.76 186.38 655.257 184.399 646.345 185.885Z" fill="#96B032"/>
<path d="M607.398 220.881C605.747 222.037 605.747 222.697 607.563 224.348C610.368 226.494 615.814 225.008 614.824 222.202C613.999 219.891 610.203 219.23 607.398 220.881Z" fill="#96B032"/>
<path d="M619.609 221.047C618.949 221.872 619.774 223.358 621.259 224.184C624.725 226.165 630.501 224.679 629.676 222.203C628.851 219.891 620.929 218.901 619.609 221.047Z" fill="#96B032"/>
<path d="M595.68 222.697C594.36 223.523 594.03 225.009 594.525 225.999C596.01 228.145 599.971 228.475 601.127 226.329C602.612 224.018 598.156 221.212 595.68 222.697Z" fill="#96B032"/>
<path d="M636.939 223.525C634.628 226.332 637.599 228.973 644.695 230.459C648.821 231.284 650.142 230.954 650.967 228.643C653.277 222.865 641.065 218.408 636.939 223.525Z" fill="#96B032"/>
<path d="M584.459 227.322C581.488 228.313 581.818 231.119 584.624 231.119C587.429 231.119 589.575 228.478 587.759 227.322C586.934 226.992 585.449 226.992 584.459 227.322Z" fill="#96B032"/>
<path d="M599.642 231.944C598.817 232.274 596.011 232.934 593.536 233.43C591.06 234.09 587.759 236.236 586.274 238.547C583.964 242.179 583.964 243.5 587.264 257.037C589.41 264.961 592.05 273.215 593.206 275.196C596.176 279.819 612.185 284.606 621.757 283.45C637.105 281.8 634.134 270.079 617.301 265.786C602.448 262.154 597.827 255.221 605.583 248.287C608.554 245.646 611.69 245.151 627.038 245.151C645.027 245.151 649.648 243.665 647.832 238.877C645.852 233.76 635.95 231.118 618.291 231.284C609.049 231.284 600.632 231.614 599.642 231.944Z" fill="#96B032"/>
<path d="M719.621 282.624C716.486 285.761 717.311 288.402 722.262 290.383C727.708 292.529 736.455 290.548 737.115 287.081C738.105 282.129 723.747 278.497 719.621 282.624Z" fill="#96B032"/>
<path d="M742.892 284.936C741.737 288.073 745.038 290.549 750.319 290.549C754.61 290.549 754.94 288.568 751.309 284.936C748.009 281.469 744.213 281.634 742.892 284.936Z" fill="#96B032"/>
<path d="M758.404 289.557C757.249 292.694 758.569 293.85 763.521 293.85C766.491 293.85 767.316 293.189 766.491 291.208C765.996 289.722 765.501 288.237 765.501 287.907C765.501 286.091 759.065 287.576 758.404 289.557Z" fill="#96B032"/>
<path d="M732.659 297.316C724.573 298.967 723.417 300.948 726.883 306.891C730.184 312.504 734.31 314.485 747.183 316.961C760.716 319.437 766.162 323.234 766.822 330.498C767.482 337.266 767.317 337.431 748.998 347.336C735.465 354.6 733.98 356.746 738.436 362.689C748.833 376.391 776.889 379.033 783.491 366.651C784.976 364.01 788.442 350.638 791.412 336.276C793.888 323.729 782.17 306.561 767.152 301.278C757.745 297.811 739.921 295.83 732.659 297.316Z" fill="#96B032"/>
<path d="M772.104 297.153C772.104 299.134 777.55 302.105 781.181 302.105C783.326 302.105 783.491 301.445 782.006 298.804C780.19 295.502 772.104 294.016 772.104 297.153Z" fill="#96B032"/>
<path d="M784.316 303.92C782.665 306.727 788.112 311.514 790.587 309.038C791.907 307.717 791.907 306.562 790.257 304.581C787.782 301.609 785.966 301.444 784.316 303.92Z" fill="#96B032"/>
<path d="M563.663 315.475C562.178 316.465 560.857 317.786 560.857 318.611C560.857 320.757 570.264 320.757 571.585 318.776C573.07 316.135 566.964 313.659 563.663 315.475Z" fill="#96B032"/>
<path d="M579.672 315.476C577.526 318.942 584.458 321.419 588.749 318.777C591.885 316.796 589.574 313.66 584.788 313.66C582.642 313.66 580.332 314.485 579.672 315.476Z" fill="#96B032"/>
<path d="M598.486 314.816C596.836 315.147 595.516 316.963 595.516 318.613C595.516 323.236 603.602 325.217 608.719 321.915C610.864 320.429 610.699 319.769 607.233 316.963C605.088 315.147 602.942 313.826 602.282 313.826C601.787 313.991 599.972 314.321 598.486 314.816Z" fill="#96B032"/>
<path d="M545.014 318.779C544.519 319.77 544.684 321.255 545.675 322.246C547.49 324.062 554.257 321.255 554.257 318.614C554.257 316.303 546.5 316.468 545.014 318.779Z" fill="#96B032"/>
<path d="M614.493 323.072C612.183 325.218 612.183 326.043 614.163 329.18C615.484 330.996 618.454 333.802 620.765 335.123C624.726 337.269 625.386 337.269 628.026 334.793C631.822 330.831 628.851 324.557 622.085 322.246C617.959 320.76 616.474 320.926 614.493 323.072Z" fill="#96B032"/>
<path d="M551.121 326.867C534.287 330.499 524.385 338.588 504.581 364.837C488.242 386.628 485.931 398.184 497.154 403.467C507.551 408.419 526.035 405.943 532.802 398.679C534.782 396.533 536.763 391.911 537.258 388.444C537.918 382.831 537.423 381.015 532.967 376.063C530.161 372.761 527.851 369.294 527.851 368.304C527.851 364.837 540.063 353.116 546.995 349.979C555.907 345.852 559.538 345.852 575.216 350.144C595.515 355.757 613.669 352.125 614.99 342.385C615.65 337.268 613.009 335.122 601.292 330.829C588.584 326.207 563.663 324.226 551.121 326.867Z" fill="#96B032"/>
<path d="M560.529 428.559C555.247 431.365 553.102 437.638 555.247 443.912C558.548 452.991 581.158 448.864 584.789 438.464C586.109 434.337 585.779 433.346 581.818 429.879C576.372 425.257 567.46 424.762 560.529 428.559Z" fill="#96B032"/>
<path d="M595.845 437.802C591.719 441.929 595.35 449.523 602.116 450.844C610.368 452.495 617.3 442.59 611.193 437.967C607.397 435.326 598.485 435.161 595.845 437.802Z" fill="#96B032"/>
<path d="M340.536 443.583L335.75 446.224L339.546 449.195C341.691 451.011 344.827 452.332 346.477 452.332C350.438 452.332 357.04 445.894 355.224 444.078C352.419 441.271 345.322 441.106 340.536 443.583Z" fill="#96B032"/>
<path d="M315.78 446.719C312.479 450.021 314.955 452.332 321.556 452.332C327.167 452.332 330.468 449.856 329.313 446.719C327.993 443.252 319.246 443.252 315.78 446.719Z" fill="#96B032"/>
<path d="M363.803 447.214C360.172 451.341 361.657 453.982 367.599 453.982C373.375 453.982 378.491 448.865 375.686 446.058C372.715 443.087 366.939 443.747 363.803 447.214Z" fill="#96B032"/>
<path d="M618.619 447.048C615.483 449.524 615.153 450.68 616.638 453.486C619.114 457.944 624.23 459.099 628.191 456.293C631.821 453.817 631.986 450.68 628.686 446.718C625.88 443.251 623.075 443.416 618.619 447.048Z" fill="#96B032"/>
<path d="M385.591 448.369C379.815 451.341 379.815 454.807 385.261 458.274C389.222 460.916 389.717 460.916 393.843 457.779C404.405 450.02 397.309 441.931 385.591 448.369Z" fill="#96B032"/>
<path d="M298.287 457.284C288.55 458.935 276.007 465.373 268.91 472.472C265.775 475.443 258.348 484.523 252.242 492.777C238.048 511.597 230.787 517.21 197.945 534.378C181.606 542.963 172.034 548.906 166.588 554.354C165.268 555.674 163.947 560.132 163.452 564.424C162.792 571.853 163.122 572.348 170.219 578.951C179.131 587.206 184.742 588.526 203.391 587.206C220.06 585.885 226.331 584.069 236.068 577.961C247.621 570.532 253.892 557.16 255.542 536.855C256.533 522.492 257.028 521.172 262.144 515.889C274.356 503.177 302.908 492.942 308.189 499.215C309.344 500.701 310.994 501.857 311.655 501.857C312.48 501.857 316.936 504.498 321.722 507.47C332.284 514.568 343.011 516.219 359.845 513.413C379.98 510.111 399.124 499.545 399.124 491.621C399.124 481.881 383.94 468.344 366.447 462.401C349.613 456.623 316.606 454.147 298.287 457.284Z" fill="#96B032"/>
<path d="M404.074 458.44C396.647 462.237 395.657 468.015 401.433 474.288C407.375 480.726 417.112 480.561 422.723 473.793C427.509 468.18 427.014 463.227 421.568 459.761C415.461 455.799 410.18 455.468 404.074 458.44Z" fill="#96B032"/>
<path d="M559.042 457.119C550.46 458.77 542.704 464.878 542.704 469.831C542.704 472.307 545.344 476.764 549.305 481.056C554.421 486.669 558.382 488.98 567.294 491.787C586.438 497.895 590.399 503.013 584.953 515.559C578.847 529.756 557.062 541.808 528.841 546.595C508.376 550.062 491.212 560.132 486.591 571.193C482.135 581.923 492.038 597.276 509.036 605.695C515.308 608.832 518.443 609.492 526.035 608.667C538.908 607.511 553.596 599.917 563.498 589.022C580.992 570.202 592.05 559.967 607.563 548.081C616.475 541.312 626.212 533.718 629.018 531.407C631.988 529.096 636.609 525.959 639.415 524.474C646.676 520.677 653.278 512.423 653.113 507.14C652.288 477.094 599.641 449.195 559.042 457.119Z" fill="#96B032"/>
<path d="M634.793 459.102C627.697 463.229 635.948 474.455 643.21 470.493C647.006 468.512 647.006 464.219 643.54 459.927C641.065 456.956 638.754 456.626 634.793 459.102Z" fill="#96B032"/>
<path d="M649.481 476.6C647.996 477.921 647.996 484.194 649.316 487.661C650.802 491.458 656.083 490.963 658.393 486.835C661.694 480.562 654.102 471.813 649.481 476.6Z" fill="#96B032"/>
</svg>
