<svg width="173" height="268" viewBox="0 0 173 268" fill="none" xmlns="http://www.w3.org/2000/svg">
<path d="M95.3909 0.3992C89.3544 1.73285 85.2832 7.83959 85.2832 15.6309C85.2832 21.1761 86.7572 24.8963 90.2669 28.4059C99.3919 37.5309 111.956 31.0732 111.956 17.1752C111.956 7.06747 103.603 -1.35561 95.3909 0.3992Z" fill="#ECECEC"/>
<path d="M56.996 6.57627C55.8729 7.34839 54.1181 9.1032 53.1354 10.5772C51.4508 12.8936 51.2402 13.8763 51.2402 18.9301C51.2402 23.3522 51.5912 25.2474 52.7845 27.4234C59.6633 40.2686 75.3162 39.8474 78.2643 26.7215C79.7383 19.983 76.5095 12.2619 70.3325 7.76954C66.5422 5.10224 60.0845 4.4705 56.996 6.57627Z" fill="#ECECEC"/>
<path d="M127.75 7.629C124.311 9.24342 120.59 13.9463 119.257 18.4386C117.011 26.23 120.239 34.8636 126.697 38.0925C130.628 40.128 133.295 40.128 136.875 38.0925C147.264 32.1963 148.246 15.6309 138.56 8.75207C135.892 6.85688 130.698 6.29534 127.75 7.629Z" fill="#ECECEC"/>
<path d="M9.54615 15.2098C7.79135 15.9819 5.475 17.5963 4.35192 18.8598C0.631731 23.0011 0 24.8261 0 31.6348C0 37.18 0.210577 38.4434 2.03558 42.1636C5.89615 49.955 11.7923 54.8684 19.8644 56.904C30.8846 59.7117 40.9221 51.8502 41.0625 40.2684C41.2029 23.4925 23.0231 9.03285 9.54615 15.2098Z" fill="#ECECEC"/>
<path d="M160.178 29.529C153.159 31.9858 149.369 40.7598 152.247 47.7088C154.633 53.3944 161.161 54.8685 166.636 50.8675C177.235 43.2165 171.83 25.4579 160.178 29.529Z" fill="#ECECEC"/>
<path d="M79.6688 51.9204C56.2245 56.4829 38.887 69.6089 35.0264 85.6829C33.6928 91.5089 33.763 95.6502 35.4476 100.493C37.6938 107.092 38.5361 108.425 45.0639 116.568C52.8553 126.184 55.9438 130.887 59.313 138.187C65.4899 151.383 67.3851 160.438 67.3149 175.88C67.3149 192.516 65.2091 200.447 56.5053 216.241C51.0303 226.278 49.4861 230.981 49.4861 237.439C49.4861 243.616 51.4514 249.091 55.1716 253.162C56.5755 254.636 57.5582 255.969 57.4178 256.11C57.2774 256.25 59.313 257.794 61.9101 259.549C77.4226 269.938 98.4101 269.517 113.431 258.637C133.506 244.037 151.195 212.24 158.144 178.337C161.864 160.508 162.075 157.49 162.145 127.447C162.145 99.7213 162.075 98.879 160.46 92.7021C158.214 83.9983 156.74 80.4887 153.02 74.8733C146.071 64.2742 133.787 56.904 116.59 52.9031C108.658 51.0781 86.9688 50.5165 79.6688 51.9204Z" fill="#ECECEC"/>
</svg>
