<svg width="18" height="19" viewBox="0 0 18 19" fill="none" xmlns="http://www.w3.org/2000/svg">
<g clip-path="url(#clip0_568_14889)">
<path d="M8.29687 0.530809C6.39141 0.660887 4.64766 1.31479 3.11133 2.47143C2.74922 2.74565 1.8668 3.62807 1.59258 3.99018C0.794531 5.04839 0.319922 6.12768 0.084375 7.40034C0.00703125 7.81167 -0.0210937 9.02104 0.0316406 9.44292C0.182812 10.6242 0.590625 11.7562 1.19531 12.6878L1.41328 13.0218L1.37109 13.3699C1.17773 15.0503 0.755859 16.3054 0.151172 16.998C0.0246094 17.1421 0 17.1984 0 17.3179C0 17.4691 0.084375 17.5816 0.232031 17.6273C0.411328 17.68 2.15508 17.2863 3.11484 16.9769C3.79687 16.7554 4.58789 16.4355 5.00977 16.2105L5.32969 16.0417L5.60742 16.1437C6.62344 16.5199 7.86094 16.7343 9 16.7343C13.609 16.7343 17.5008 13.5808 17.9684 9.46401C18.0211 8.98237 17.993 7.8187 17.9156 7.40034C17.6801 6.12417 17.209 5.0519 16.4074 3.99018C16.1332 3.62807 15.2508 2.74565 14.8887 2.47143C13.3242 1.2937 11.6227 0.664402 9.6293 0.527292C9.0668 0.488621 8.88398 0.488621 8.29687 0.530809ZM5.21367 7.52339C5.66016 7.69214 5.97656 8.15268 5.97656 8.64136C5.97656 9.31987 5.26992 9.9105 4.6125 9.7769C4.3418 9.72417 4.13437 9.60815 3.95156 9.41479C3.74766 9.19683 3.64922 8.97182 3.63164 8.68354C3.59648 8.18433 3.93047 7.68511 4.42266 7.50581C4.62305 7.43198 4.99219 7.44253 5.21367 7.52339ZM9.50976 7.56557C10.2234 7.93472 10.3887 8.86284 9.84023 9.42534C9.59766 9.67495 9.3375 9.78745 9 9.78745C8.78906 9.78745 8.69414 9.76636 8.53242 9.69253C7.93476 9.41831 7.66406 8.72222 7.93828 8.14565C8.08945 7.82573 8.34961 7.5937 8.68359 7.48472C8.73281 7.46714 8.89805 7.46011 9.05273 7.46714C9.2707 7.47417 9.37265 7.49526 9.50976 7.56557ZM13.6793 7.55151C13.9395 7.67807 14.1187 7.85737 14.2453 8.11401C14.3473 8.32143 14.3613 8.3812 14.3613 8.63081C14.3578 8.97182 14.284 9.16518 14.0484 9.41479C13.5703 9.92456 12.832 9.92104 12.3434 9.40425C12.0621 9.10893 11.9566 8.69057 12.0656 8.31792C12.1676 7.96636 12.4488 7.65347 12.7758 7.52339C13.0219 7.42495 13.4508 7.43901 13.6793 7.55151Z" fill="#97B00F"/>
</g>
<defs>
<clipPath id="clip0_568_14889">
<rect width="18" height="18" fill="white" transform="translate(0 0.0703125)"/>
</clipPath>
</defs>
</svg>
