<svg width="18" height="19" viewBox="0 0 18 19" fill="none" xmlns="http://www.w3.org/2000/svg">
<g clip-path="url(#clip0_568_14869)">
<path d="M3.16409 0.861248C2.57346 0.977262 2.01448 1.29015 1.57502 1.7507C1.14963 2.19718 0.878931 2.72453 0.776978 3.31867C0.724243 3.61047 0.724243 14.53 0.776978 14.8218C0.794556 14.9343 0.850806 15.1487 0.900024 15.2929C1.15667 16.0804 1.86682 16.8222 2.65081 17.1245C3.21331 17.3425 2.93206 17.3319 8.99651 17.3319C12.716 17.3319 14.611 17.3214 14.7516 17.2933C14.8641 17.2757 15.0785 17.2194 15.2227 17.1702C16.0102 16.9136 16.752 16.2034 17.0543 15.4194C17.2723 14.8569 17.2617 15.1382 17.2617 9.07375C17.2617 5.35422 17.2512 3.45929 17.2231 3.31867C17.1141 2.68586 16.8434 2.17609 16.3688 1.70148C15.8942 1.22687 15.3844 0.956169 14.7516 0.847185C14.4176 0.787418 3.46291 0.801481 3.16409 0.861248ZM12.6106 5.80422C12.8285 5.87101 13.0781 6.22961 13.0781 6.48273C13.0781 6.75695 13.0957 6.73937 10.6383 9.20734C9.02463 10.8245 8.23362 11.5944 8.1387 11.6402C7.95588 11.7245 7.72385 11.7245 7.53752 11.6366C7.36877 11.5523 5.12229 9.25656 5.01682 9.05617C4.86565 8.7714 4.91135 8.48312 5.1469 8.23703C5.32971 8.04015 5.55823 7.96984 5.8219 8.02257C5.98713 8.05422 6.03284 8.09289 6.90823 8.98586C7.41096 9.49562 7.83987 9.91398 7.85745 9.91398C7.87502 9.91398 8.81721 8.98937 9.94924 7.86086C11.8828 5.93078 12.0164 5.80422 12.1641 5.77258C12.3258 5.73742 12.4102 5.74445 12.6106 5.80422Z" fill="#97B00F"/>
</g>
<defs>
<clipPath id="clip0_568_14869">
<rect width="18" height="18" fill="white" transform="translate(0 0.0703125)"/>
</clipPath>
</defs>
</svg>
