<svg width="18" height="19" viewBox="0 0 18 19" fill="none" xmlns="http://www.w3.org/2000/svg">
<path d="M7.47335 0.137033C7.29807 0.238961 7.20247 0.40064 7.19849 0.590437C7.19849 0.731027 7.25426 0.854044 7.56099 1.3918C7.9673 2.11233 8.04697 2.18614 8.39752 2.18965C8.764 2.19317 9.00301 1.9858 9.00301 1.65892C9.00301 1.50779 8.95521 1.39532 8.6684 0.889192C8.26208 0.165151 8.16249 0.0702524 7.81593 0.0702524C7.66057 0.0702524 7.55302 0.091341 7.47335 0.137033Z" fill="#97B00F"/>
<path d="M12.3491 0.0948579C12.1898 0.144065 12.0344 0.344406 11.7277 0.889194C11.4568 1.37072 11.3931 1.51482 11.3931 1.64135C11.3931 1.97525 11.6361 2.19317 11.9946 2.18966C12.3451 2.18614 12.4089 2.12639 12.8152 1.42344C13.0144 1.07548 13.1896 0.73103 13.2056 0.660734C13.2414 0.484996 13.1139 0.235448 12.9387 0.14055C12.8112 0.0737693 12.4965 0.049166 12.3491 0.0948579Z" fill="#97B00F"/>
<path d="M5.11112 3.2899C4.95974 3.35668 4.83625 3.51484 4.8004 3.6941C4.76455 3.86632 4.88804 4.10884 5.06331 4.22131C5.19477 4.30215 5.21867 4.30566 5.99545 4.30566C6.75232 4.30566 6.80012 4.30215 6.93556 4.22482C7.31001 4.02097 7.30204 3.50781 6.92361 3.30396C6.80411 3.24069 6.72045 3.23366 6.01537 3.23366C5.38598 3.23366 5.21469 3.24421 5.11112 3.2899Z" fill="#97B00F"/>
<path d="M13.4724 3.30396C13.094 3.50781 13.086 4.02097 13.4605 4.22482C13.5959 4.30215 13.6437 4.30566 14.4046 4.30566H15.2053L15.3527 4.20374C15.6195 4.02448 15.6793 3.78196 15.5279 3.51484C15.3726 3.25475 15.2849 3.23366 14.3807 3.23366C13.6756 3.23366 13.5919 3.24069 13.4724 3.30396Z" fill="#97B00F"/>
<path d="M8.74411 3.30741C8.60468 3.3777 8.47721 3.49369 8.43738 3.58507C8.41746 3.63428 8.38161 3.88734 8.36169 4.14743C8.2621 5.46547 7.7801 6.92761 7.18655 7.71843C6.83202 8.18941 6.21856 8.62173 5.31829 9.03647L4.78052 9.28601L4.78848 13.2577L4.80044 17.2329L5.07928 17.3172C6.28628 17.6828 7.39768 17.9183 8.36567 18.0132C9.11457 18.087 13.8948 18.0905 14.2055 18.0167C15.1177 17.8023 15.7431 17.0079 15.5878 16.2628C15.5599 16.1433 15.528 16.0098 15.5161 15.9676C15.4922 15.9078 15.5081 15.8903 15.6117 15.8692C15.783 15.8375 16.1654 15.6091 16.3486 15.4298C16.5438 15.24 16.7191 14.9061 16.7749 14.6249C16.8187 14.4176 16.7908 14.0977 16.7111 13.8587C16.6872 13.799 16.7031 13.7814 16.8067 13.7603C16.978 13.7287 17.3604 13.5002 17.5357 13.328C17.7229 13.1452 17.8703 12.8886 17.95 12.6075C18.0695 12.2068 17.958 11.6866 17.6831 11.3562L17.5636 11.2086L17.703 11.0082C17.8862 10.7446 17.9659 10.5443 17.9938 10.2596C18.0575 9.60937 17.6273 8.99429 16.9103 8.70608C16.5199 8.54791 16.4004 8.54088 13.8549 8.54088H11.437L11.5525 8.26673C11.6122 8.11911 11.6999 7.83793 11.7477 7.64462C11.9269 6.8784 12.0504 5.58146 11.9867 5.17023C11.8552 4.33372 11.2577 3.69052 10.3256 3.38122C10.0905 3.30389 9.98298 3.29335 9.44122 3.27929C9.01498 3.27226 8.79987 3.27929 8.74411 3.30741Z" fill="#97B00F"/>
<path d="M0.330913 8.61473C0.211408 8.66745 0.139705 8.73071 0.0839359 8.83615C0.000282278 8.98378 0.000282278 9.02244 0.000282278 13.3245C0.000282278 18.1643 -0.0196352 17.8129 0.275144 17.9851C0.410583 18.0659 0.422534 18.0659 1.80879 18.0659C3.1353 18.0659 3.21497 18.0624 3.33846 17.9956C3.41016 17.957 3.50178 17.8761 3.5456 17.8129C3.62527 17.7004 3.62527 17.6266 3.62527 13.328C3.62527 8.48819 3.64121 8.80804 3.37033 8.63581C3.25082 8.55849 3.22294 8.55849 1.87253 8.54794C0.546023 8.54091 0.494237 8.54091 0.330913 8.61473Z" fill="#97B00F"/>
</svg>
