<svg width="18" height="19" viewBox="0 0 18 19" fill="none" xmlns="http://www.w3.org/2000/svg">
<g clip-path="url(#clip0_568_14883)">
<path d="M0.186328 0.527344C0.126562 0.5625 0.05625 0.625782 0.0386719 0.664454C0.0105469 0.713673 0 2.48906 0 6.48633C0 11.8441 0.00351562 12.2414 0.0597656 12.3293C0.182812 12.5156 0.186328 12.5156 2.39062 12.5156H4.42969V6.48633V0.457031H2.36602C0.379687 0.457031 0.295312 0.460547 0.186328 0.527344Z" fill="#97B00F"/>
<path d="M7.34063 0.485155C7.30898 0.499218 6.82383 0.914062 6.26133 1.40625L5.2418 2.30273L5.23828 6.78516V11.2676L5.70586 11.6191C8.64844 13.841 10.8352 15.7887 11.7457 17.0051C12.1676 17.5676 12.3117 17.6625 12.7441 17.666C13.0852 17.666 13.2645 17.5922 13.5562 17.3215C14.3684 16.5832 14.7727 14.9027 14.3438 14.0625C14.3051 13.9852 14.1152 13.6898 13.9254 13.4051C13.5773 12.8848 12.7723 11.5945 12.7371 11.5102C12.723 11.475 13.0816 11.4609 14.6145 11.4539C16.4602 11.4434 16.5129 11.4398 16.7379 11.3625C17.202 11.2078 17.6098 10.8527 17.8207 10.4273C17.9613 10.1426 17.9965 9.95977 18 9.56953C18 9.07383 17.8488 8.68008 17.5184 8.32852L17.3672 8.1668L17.4797 8.06484C17.6484 7.90664 17.8523 7.56914 17.9297 7.31953C18.0141 7.04883 18.0246 6.54258 17.9508 6.27187C17.8348 5.83242 17.4937 5.38594 17.1141 5.17148L16.9172 5.05898L17.0227 4.83047C17.3742 4.07812 17.1176 3.19219 16.4145 2.73867C16.3195 2.67891 16.2422 2.62617 16.2422 2.61914C16.2422 2.61562 16.2738 2.53477 16.316 2.44336C16.432 2.1832 16.4461 1.78945 16.3512 1.48359C16.207 1.00547 15.7781 0.590624 15.3246 0.495703C15.1277 0.453514 7.44258 0.442968 7.34063 0.485155Z" fill="#97B00F"/>
</g>
<defs>
<clipPath id="clip0_568_14883">
<rect width="18" height="18" fill="white" transform="translate(0 0.0703125)"/>
</clipPath>
</defs>
</svg>
