<svg width="56" height="57" viewBox="0 0 56 57" fill="none" xmlns="http://www.w3.org/2000/svg">
<g filter="url(#filter0_d_556_13618)">
<rect x="5.5" y="2.49997" width="45" height="45" rx="12" fill="url(#paint0_linear_556_13618)"/>
</g>
<path d="M21.2229 13.5692C20.2259 13.7494 19.2684 14.2636 18.5174 15.0151C17.7532 15.7843 17.2481 16.7336 17.0725 17.7576C16.9758 18.3158 16.9758 31.1931 17.0725 31.7512C17.1471 32.1732 17.3448 32.7753 17.5468 33.1708C18.0211 34.1157 18.8995 34.9903 19.8526 35.4738C20.2522 35.676 20.9681 35.9045 21.3766 35.9616C21.6269 35.9968 23.6692 36.0056 28.4696 35.9968C35.1937 35.9792 35.2113 35.9792 35.5407 35.8869C36.5859 35.5925 37.2843 35.1925 37.9826 34.4937C38.7468 33.7246 39.2519 32.7753 39.4275 31.7512C39.5242 31.1931 39.5242 18.3158 39.4275 17.7576C39.2519 16.7336 38.7468 15.7843 37.9826 15.0151C37.214 14.2504 36.2653 13.745 35.242 13.5692C34.7106 13.4769 21.7367 13.4769 21.2229 13.5692ZM28.7726 19.2739C28.8693 19.3398 29.0054 19.476 29.0713 19.5771L29.1943 19.7617L29.2162 21.6779C29.2338 23.2162 29.2514 23.6117 29.2997 23.6689C29.3524 23.7348 29.5412 23.7436 31.2146 23.7436H33.0724L33.3051 23.8666C33.6477 24.0468 33.797 24.2798 33.819 24.6621C33.8454 25.0928 33.6697 25.3917 33.2788 25.6027C33.1075 25.695 33.0548 25.6993 31.2146 25.7125C29.5149 25.7213 29.3216 25.7301 29.2733 25.796C29.2294 25.8532 29.2162 26.3103 29.2162 27.7166C29.2162 29.8131 29.2206 29.7823 28.8649 30.0811C28.4959 30.3976 28.0041 30.3976 27.6351 30.0811C27.2794 29.7823 27.2838 29.8131 27.2838 27.7166C27.2838 26.3103 27.2706 25.8532 27.2311 25.796C27.1784 25.7301 26.9851 25.7213 25.2854 25.7125C23.4364 25.6993 23.3925 25.6993 23.2168 25.6027C22.8303 25.3961 22.6503 25.0621 22.681 24.6182C22.7073 24.271 22.8699 24.0293 23.1949 23.8622L23.4364 23.7436H25.2898H27.1476L27.2135 23.6469C27.275 23.5634 27.2838 23.3041 27.2838 21.7087C27.2838 19.7354 27.2838 19.731 27.5209 19.4541C27.7142 19.2211 27.9601 19.1201 28.2983 19.1376C28.5267 19.1508 28.6277 19.1772 28.7726 19.2739Z" fill="#FEFEFE"/>
<defs>
<filter id="filter0_d_556_13618" x="-4.76837e-07" y="0.499969" width="56" height="56" filterUnits="userSpaceOnUse" color-interpolation-filters="sRGB">
<feFlood flood-opacity="0" result="BackgroundImageFix"/>
<feColorMatrix in="SourceAlpha" type="matrix" values="0 0 0 0 0 0 0 0 0 0 0 0 0 0 0 0 0 0 127 0" result="hardAlpha"/>
<feOffset dy="3.5"/>
<feGaussianBlur stdDeviation="2.75"/>
<feColorMatrix type="matrix" values="0 0 0 0 0 0 0 0 0 0 0 0 0 0 0 0 0 0 0.02 0"/>
<feBlend mode="normal" in2="BackgroundImageFix" result="effect1_dropShadow_556_13618"/>
<feBlend mode="normal" in="SourceGraphic" in2="effect1_dropShadow_556_13618" result="shape"/>
</filter>
<linearGradient id="paint0_linear_556_13618" x1="5.5" y1="25" x2="50.5" y2="25" gradientUnits="userSpaceOnUse">
<stop stop-color="#307040"/>
<stop offset="0.455" stop-color="#74B243"/>
<stop offset="0.8" stop-color="#96B032"/>
</linearGradient>
</defs>
</svg>
