<svg width="274" height="128" viewBox="0 0 274 128" fill="none" xmlns="http://www.w3.org/2000/svg">
<path d="M38.5366 2.37484C36.3275 5.48609 36.4094 8.10609 38.7003 11.5448C40.173 13.7555 41.2366 14.4105 43.5275 14.5742C45.9003 14.8198 46.8003 14.4105 48.273 12.5273C49.7457 10.6442 49.9912 9.57984 49.5821 6.79609C49.0094 2.37484 46.7184 0.000464439 43.0366 0.000464439C40.8275 0.000464439 39.8457 0.573589 38.5366 2.37484Z" fill="#006633"/>
<path d="M23.0732 4.09438C20.8641 7.69688 22.5005 13.6738 26.2641 15.8844C29.455 17.7675 31.5823 17.5219 33.5459 14.9019C35.8368 12.1181 35.4277 6.46875 32.8914 4.0125C30.5186 1.80188 24.4641 1.88375 23.0732 4.09438Z" fill="#006633"/>
<path d="M54.8178 3.52111C51.5451 6.22298 50.7269 10.7261 52.7724 14.738C54.8997 18.8317 60.9542 18.9955 63.0815 14.9836C64.7997 11.7086 64.3088 5.64986 62.1815 3.93048C60.0542 2.21111 56.6178 2.04736 54.8178 3.52111Z" fill="#006633"/>
<path d="M2.29091 7.36836C0.245455 8.92398 0 9.66086 0 13.9184C0 18.4215 0.245455 18.9946 3.10909 22.1059C6.05455 25.1352 6.62727 25.3809 10.5545 25.3809C14.0727 25.3809 15.1364 25.0534 16.7727 23.2521C20.2909 19.404 19.2273 12.7721 14.4 8.26899C11.3727 5.40336 5.23636 4.99399 2.29091 7.36836Z" fill="#006633"/>
<path d="M68.073 13.8362C65.373 16.1287 65.5366 21.7781 68.2366 23.0062C71.1821 24.3981 73.9639 23.3337 75.6821 20.2225C76.9912 17.6843 76.9912 17.3568 75.7639 14.9006C74.2093 11.7893 70.8548 11.38 68.073 13.8362Z" fill="#006633"/>
<path d="M99.0004 17.7669C91.6368 20.3051 87.5459 26.6913 87.5459 35.7794C87.5459 41.7563 89.1823 45.6863 93.355 49.7801C98.8368 55.1838 110.046 56.4119 118.064 52.4819L121.91 50.5988V42.9026V35.2063H118.882H115.773L116.019 40.5282C116.182 43.8032 115.937 46.3413 115.364 47.0782C114.055 48.7157 107.182 49.3707 103.091 48.3063C93.6004 45.7682 90.3277 33.4869 97.2823 26.2001C101.21 22.0244 105.955 20.6326 111.11 22.0244C113.237 22.5976 115.528 23.5801 116.264 24.2351C117.982 25.7907 118.964 25.7088 120.764 23.6619C122.319 21.9426 122.319 21.9426 119.619 19.6501C115.446 16.2113 106.037 15.3107 99.0004 17.7669Z" fill="#006633"/>
<path d="M131.073 35.2875L131.318 54.4462L134.018 54.6919L136.636 54.9375V49.2062V43.5569L142.282 43.2294C147.764 42.9837 149.727 43.6387 149.727 45.8494C149.727 46.2587 149.973 46.6681 150.382 46.6681C150.709 46.6681 152.018 48.5512 153.409 50.7619C155.618 54.5281 156.027 54.8556 158.891 54.8556C163.064 54.8556 162.9 53.7094 157.909 47.1594C155.7 44.13 154.146 41.7556 154.473 41.7556C155.782 41.7556 160.036 37.0887 161.1 34.5506C162.491 31.1119 161.836 25.0531 159.791 22.1875C156.518 17.8481 153.655 16.9475 141.791 16.5381L130.909 16.1287L131.073 35.2875ZM148.746 22.1875C150.873 22.7606 153.246 23.9069 153.982 24.8894C155.536 26.7725 156.027 33.5681 154.636 33.5681C154.227 33.5681 153.818 34.0594 153.818 34.6325C153.818 36.3519 148.827 37.6619 142.527 37.6619H136.636V29.4744V21.2869H140.809C143.018 21.2869 146.618 21.6962 148.746 22.1875Z" fill="#006633"/>
<path d="M169.527 35.3692L169.772 54.4461L183.518 54.6917L197.181 54.8555V51.5805V48.3055H186.545H175.909V42.9836V37.6617H184.909H193.909V34.7961V31.9305H184.909H175.909V26.6086V21.2867H186.136H196.363V18.8305V16.3742H182.863H169.363L169.527 35.3692Z" fill="#006633"/>
<path d="M204.546 35.6148V54.8555H218.455H232.364V51.5805V48.3055H221.728H211.091V42.9836V37.6617H220.5H229.91V34.7961V31.9305H220.5H211.091V26.6086V21.2867H221.728H232.364V18.8305V16.3742H218.455H204.546V35.6148Z" fill="#006633"/>
<path d="M240.546 35.6148V54.8555H243.819H247.091V42.1648C247.091 35.2055 247.419 29.4742 247.746 29.4742C248.155 29.4742 249.71 31.1936 251.182 33.3223C252.737 35.533 254.373 37.5798 254.864 38.0711C255.437 38.4805 257.073 40.5273 258.628 42.5742C260.1 44.6211 261.737 46.668 262.228 47.1592C262.637 47.7323 264.273 49.6155 265.746 51.4986C267.873 54.0367 269.1 54.8555 270.9 54.8555H273.273V35.6148V16.3742H270H266.81L266.564 29.2286L266.319 42.083L256.5 29.8836C251.182 23.088 246.355 17.3567 245.864 17.0292C245.455 16.7017 244.064 16.3742 242.837 16.3742H240.546V35.6148Z" fill="#006633"/>
<path d="M33.6272 22.5151C26.0181 24.3982 21.0272 27.5913 17.0999 32.9951C12.8454 38.8082 14.2363 46.3407 20.8636 53.4638C25.609 58.4582 29.4545 69.0201 29.4545 76.9619C29.4545 82.4476 28.0636 87.1144 24.2181 94.8926C22.2545 98.9044 21.2727 102.016 21.2727 104.308C21.2727 110.94 27.409 116.344 36.2454 117.572C41.1545 118.227 47.6999 116.262 51.7909 112.905C54.5727 110.613 62.1818 101.443 62.1818 100.378C62.1818 100.133 63.4908 97.1851 65.0454 93.8282C66.5999 90.4713 67.909 87.1963 67.909 86.6232C67.909 86.0501 68.3999 84.1669 69.0545 82.2838C72.0818 73.4413 73.1454 48.6332 70.7727 39.7088C69.0545 33.0769 65.1272 28.1644 58.909 25.0532C52.5272 21.8601 40.7454 20.7138 33.6272 22.5151Z" fill="#006633"/>
<path d="M85.0908 65.4992V69.593H90.8181H96.5454V84.7398V99.8867H101.454H106.364V84.7398V69.593H112.091H117.818V65.4992V61.4055H101.454H85.0908V65.4992Z" fill="#006633"/>
<path d="M132.546 80.6461V99.8867L147.11 99.723L161.591 99.4773L161.837 95.5473L162.082 91.6992H151.855H141.546V88.0148V84.3305H150.137H158.728V80.2367V76.143H150.137H141.546V72.868V69.593H151.364H161.182V65.4992V61.4055H146.864H132.546V80.6461Z" fill="#006633"/>
<path d="M188.754 63.8617C187.936 65.1717 187.363 66.3998 187.445 66.4817C187.527 66.6455 186.627 68.938 185.318 71.6398C184.09 74.3417 182.618 77.6167 182.045 79.0086C181.063 81.3011 179.427 84.9855 175.172 94.3192C174.272 96.448 173.454 98.5767 173.454 99.068C173.454 99.4773 175.5 99.8867 178.036 99.8867H182.536L184.336 95.793L186.136 91.6992H194.318H202.5L203.563 94.3192C205.609 99.3955 205.69 99.4773 210.6 99.723C214.2 99.8867 215.181 99.723 215.181 98.7405C215.181 97.5942 213.463 93.6642 207.245 80.2367C205.69 76.8798 204.136 73.3592 203.727 72.4586C203.318 71.558 202.09 68.6923 200.945 66.0723L198.736 61.4055H194.481C190.554 61.4055 190.063 61.6511 188.754 63.8617ZM197.1 78.4355C198.081 80.8098 198.818 83.1023 198.818 83.5117C198.818 84.003 196.772 84.3305 194.318 84.3305C191.863 84.3305 189.818 84.003 189.818 83.5936C189.818 83.1842 190.472 81.3011 191.372 79.3361C192.19 77.3711 193.09 74.9967 193.418 74.178C194.154 72.0492 195.054 73.1136 197.1 78.4355Z" fill="#006633"/>
<path d="M229.091 80.6461V99.8867H233.591H238.091V89.9798V79.9911L239.727 82.1198C240.627 83.2661 241.364 84.4123 241.364 84.5761C241.364 84.8217 242.918 87.4417 244.718 90.3892C247.582 94.9742 248.482 95.793 250.364 95.793C252.409 95.793 253.227 94.9742 256.418 89.6523C258.464 86.2136 260.182 83.1842 260.182 82.7748C260.182 82.3655 260.754 81.6286 261.409 81.0555C262.473 80.1548 262.636 81.2192 262.636 89.9798V99.8867H267.136H271.636V80.6461V61.4055H267.709C264.354 61.4055 263.536 61.733 262.8 63.2067C262.309 64.2711 260.754 66.8911 259.364 69.1836C258.054 71.3942 256.664 73.9323 256.418 74.6692C256.091 75.488 255.6 76.143 255.354 76.143C255.027 76.143 253.882 77.7805 252.9 79.8273C251.918 81.8742 250.854 83.5117 250.527 83.5117C250.036 83.5117 248.809 81.6286 245.7 76.143C245.045 74.9967 243.818 72.9498 243 71.6398C242.1 70.248 240.464 67.4642 239.236 65.2536C237.027 61.4873 236.945 61.4055 233.018 61.4055H229.091V80.6461Z" fill="#006633"/>
<path d="M162 111.678C162 112.333 161.509 113.07 161.018 113.234C160.2 113.561 160.2 113.807 160.936 114.38C161.427 114.79 162 116.918 162.163 119.129C162.409 122.895 162.572 123.223 164.7 123.468C166.254 123.632 166.909 123.386 166.909 122.486C166.909 121.667 166.418 121.421 165.681 121.667C164.7 122.076 164.454 121.421 164.454 118.392C164.454 115.608 164.781 114.626 165.681 114.626C166.336 114.626 166.909 114.216 166.909 113.807C166.909 113.316 166.418 112.988 165.763 112.988C165.109 112.988 164.454 112.415 164.127 111.76C163.554 110.205 162 110.123 162 111.678Z" fill="#006633"/>
<path d="M91.4728 113.888C89.591 114.953 89.5092 120.52 91.3092 122.076C92.0456 122.649 93.8456 123.058 95.4001 123.058C96.9546 122.976 98.1819 123.304 98.1819 123.631C98.1819 124.778 95.5637 125.351 92.6183 124.778C90.491 124.368 89.8365 124.45 90.1637 125.351C90.9819 127.725 98.5092 128.053 99.9819 125.76C100.309 125.269 100.636 122.24 100.636 119.046V113.233L96.791 113.151C94.5819 113.07 92.2092 113.397 91.4728 113.888ZM96.6274 115.444C98.6728 116.59 98.6728 120.111 96.5456 120.766C94.5001 121.421 91.6365 119.865 91.6365 118.146C91.6365 117.409 92.291 116.345 93.1092 115.771C94.8274 114.461 94.6637 114.461 96.6274 115.444Z" fill="#006633"/>
<path d="M106.363 118.309C106.363 122.485 106.609 123.631 107.591 123.631C108.491 123.631 108.818 122.648 108.818 119.946C108.818 117.163 109.227 116.098 110.454 115.443C112.991 114.133 112.418 112.987 109.227 112.987H106.363V118.309Z" fill="#006633"/>
<path d="M117.246 114.625C113.891 118.473 116.264 123.631 121.337 123.631C124.773 123.631 126.737 122.403 125.509 121.175C124.773 120.438 124.118 120.52 122.809 121.256C121.337 122.239 120.928 122.157 119.7 120.929C118.391 119.619 118.473 119.537 122.155 119.537C125.837 119.537 126 119.455 126 117.081C126 113.069 120.028 111.35 117.246 114.625ZM122.728 115.853C123.628 116.917 123.382 117.081 121.091 117.081C118.8 117.081 118.555 116.917 119.455 115.853C120.028 115.198 120.764 114.625 121.091 114.625C121.418 114.625 122.155 115.198 122.728 115.853Z" fill="#006633"/>
<path d="M131.482 114.462C129.682 116.509 129.763 120.602 131.563 122.24C134.018 124.451 139.909 123.877 139.909 121.421C139.909 120.521 139.5 120.357 138.518 120.766C135.409 122.076 134.427 122.076 133.445 120.848C132.463 119.702 132.791 119.538 136.554 119.538C140.4 119.538 140.727 119.374 140.727 117.655C140.727 113.479 134.345 111.351 131.482 114.462ZM137.454 115.854C138.354 116.918 138.027 117.082 135.409 117.082C132.791 117.082 132.463 116.918 133.363 115.854C133.936 115.199 134.836 114.626 135.409 114.626C135.982 114.626 136.882 115.199 137.454 115.854Z" fill="#006633"/>
<path d="M145.637 118.473C145.637 121.338 145.964 123.631 146.455 123.631C146.946 123.631 147.273 122.321 147.273 120.765C147.273 116.917 149.891 114.215 152.182 115.607C153.409 116.426 153.819 117.572 153.819 120.11C153.819 122.075 154.228 123.631 154.637 123.631C155.864 123.631 155.619 114.952 154.391 113.888C153.737 113.396 151.528 113.069 149.482 113.151L145.637 113.315V118.473Z" fill="#006633"/>
<path d="M172.473 113.887C170.346 115.116 170.428 121.666 172.555 122.812C175.991 124.613 182.373 123.221 180.246 121.092C179.509 120.356 178.937 120.356 177.955 121.174C176.891 122.075 176.319 122.075 174.519 121.092C172.391 119.946 172.391 119.946 176.809 119.537C180.982 119.127 181.228 118.964 180.982 117.081C180.655 113.478 176.073 111.759 172.473 113.887ZM177.873 115.852C179.346 116.999 179.264 117.081 175.909 117.081C172.555 117.081 172.473 116.999 173.946 115.852C174.764 115.197 175.664 114.706 175.909 114.706C176.155 114.706 177.055 115.197 177.873 115.852Z" fill="#006633"/>
<path d="M185.973 114.216C185.318 116.017 186.136 116.509 188.018 115.526C189.164 114.871 189.982 114.953 191.127 115.854C192.6 117 192.518 117 190.391 117.082C187.2 117.082 184.909 118.474 184.909 120.275C184.909 122.567 186.791 123.632 190.555 123.468L193.909 123.386V118.637C193.909 113.561 193.418 112.988 188.918 112.988C187.527 112.988 186.3 113.479 185.973 114.216ZM192.273 119.374C192.273 120.521 190.391 121.994 188.836 121.994C187.2 121.994 186.791 119.866 188.427 119.292C190.064 118.637 192.273 118.637 192.273 119.374Z" fill="#006633"/>
<path d="M199.637 118.473C199.637 122.485 199.882 123.631 200.864 123.631C201.764 123.631 202.091 122.73 202.091 120.438C202.091 116.917 203.891 114.379 205.773 115.116C206.591 115.443 207 116.835 207 119.619C207 122.648 207.328 123.631 208.228 123.631C209.128 123.631 209.455 122.73 209.455 120.11C209.455 117.49 209.864 116.426 211.173 115.607C213.709 114.051 215.182 115.689 215.182 120.028C215.182 122.648 215.509 123.631 216.409 123.631C218.046 123.631 218.046 117.245 216.409 114.952C215.346 113.396 214.446 113.233 207.409 113.233H199.637V118.473Z" fill="#006633"/>
<path d="M229.991 114.134C228.6 115.772 230.236 116.591 232.445 115.362C233.836 114.626 234.491 114.707 235.473 115.772C236.7 117 236.618 117.082 234.409 117.082C231.3 117.164 229.091 118.801 229.091 121.012C229.091 122.977 230.645 123.632 235.554 123.468H239.073L238.745 118.965C238.5 116.345 237.845 114.134 237.191 113.725C235.391 112.579 231.054 112.824 229.991 114.134ZM236.291 119.702C235.636 121.503 233.345 122.486 232.2 121.339C231.382 120.521 231.382 120.111 232.364 119.538C234.082 118.392 236.618 118.556 236.291 119.702Z" fill="#006633"/>
<path d="M243.818 120.029C243.818 125.596 244.064 126.906 245.046 126.906C245.782 126.906 246.273 126.169 246.273 125.023C246.273 123.386 246.6 123.222 249.464 123.467C252 123.713 252.9 123.467 253.964 121.912C257.237 117.163 254.373 112.987 247.909 113.069L243.818 113.233V120.029ZM251.509 115.935C253.309 117.654 253.146 120.111 251.264 121.175C247.827 122.976 244.964 119.128 247.582 116.181C249.3 114.297 249.873 114.216 251.509 115.935Z" fill="#006633"/>
<path d="M260.182 119.947C260.182 125.596 260.427 126.906 261.409 126.906C262.063 126.906 262.636 126.169 262.636 125.269C262.636 123.959 263.209 123.631 265.336 123.631C268.773 123.631 270.818 121.503 270.818 118.064C270.818 114.789 268.282 112.988 263.7 112.988H260.182V119.947ZM267.382 116.263C268.854 117.654 269.018 118.309 268.282 119.619C267.136 121.83 265.336 122.403 263.863 121.175C262.391 119.947 262.227 116.999 263.618 115.608C264.927 114.298 265.336 114.379 267.382 116.263Z" fill="#006633"/>
<path d="M222.3 120.847C221.155 122.075 221.809 123.631 223.445 123.631C224.591 123.631 225 123.221 224.836 122.239C224.591 120.765 223.2 120.028 222.3 120.847Z" fill="#006633"/>
</svg>
