<svg width="56" height="52" viewBox="0 0 56 52" fill="none" xmlns="http://www.w3.org/2000/svg">
<path d="M14.0321 1.05078C7.21184 1.89453 1.72746 6.98046 0.262617 13.8125C-0.00691454 15.0781 -0.030352 18.8164 0.215742 20.082C0.649335 22.2969 1.77434 24.8633 3.07512 26.6328C3.46184 27.1484 4.85637 28.6719 6.18058 30.0078L8.59465 32.4453L8.93449 31.707C9.22746 31.0977 9.69621 30.5703 11.8173 28.4375C14.7939 25.4492 15.1103 25.2383 16.6923 25.2383C17.9696 25.2383 18.8837 25.6719 19.915 26.7852C20.7704 27.6992 21.204 28.5547 21.2861 29.5039L21.3564 30.1953L22.0126 30.2422C22.9853 30.3125 23.8759 30.7695 24.7782 31.6836C25.6806 32.5859 26.1142 33.4297 26.2079 34.4492L26.2782 35.1406H26.7821C27.7196 35.1406 28.5517 35.5625 29.5361 36.5117C30.6728 37.6133 31.0595 38.3164 31.1415 39.3594L31.2001 40.1445L31.9736 40.2031C32.9462 40.2734 33.579 40.5898 34.5048 41.4687C35.3486 42.2773 35.8056 42.5234 36.4384 42.5234C37.1532 42.5234 37.5986 42.2773 38.3954 41.4453C38.9931 40.8242 39.122 40.6016 39.1923 40.168C39.3798 38.9492 39.5673 39.1836 33.0282 32.6211C28.2001 27.7695 27.0634 26.5625 27.0634 26.3164C27.0634 25.8594 27.5321 25.3789 27.9892 25.3789C28.329 25.3789 28.9267 25.9297 34.3642 31.3555C39.4853 36.4766 40.4345 37.3672 40.8329 37.4727C41.4072 37.625 41.4306 37.625 41.9931 37.4727C42.5439 37.3203 43.7743 36.207 44.0087 35.6445C44.2079 35.1875 44.2197 34.4609 44.0439 34.0156C43.9853 33.8281 41.2665 31.0156 38.0204 27.7461C34.2939 23.9961 32.0907 21.6992 32.0321 21.5C31.8915 20.9141 32.5829 20.2695 33.1923 20.4219C33.3681 20.457 35.7704 22.8008 39.1923 26.2578C42.3212 29.4336 45.0868 32.1523 45.3212 32.293C45.8017 32.5859 46.622 32.6445 47.1845 32.4336C47.6298 32.2695 48.7314 31.1914 48.9306 30.7227C49.165 30.1836 49.1298 29.3516 48.872 28.8359C48.5673 28.2617 32.829 12.5703 32.4657 12.4883C32.3134 12.4531 32.0556 12.4766 31.8798 12.5352C31.7157 12.6055 29.6298 14.5977 27.2392 16.9648C24.0165 20.1758 22.7509 21.3594 22.3173 21.582C20.4306 22.5195 18.122 22.4727 16.5165 21.4531C15.122 20.5742 14.5126 19.6719 14.5126 18.5C14.5009 17.2227 14.4657 17.2695 20.8173 10.8828L26.6532 5L26.2431 4.66015C24.2275 2.98437 21.5439 1.70703 18.954 1.21484C17.747 0.980465 15.2392 0.898434 14.0321 1.05078Z" fill="url(#paint0_linear_556_13338)"/>
<path d="M38.1953 1.05078C34.9492 1.42578 31.7266 2.86719 29.4063 4.98828C28.9844 5.36328 25.8906 8.44531 22.5273 11.832L16.3984 17.9961V18.4883C16.3984 18.9102 16.4688 19.0508 16.7852 19.3555C16.9844 19.543 17.4531 19.8477 17.8047 20.0117C18.3438 20.2695 18.6133 20.3164 19.5039 20.3164C21.3203 20.3164 21.2734 20.3516 26.2422 15.3945C29.4297 12.2188 30.6484 11.0703 31.0469 10.8945C32.0195 10.4492 33.3203 10.6133 34.0703 11.2695C34.2461 11.4219 37.9727 15.1484 42.3672 19.5547C49.1406 26.3633 50.3945 27.6758 50.6172 28.1914C50.7695 28.5312 50.9336 28.8125 50.9688 28.8125C51.0156 28.8125 51.3086 28.5312 51.6367 28.1914C53.8164 25.8828 55.3281 22.7656 55.8555 19.4961C56.0781 18.0781 56.0078 15.0195 55.7148 13.7305C54.3555 7.625 49.8555 2.92578 43.9727 1.46094C42.0039 0.96875 40.1172 0.828125 38.1953 1.05078Z" fill="url(#paint1_linear_556_13338)"/>
<path d="M15.8715 27.2188C15.4027 27.4414 10.7035 32.1758 10.5395 32.5977C10.3754 33.0547 10.3871 33.7812 10.5863 34.2383C10.8207 34.8008 12.0512 35.9141 12.602 36.0664C13.1645 36.2188 13.1879 36.2188 13.7621 36.0664C14.1488 35.9609 14.6762 35.4922 16.6215 33.582C18.1215 32.0938 19.0824 31.0391 19.2231 30.7461C19.4691 30.2188 19.5043 29.5742 19.3168 29.082C19.1527 28.6367 17.9574 27.418 17.4887 27.2188C17.0082 27.0078 16.3285 27.0195 15.8715 27.2188Z" fill="url(#paint2_linear_556_13338)"/>
<path d="M21.1328 32.094C20.5703 32.2229 20.2656 32.4807 17.8984 34.8713C15.6602 37.133 15.3438 37.5549 15.3438 38.3635C15.3438 38.9963 15.6016 39.4651 16.3516 40.2034C17.3594 41.176 18.0625 41.3518 19.0469 40.883C19.5742 40.6252 23.7227 36.5002 24.1328 35.8088C24.4141 35.3635 24.4375 34.4846 24.2031 33.9338C23.9688 33.3713 22.7383 32.258 22.1875 32.1057C21.6836 31.9651 21.6484 31.9651 21.1328 32.094Z" fill="url(#paint3_linear_556_13338)"/>
<path d="M25.7159 37.1793C25.5284 37.273 24.2745 38.4449 22.9503 39.7808C20.337 42.4293 20.1729 42.6636 20.3253 43.648C20.419 44.2925 21.1221 45.2183 21.8839 45.6988C22.4698 46.0621 23.2315 46.1558 23.8643 45.9214C24.251 45.7691 28.8682 41.2222 29.126 40.73C29.3604 40.2964 29.3604 39.2418 29.1378 38.8082C28.9034 38.3746 27.7549 37.2847 27.3565 37.1324C26.9229 36.9683 26.1378 36.9918 25.7159 37.1793Z" fill="url(#paint4_linear_556_13338)"/>
<path d="M30.8139 42.0664C30.5092 42.1602 29.8412 42.7578 28.0717 44.5391C26.7944 45.8281 25.6459 47.0586 25.5287 47.2578C25.1772 47.832 25.224 48.793 25.6342 49.4492C26.2553 50.4102 27.2162 51.0781 28.0248 51.0781C28.7631 51.0781 29.3256 50.6445 31.7162 48.2422C34.0717 45.8633 34.3295 45.5117 34.3295 44.75C34.3295 44.2227 34.0248 43.6016 33.474 43.0156C32.56 42.043 31.8451 41.7852 30.8139 42.0664Z" fill="url(#paint5_linear_556_13338)"/>
<defs>
<linearGradient id="paint0_linear_556_13338" x1="0.0449219" y1="21.7484" x2="49.0875" y2="21.7484" gradientUnits="userSpaceOnUse">
<stop stop-color="#307040"/>
<stop offset="0.455" stop-color="#74B243"/>
<stop offset="0.8" stop-color="#96B032"/>
</linearGradient>
<linearGradient id="paint1_linear_556_13338" x1="16.3984" y1="14.8803" x2="55.9865" y2="14.8803" gradientUnits="userSpaceOnUse">
<stop stop-color="#307040"/>
<stop offset="0.455" stop-color="#74B243"/>
<stop offset="0.8" stop-color="#96B032"/>
</linearGradient>
<linearGradient id="paint2_linear_556_13338" x1="10.4258" y1="31.6228" x2="19.4361" y2="31.6228" gradientUnits="userSpaceOnUse">
<stop stop-color="#307040"/>
<stop offset="0.455" stop-color="#74B243"/>
<stop offset="0.8" stop-color="#96B032"/>
</linearGradient>
<linearGradient id="paint3_linear_556_13338" x1="15.3438" y1="36.5653" x2="24.3629" y2="36.5653" gradientUnits="userSpaceOnUse">
<stop stop-color="#307040"/>
<stop offset="0.455" stop-color="#74B243"/>
<stop offset="0.8" stop-color="#96B032"/>
</linearGradient>
<linearGradient id="paint4_linear_556_13338" x1="20.2852" y1="41.5362" x2="29.3033" y2="41.5362" gradientUnits="userSpaceOnUse">
<stop stop-color="#307040"/>
<stop offset="0.455" stop-color="#74B243"/>
<stop offset="0.8" stop-color="#96B032"/>
</linearGradient>
<linearGradient id="paint5_linear_556_13338" x1="25.293" y1="46.5187" x2="34.3295" y2="46.5187" gradientUnits="userSpaceOnUse">
<stop stop-color="#307040"/>
<stop offset="0.455" stop-color="#74B243"/>
<stop offset="0.8" stop-color="#96B032"/>
</linearGradient>
</defs>
</svg>
