<svg width="56" height="57" viewBox="0 0 56 57" fill="none" xmlns="http://www.w3.org/2000/svg">
<g filter="url(#filter0_d_556_13586)">
<rect x="5.5" y="2.49997" width="45" height="45" rx="12" fill="url(#paint0_linear_556_13586)"/>
</g>
<path d="M29.5198 14.1085C29.3836 14.1612 29.2034 14.2535 29.1155 14.3063C28.9046 14.4381 28.5618 14.816 28.4168 15.084C28.3553 15.2027 27.973 16.1518 27.5775 17.1932C27.1776 18.2346 26.7997 19.1925 26.7337 19.3243C26.2108 20.3525 25.0419 21.618 23.4511 22.8792L22.9765 23.2527V29.2814V35.3101L23.561 35.4903C24.9364 35.9253 26.1713 36.1933 27.8104 36.3998C28.5399 36.4921 35.6369 36.5404 36.028 36.457C36.8366 36.2768 37.5704 35.5518 37.7594 34.7433C37.8868 34.2204 37.8297 33.6359 37.61 33.1789C37.5616 33.0823 37.5221 32.99 37.5221 32.9768C37.5221 32.9636 37.6056 32.9021 37.711 32.8406C37.9835 32.6824 38.3702 32.2518 38.5328 31.9354C38.6822 31.6322 38.7965 31.1884 38.7965 30.8764C38.7965 30.5732 38.6822 30.1075 38.5416 29.8219L38.4098 29.567L38.6339 29.3824C39.4952 28.6838 39.7413 27.5193 39.2491 26.4823C39.1744 26.3241 39.0118 26.1176 38.7789 25.8891L38.4185 25.5376L38.5416 25.2959C38.6778 25.0279 38.7965 24.5445 38.7965 24.2413C38.7965 23.1955 38.0143 22.22 36.986 21.9784C36.7575 21.9256 36.2521 21.9125 34.1516 21.9125C32.7409 21.9125 31.5896 21.9037 31.5896 21.8949C31.5896 21.8861 31.6379 21.6356 31.6995 21.3368C32.1125 19.3243 32.3147 17.3162 32.2048 16.3319C32.0554 14.961 31.6775 14.3634 30.7942 14.0865C30.4031 13.9635 29.8406 13.9723 29.5198 14.1085Z" fill="#FEFEFE"/>
<path d="M17.5055 23.8942C17.4132 23.9162 17.2858 23.9821 17.2286 24.0348C16.9869 24.2589 17.0001 23.9645 17.0001 29.4615V34.5543L17.1012 34.7037C17.3077 35.0113 17.2638 35.0069 19.606 35.0069H21.7022V29.4264V23.8459L19.6939 23.8503C18.5865 23.8547 17.6022 23.8722 17.5055 23.8942Z" fill="#FEFEFE"/>
<defs>
<filter id="filter0_d_556_13586" x="-4.76837e-07" y="0.499969" width="56" height="56" filterUnits="userSpaceOnUse" color-interpolation-filters="sRGB">
<feFlood flood-opacity="0" result="BackgroundImageFix"/>
<feColorMatrix in="SourceAlpha" type="matrix" values="0 0 0 0 0 0 0 0 0 0 0 0 0 0 0 0 0 0 127 0" result="hardAlpha"/>
<feOffset dy="3.5"/>
<feGaussianBlur stdDeviation="2.75"/>
<feColorMatrix type="matrix" values="0 0 0 0 0 0 0 0 0 0 0 0 0 0 0 0 0 0 0.02 0"/>
<feBlend mode="normal" in2="BackgroundImageFix" result="effect1_dropShadow_556_13586"/>
<feBlend mode="normal" in="SourceGraphic" in2="effect1_dropShadow_556_13586" result="shape"/>
</filter>
<linearGradient id="paint0_linear_556_13586" x1="5.5" y1="25" x2="50.5" y2="25" gradientUnits="userSpaceOnUse">
<stop stop-color="#307040"/>
<stop offset="0.455" stop-color="#74B243"/>
<stop offset="0.8" stop-color="#96B032"/>
</linearGradient>
</defs>
</svg>
