<svg width="56" height="57" viewBox="0 0 56 57" fill="none" xmlns="http://www.w3.org/2000/svg">
<g filter="url(#filter0_d_556_13596)">
<rect x="5.49997" y="2.49994" width="45" height="45" rx="12" fill="url(#paint0_linear_556_13596)"/>
</g>
<path d="M22.6689 13.5648C21.7988 13.7142 20.9067 14.0438 20.2212 14.4701C18.5381 15.5249 17.4174 17.1818 17.0835 19.1155C17.0044 19.5814 17 19.8451 17 22.8731C17 26.266 17.0088 26.4242 17.1977 27.1669C17.6723 29.0611 18.9951 30.6916 20.7573 31.5618C21.4912 31.9266 22.0932 32.0936 23.2314 32.2474L23.372 32.2694V33.9218C23.372 35.5216 23.3764 35.5787 23.4643 35.7237C23.5127 35.8028 23.6137 35.8995 23.6797 35.9347C23.8291 36.0138 24.1762 36.0226 24.3081 35.9523C24.3608 35.9215 24.7124 35.6007 25.0859 35.2359C25.4638 34.8711 25.9604 34.4316 26.1889 34.2558C27.5117 33.2626 29.019 32.6253 30.6538 32.3704C30.8911 32.3353 31.6382 32.2869 32.3149 32.265C33.5981 32.2254 34.0024 32.1771 34.6748 31.9837C36.9248 31.3289 38.7265 29.4523 39.3022 27.1669C39.4912 26.4242 39.5 26.266 39.5 22.8731C39.5 19.8451 39.4956 19.5814 39.4165 19.1155C38.9199 16.2325 36.7007 14.0395 33.7871 13.5604C33.2641 13.4769 23.1743 13.4813 22.6689 13.5648ZM23.9873 21.5459C24.7519 21.9063 25.0639 22.8292 24.664 23.5675C24.1938 24.4245 23.0381 24.5959 22.3525 23.9059C22.0361 23.5939 21.9438 23.3522 21.9438 22.86C21.9438 22.4952 21.9614 22.4161 22.0625 22.2227C22.4404 21.5107 23.2798 21.2163 23.9873 21.5459ZM28.8652 21.5459C29.9858 22.0733 29.9902 23.6378 28.874 24.1872C28.6235 24.3103 28.54 24.3322 28.25 24.3322C27.9599 24.3322 27.8764 24.3103 27.6259 24.1872C26.8921 23.8268 26.5844 22.983 26.9272 22.2754C27.125 21.8711 27.3183 21.6777 27.705 21.5151C28.0566 21.3701 28.5136 21.3833 28.8652 21.5459ZM33.6421 21.5019C33.9453 21.6206 34.2793 21.9151 34.4375 22.2227C34.5385 22.4161 34.5561 22.4952 34.5561 22.86C34.5561 23.2159 34.5385 23.3082 34.4507 23.4972C34.0991 24.2048 33.2378 24.5344 32.5522 24.2136C32.0732 23.9938 31.7568 23.5895 31.6777 23.1017C31.4975 22.0073 32.5962 21.1152 33.6421 21.5019Z" fill="#FEFEFE"/>
<defs>
<filter id="filter0_d_556_13596" x="-3.09944e-05" y="0.499939" width="56" height="56" filterUnits="userSpaceOnUse" color-interpolation-filters="sRGB">
<feFlood flood-opacity="0" result="BackgroundImageFix"/>
<feColorMatrix in="SourceAlpha" type="matrix" values="0 0 0 0 0 0 0 0 0 0 0 0 0 0 0 0 0 0 127 0" result="hardAlpha"/>
<feOffset dy="3.5"/>
<feGaussianBlur stdDeviation="2.75"/>
<feColorMatrix type="matrix" values="0 0 0 0 0 0 0 0 0 0 0 0 0 0 0 0 0 0 0.02 0"/>
<feBlend mode="normal" in2="BackgroundImageFix" result="effect1_dropShadow_556_13596"/>
<feBlend mode="normal" in="SourceGraphic" in2="effect1_dropShadow_556_13596" result="shape"/>
</filter>
<linearGradient id="paint0_linear_556_13596" x1="5.49997" y1="24.9999" x2="50.5" y2="24.9999" gradientUnits="userSpaceOnUse">
<stop stop-color="#307040"/>
<stop offset="0.455" stop-color="#74B243"/>
<stop offset="0.8" stop-color="#96B032"/>
</linearGradient>
</defs>
</svg>
