<svg width="56" height="57" viewBox="0 0 56 57" fill="none" xmlns="http://www.w3.org/2000/svg">
<g filter="url(#filter0_d_556_13605)">
<rect x="5.5" y="2.49997" width="45" height="45" rx="12" fill="url(#paint0_linear_556_13605)"/>
</g>
<path d="M32.8805 13.075C31.8106 13.3857 31.1699 14.2964 31.1699 15.5178C31.1699 16.4071 31.4341 17.0125 32.0351 17.5321C32.4908 17.9178 32.9003 18.0571 33.5805 18.0625C34.0164 18.0625 34.1749 18.0357 34.4853 17.9178C35.4562 17.5535 35.9977 16.7018 35.9977 15.5446C36.0043 14.3875 35.4826 13.5518 34.5183 13.1607C34.1815 13.0214 34.0494 13 33.6202 13C33.3428 13.0053 33.0126 13.0375 32.8805 13.075Z" fill="#FEFEFE"/>
<path d="M27.621 13.6752C26.3133 14.0663 25.9963 15.9788 27.0927 16.9431C27.4361 17.2431 27.7795 17.3931 28.2352 17.4306C28.6645 17.4681 29.1334 17.3502 29.4702 17.1252C30.4213 16.4877 30.4147 14.8002 29.4504 14.0181C28.9881 13.6431 28.2154 13.4985 27.621 13.6752Z" fill="#FEFEFE"/>
<path d="M23.5363 15.3779C22.5984 15.7315 22.3144 16.8618 22.9154 17.8208C23.457 18.6833 24.6524 18.9458 25.4317 18.3726C25.8478 18.0672 25.9733 17.8208 26.0063 17.2529C26.0393 16.7279 25.9402 16.3797 25.6695 15.9993C25.1873 15.3297 24.3288 15.0779 23.5363 15.3779Z" fill="#FEFEFE"/>
<path d="M20.8374 17.9988C20.5864 18.0899 20.2232 18.4221 20.0977 18.6738C19.9524 18.9578 19.9722 19.5578 20.1373 19.9167C20.309 20.281 20.7185 20.6774 21.0949 20.8328C21.6563 21.0631 22.3498 20.9346 22.7724 20.5221C23.2942 20.0078 23.2083 19.0649 22.5809 18.4488C22.1582 18.031 21.3327 17.8167 20.8374 17.9988Z" fill="#FEFEFE"/>
<path d="M29.0644 18.2018C26.5547 18.4375 24.2828 19.75 23.1799 21.5928C22.493 22.7393 22.2619 23.875 22.4534 25.2143C22.5525 25.9482 23.0346 29.8428 23.1138 30.5714C23.1535 30.941 23.2129 31.841 23.2459 32.5803C23.312 34.0535 23.3648 34.3107 23.7479 34.9428C24.1639 35.6285 24.8574 36.191 25.7688 36.5714C26.4821 36.8768 27.1359 37 27.9945 37C28.8398 37 29.2889 36.9143 30.0484 36.6196C30.5107 36.4375 30.7155 36.3089 31.2042 35.9071C32.0892 35.1785 32.4722 34.5143 32.5383 33.5714C32.5647 33.1321 32.5251 32.816 32.2213 31.241C31.6335 28.1607 31.7325 27.475 33.0864 25.5089C34.229 23.8428 34.5328 23.1732 34.5856 22.1553C34.6318 21.3678 34.513 20.891 34.0903 20.216C33.5818 19.3857 32.6043 18.6893 31.5146 18.3785C30.7287 18.1589 30.055 18.1107 29.0644 18.2018Z" fill="#FEFEFE"/>
<defs>
<filter id="filter0_d_556_13605" x="-4.76837e-07" y="0.499969" width="56" height="56" filterUnits="userSpaceOnUse" color-interpolation-filters="sRGB">
<feFlood flood-opacity="0" result="BackgroundImageFix"/>
<feColorMatrix in="SourceAlpha" type="matrix" values="0 0 0 0 0 0 0 0 0 0 0 0 0 0 0 0 0 0 127 0" result="hardAlpha"/>
<feOffset dy="3.5"/>
<feGaussianBlur stdDeviation="2.75"/>
<feColorMatrix type="matrix" values="0 0 0 0 0 0 0 0 0 0 0 0 0 0 0 0 0 0 0.02 0"/>
<feBlend mode="normal" in2="BackgroundImageFix" result="effect1_dropShadow_556_13605"/>
<feBlend mode="normal" in="SourceGraphic" in2="effect1_dropShadow_556_13605" result="shape"/>
</filter>
<linearGradient id="paint0_linear_556_13605" x1="5.5" y1="25" x2="50.5" y2="25" gradientUnits="userSpaceOnUse">
<stop stop-color="#307040"/>
<stop offset="0.455" stop-color="#74B243"/>
<stop offset="0.8" stop-color="#96B032"/>
</linearGradient>
</defs>
</svg>
